LinguisticsPro-Regular.ufo
<glyph name="exclam" format="2">
  <advance width="242"/>
  <unicode hex="0021"/>
  <outline>
    <contour>
      <point x="58" y="52" type="curve" smooth="yes"/>
      <point x="58" y="90"/>
      <point x="85" y="116"/>
      <point x="122" y="116" type="curve" smooth="yes"/>
      <point x="158" y="116"/>
      <point x="184" y="90"/>
      <point x="184" y="52" type="curve" smooth="yes"/>
      <point x="184" y="14"/>
      <point x="159" y="-12"/>
      <point x="122" y="-12" type="curve" smooth="yes"/>
      <point x="84" y="-12"/>
      <point x="58" y="14"/>
    </contour>
    <contour>
      <point x="106" y="209" type="line"/>
      <point x="66" y="640" type="line"/>
      <point x="65" y="646"/>
      <point x="65" y="659"/>
      <point x="65" y="660" type="curve" smooth="yes"/>
      <point x="65" y="692"/>
      <point x="76" y="707"/>
      <point x="121" y="707" type="curve" smooth="yes"/>
      <point x="167" y="707"/>
      <point x="178" y="692"/>
      <point x="178" y="660" type="curve" smooth="yes"/>
      <point x="178" y="654"/>
      <point x="178" y="647"/>
      <point x="177" y="640" type="curve"/>
      <point x="135" y="209" type="line"/>
    </contour>
  </outline>
</glyph>
<glyph name="dollar" format="2">
  <advance width="530"/>
  <unicode hex="0024"/>
  <outline>
    <contour>
      <point x="44" y="109" type="curve" smooth="yes"/>
      <point x="44" y="137"/>
      <point x="67" y="161"/>
      <point x="91" y="161" type="curve" smooth="yes"/>
      <point x="103" y="161"/>
      <point x="112" y="154"/>
      <point x="119" y="139" type="curve" smooth="yes"/>
      <point x="149" y="75"/>
      <point x="194" y="38"/>
      <point x="243" y="35" type="curve"/>
      <point x="243" y="311" type="line"/>
      <point x="212" y="321" type="line" smooth="yes"/>
      <point x="107" y="355"/>
      <point x="56" y="412"/>
      <point x="56" y="495" type="curve" smooth="yes"/>
      <point x="56" y="595"/>
      <point x="130" y="662"/>
      <point x="243" y="667" type="curve"/>
      <point x="243" y="743" type="line"/>
      <point x="283" y="743" type="line"/>
      <point x="283" y="668" type="line"/>
      <point x="377" y="664"/>
      <point x="458" y="618"/>
      <point x="458" y="569" type="curve" smooth="yes"/>
      <point x="458" y="543"/>
      <point x="436" y="524"/>
      <point x="411" y="524" type="curve" smooth="yes"/>
      <point x="397" y="524"/>
      <point x="390" y="530"/>
      <point x="382" y="551" type="curve" smooth="yes"/>
      <point x="363" y="600"/>
      <point x="326" y="630"/>
      <point x="283" y="633" type="curve"/>
      <point x="283" y="390" type="line"/>
      <point x="313" y="381" type="line" smooth="yes"/>
      <point x="430" y="346"/>
      <point x="487" y="282"/>
      <point x="487" y="185" type="curve" smooth="yes"/>
      <point x="487" y="85"/>
      <point x="393" y="0"/>
      <point x="283" y="0" type="curve"/>
      <point x="283" y="-102" type="line"/>
      <point x="243" y="-102" type="line"/>
      <point x="243" y="0" type="line"/>
      <point x="132" y="4"/>
      <point x="44" y="55"/>
    </contour>
    <contour>
      <point x="135" y="521" type="curve" smooth="yes"/>
      <point x="135" y="466"/>
      <point x="168" y="430"/>
      <point x="243" y="405" type="curve"/>
      <point x="243" y="632" type="line"/>
      <point x="181" y="632"/>
      <point x="135" y="585"/>
    </contour>
    <contour>
      <point x="283" y="35" type="line"/>
      <point x="354" y="35"/>
      <point x="400" y="82"/>
      <point x="400" y="159" type="curve" smooth="yes"/>
      <point x="400" y="228"/>
      <point x="363" y="272"/>
      <point x="283" y="298" type="curve"/>
    </contour>
  </outline>
</glyph>
<glyph name="quotesingle" format="2">
  <advance width="278"/>
  <unicode hex="0027"/>
  <outline>
    <contour>
      <point x="96" y="680" type="line" smooth="yes"/>
      <point x="95.2713" y="684.63"/>
      <point x="94" y="697.155"/>
      <point x="94" y="704.297" type="curve" smooth="yes"/>
      <point x="94" y="728"/>
      <point x="108" y="742"/>
      <point x="140" y="742" type="curve" smooth="yes"/>
      <point x="172" y="742"/>
      <point x="186" y="728"/>
      <point x="186" y="700.192" type="curve" smooth="yes"/>
      <point x="186" y="697"/>
      <point x="185.816" y="685.033"/>
      <point x="185" y="680" type="curve" smooth="yes"/>
      <point x="150" y="464" type="line"/>
      <point x="130" y="464" type="line"/>
    </contour>
  </outline>
</glyph>
<glyph name="plus" format="2">
  <advance width="570"/>
  <unicode hex="002B"/>
  <outline>
    <contour>
      <point x="43" y="221" type="line"/>
      <point x="43" y="279" type="line"/>
      <point x="251" y="279" type="line"/>
      <point x="251" y="490" type="line"/>
      <point x="319" y="490" type="line"/>
      <point x="319" y="279" type="line"/>
      <point x="527" y="279" type="line"/>
      <point x="527" y="221" type="line"/>
      <point x="319" y="221" type="line"/>
      <point x="319" y="0" type="line"/>
      <point x="251" y="0" type="line"/>
      <point x="251" y="221" type="line"/>
    </contour>
  </outline>
</glyph>
<glyph name="comma" format="2">
  <advance width="265"/>
  <unicode hex="002C"/>
  <outline>
    <contour>
      <point x="51" y="-122" type="line"/>
      <point x="83" y="-87"/>
      <point x="109" y="-47"/>
      <point x="109" y="-6" type="curve" smooth="yes"/>
      <point x="109" y="37"/>
      <point x="76" y="55"/>
      <point x="76" y="91" type="curve" smooth="yes"/>
      <point x="76" y="117"/>
      <point x="94" y="141"/>
      <point x="125" y="141" type="curve" smooth="yes"/>
      <point x="163" y="141"/>
      <point x="193" y="104"/>
      <point x="193" y="51" type="curve" smooth="yes"/>
      <point x="193" y="-28"/>
      <point x="120" y="-94"/>
      <point x="70" y="-141" type="curve"/>
    </contour>
  </outline>
</glyph>
<glyph name="hyphen" format="2">
  <advance width="350"/>
  <unicode hex="002D"/>
  <outline>
    <contour>
      <point x="50" y="216" type="line"/>
      <point x="50" y="286" type="line"/>
      <point x="300" y="286" type="line"/>
      <point x="300" y="216" type="line"/>
    </contour>
  </outline>
</glyph>
<glyph name="slash" format="2">
  <advance width="460"/>
  <unicode hex="002F"/>
  <outline>
    <contour>
      <point x="92" y="-15" type="line"/>
      <point x="302" y="707" type="line"/>
      <point x="369" y="707" type="line"/>
      <point x="159" y="-15" type="line"/>
    </contour>
  </outline>
</glyph>
<glyph name="one" format="2">
  <advance width="440"/>
  <unicode hex="0031"/>
  <outline>
    <contour>
      <point x="59" y="0" type="line"/>
      <point x="59" y="29" type="line"/>
      <point x="143" y="36" type="line" smooth="yes"/>
      <point x="171.914" y="38.6286"/>
      <point x="176" y="59.3945"/>
      <point x="176" y="85" type="curve" smooth="yes"/>
      <point x="176" y="570" type="line" smooth="yes"/>
      <point x="176" y="599"/>
      <point x="169" y="607"/>
      <point x="152" y="609" type="curve" smooth="yes"/>
      <point x="59" y="620" type="line"/>
      <point x="59" y="645" type="line"/>
      <point x="265" y="680" type="line"/>
      <point x="270" y="674" type="line"/>
      <point x="270" y="85" type="line" smooth="yes"/>
      <point x="270" y="46"/>
      <point x="282" y="38"/>
      <point x="303" y="36" type="curve" smooth="yes"/>
      <point x="387" y="29" type="line"/>
      <point x="387" y="0" type="line"/>
    </contour>
  </outline>
</glyph>
<glyph name="two" format="2">
  <advance width="530"/>
  <unicode hex="0032"/>
  <outline>
    <contour>
      <point x="27" y="10" type="line"/>
      <point x="46" y="88"/>
      <point x="89" y="156"/>
      <point x="216.521" y="267.732" type="curve" smooth="yes"/>
      <point x="299" y="340"/>
      <point x="353" y="400"/>
      <point x="353" y="509.871" type="curve" smooth="yes"/>
      <point x="353" y="580"/>
      <point x="331" y="645"/>
      <point x="258.599" y="645" type="curve" smooth="yes"/>
      <point x="192" y="645"/>
      <point x="153" y="590"/>
      <point x="138.938" y="530.237" type="curve" smooth="yes"/>
      <point x="133" y="505"/>
      <point x="126" y="495"/>
      <point x="110.547" y="495" type="curve" smooth="yes"/>
      <point x="91" y="495"/>
      <point x="53" y="511"/>
      <point x="53" y="547.334" type="curve" smooth="yes"/>
      <point x="53" y="597"/>
      <point x="124" y="680"/>
      <point x="261" y="680" type="curve" smooth="yes"/>
      <point x="366" y="680"/>
      <point x="458" y="632"/>
      <point x="458" y="504.948" type="curve" smooth="yes"/>
      <point x="458" y="391"/>
      <point x="384" y="336"/>
      <point x="288" y="266" type="curve" smooth="yes"/>
      <point x="195" y="199"/>
      <point x="136" y="128"/>
      <point x="120" y="76" type="curve"/>
      <point x="376" y="76" type="line" smooth="yes"/>
      <point x="416" y="76"/>
      <point x="436" y="83"/>
      <point x="457" y="137" type="curve"/>
      <point x="485" y="132" type="line"/>
      <point x="451" y="0" type="line"/>
      <point x="37" y="0" type="line"/>
    </contour>
  </outline>
</glyph>
<glyph name="three" format="2">
  <advance width="520"/>
  <unicode hex="0033"/>
  <outline>
    <contour>
      <point x="26" y="105.392" type="curve" smooth="yes"/>
      <point x="26" y="138.354"/>
      <point x="61" y="157.412"/>
      <point x="79" y="157.412" type="curve" smooth="yes"/>
      <point x="93" y="157.412"/>
      <point x="103" y="148.385"/>
      <point x="111.505" y="122.792" type="curve" smooth="yes"/>
      <point x="128" y="73.1538"/>
      <point x="171" y="23"/>
      <point x="242.484" y="23" type="curve" smooth="yes"/>
      <point x="308" y="23"/>
      <point x="368" y="65.1292"/>
      <point x="368" y="184.495" type="curve" smooth="yes"/>
      <point x="368" y="271.763"/>
      <point x="319" y="349"/>
      <point x="234" y="349" type="curve" smooth="yes"/>
      <point x="186" y="349"/>
      <point x="159" y="338.969"/>
      <point x="147" y="338.969" type="curve" smooth="yes"/>
      <point x="134" y="338.969"/>
      <point x="129" y="349.972"/>
      <point x="129" y="366.5" type="curve" smooth="yes"/>
      <point x="129" y="384"/>
      <point x="134" y="394"/>
      <point x="147" y="394" type="curve" smooth="yes"/>
      <point x="159" y="394"/>
      <point x="186" y="384"/>
      <point x="234" y="384" type="curve" smooth="yes"/>
      <point x="319" y="384"/>
      <point x="340" y="459"/>
      <point x="340" y="519" type="curve" smooth="yes"/>
      <point x="340" y="575"/>
      <point x="321" y="645"/>
      <point x="245.7" y="645" type="curve" smooth="yes"/>
      <point x="186" y="645"/>
      <point x="148" y="601"/>
      <point x="126" y="533" type="curve" smooth="yes"/>
      <point x="122" y="520"/>
      <point x="114" y="513"/>
      <point x="103.446" y="513" type="curve" smooth="yes"/>
      <point x="87" y="513"/>
      <point x="52" y="530"/>
      <point x="52" y="561" type="curve" smooth="yes"/>
      <point x="52" y="604"/>
      <point x="117" y="680"/>
      <point x="250.218" y="680" type="curve" smooth="yes"/>
      <point x="356.593" y="680"/>
      <point x="444" y="631"/>
      <point x="444" y="526" type="curve" smooth="yes"/>
      <point x="444" y="421"/>
      <point x="356.593" y="381.083"/>
      <point x="302" y="372.333" type="curve"/>
      <point x="302" y="368.444" type="line"/>
      <point x="357.63" y="363.583"/>
      <point x="473" y="323.923"/>
      <point x="473" y="184.839" type="curve" smooth="yes"/>
      <point x="473" y="61.1169"/>
      <point x="382" y="-12"/>
      <point x="237.998" y="-12" type="curve" smooth="yes"/>
      <point x="95" y="-12"/>
      <point x="26" y="59.1108"/>
    </contour>
  </outline>
</glyph>
<glyph name="five" format="2">
  <advance width="520"/>
  <unicode hex="0035"/>
  <outline>
    <contour>
      <point x="30" y="102" type="curve" smooth="yes"/>
      <point x="30" y="135"/>
      <point x="63" y="155"/>
      <point x="83" y="155" type="curve" smooth="yes"/>
      <point x="97" y="155"/>
      <point x="106" y="146"/>
      <point x="111" y="131" type="curve" smooth="yes"/>
      <point x="131" y="74"/>
      <point x="167" y="23"/>
      <point x="237" y="23" type="curve" smooth="yes"/>
      <point x="324" y="23"/>
      <point x="366" y="101"/>
      <point x="366" y="204" type="curve" smooth="yes"/>
      <point x="366" y="336"/>
      <point x="296" y="383"/>
      <point x="227" y="383" type="curve" smooth="yes"/>
      <point x="178" y="383"/>
      <point x="137" y="360"/>
      <point x="95" y="312" type="curve"/>
      <point x="71" y="324" type="line"/>
      <point x="91" y="659" type="line"/>
      <point x="101" y="668" type="line"/>
      <point x="435" y="668" type="line"/>
      <point x="440" y="660" type="line"/>
      <point x="416" y="592" type="line"/>
      <point x="167" y="592" type="line" smooth="yes"/>
      <point x="148" y="592"/>
      <point x="141" y="588"/>
      <point x="138" y="563" type="curve" smooth="yes"/>
      <point x="115" y="376" type="line"/>
      <point x="117" y="374" type="line"/>
      <point x="149" y="403"/>
      <point x="208" y="427"/>
      <point x="272" y="427" type="curve" smooth="yes"/>
      <point x="382" y="427"/>
      <point x="470" y="355"/>
      <point x="470" y="216" type="curve" smooth="yes"/>
      <point x="470" y="88"/>
      <point x="395" y="-12"/>
      <point x="233" y="-12" type="curve" smooth="yes"/>
      <point x="100" y="-12"/>
      <point x="30" y="56"/>
    </contour>
  </outline>
</glyph>
<glyph name="six" format="2">
  <advance width="530"/>
  <unicode hex="0036"/>
  <outline>
    <contour>
      <point x="44" y="312.841" type="curve" smooth="yes"/>
      <point x="44" y="558"/>
      <point x="141" y="680"/>
      <point x="301.7" y="680" type="curve" smooth="yes"/>
      <point x="420.79" y="680"/>
      <point x="469.3" y="613"/>
      <point x="469.3" y="575.125" type="curve" smooth="yes"/>
      <point x="469.3" y="545"/>
      <point x="438.61" y="528"/>
      <point x="416.83" y="528" type="curve" smooth="yes"/>
      <point x="401.98" y="528"/>
      <point x="393.929" y="537"/>
      <point x="390.894" y="549" type="curve" smooth="yes"/>
      <point x="375.717" y="606"/>
      <point x="343.339" y="645"/>
      <point x="288.529" y="645" type="curve" smooth="yes"/>
      <point x="205.732" y="645"/>
      <point x="143" y="556"/>
      <point x="143" y="336" type="curve"/>
      <point x="145" y="335.711" type="line"/>
      <point x="173.179" y="368.819"/>
      <point x="230.337" y="422"/>
      <point x="315.759" y="422" type="curve" smooth="yes"/>
      <point x="415.84" y="422"/>
      <point x="499" y="349"/>
      <point x="499" y="211.421" type="curve" smooth="yes"/>
      <point x="499" y="78"/>
      <point x="420.79" y="-12"/>
      <point x="277.149" y="-12" type="curve" smooth="yes"/>
      <point x="122" y="-12"/>
      <point x="44" y="93"/>
    </contour>
    <contour>
      <point x="143" y="236" type="curve" smooth="yes"/>
      <point x="143" y="116"/>
      <point x="185.496" y="23"/>
      <point x="277.835" y="23" type="curve" smooth="yes"/>
      <point x="358.516" y="23"/>
      <point x="400" y="94"/>
      <point x="400" y="192.667" type="curve" smooth="yes"/>
      <point x="400" y="314"/>
      <point x="337.268" y="371"/>
      <point x="267.746" y="371" type="curve" smooth="yes"/>
      <point x="188.531" y="371"/>
      <point x="143" y="297"/>
    </contour>
  </outline>
</glyph>
<glyph name="seven" format="2">
  <advance width="520"/>
  <unicode hex="0037"/>
  <outline>
    <contour>
      <point x="31" y="528" type="line"/>
      <point x="62" y="668" type="line"/>
      <point x="479" y="668" type="line"/>
      <point x="488" y="657" type="line"/>
      <point x="460.889" y="574.337"/>
      <point x="410.718" y="470.918"/>
      <point x="336" y="357" type="curve" smooth="yes"/>
      <point x="265.687" y="249.798"/>
      <point x="261" y="148.505"/>
      <point x="261" y="24" type="curve" smooth="yes"/>
      <point x="261" y="-3"/>
      <point x="240.608" y="-12"/>
      <point x="209.644" y="-12" type="curve" smooth="yes"/>
      <point x="180.451" y="-12"/>
      <point x="157" y="-4"/>
      <point x="157" y="29" type="curve" smooth="yes"/>
      <point x="157" y="147"/>
      <point x="215.118" y="259"/>
      <point x="296.194" y="375.113" type="curve" smooth="yes"/>
      <point x="382" y="498"/>
      <point x="400" y="556"/>
      <point x="410" y="592" type="curve"/>
      <point x="139" y="592" type="line" smooth="yes"/>
      <point x="94" y="592"/>
      <point x="81" y="577"/>
      <point x="68" y="549" type="curve" smooth="yes"/>
      <point x="58" y="528" type="line"/>
    </contour>
  </outline>
</glyph>
<glyph name="nine" format="2">
  <advance width="521"/>
  <unicode hex="0039"/>
  <outline>
    <contour>
      <point x="32" y="462.777" type="curve" smooth="yes"/>
      <point x="32" y="595"/>
      <point x="123.08" y="680"/>
      <point x="253.676" y="680" type="curve" smooth="yes"/>
      <point x="436.328" y="680"/>
      <point x="473" y="513.733"/>
      <point x="473" y="361" type="curve" smooth="yes"/>
      <point x="473" y="187.922"/>
      <point x="440.164" y="-12"/>
      <point x="223.79" y="-12" type="curve" smooth="yes"/>
      <point x="104.27" y="-12"/>
      <point x="51.8" y="49"/>
      <point x="51.8" y="93" type="curve" smooth="yes"/>
      <point x="51.8" y="124"/>
      <point x="79.52" y="144"/>
      <point x="101.352" y="144" type="curve" smooth="yes"/>
      <point x="115.16" y="144"/>
      <point x="122.09" y="136"/>
      <point x="126.05" y="123" type="curve" smooth="yes"/>
      <point x="141" y="76"/>
      <point x="166" y="23"/>
      <point x="231.527" y="23" type="curve" smooth="yes"/>
      <point x="369.688" y="23"/>
      <point x="374" y="258.623"/>
      <point x="374" y="352" type="curve"/>
      <point x="372" y="352" type="line"/>
      <point x="338" y="303"/>
      <point x="286" y="268"/>
      <point x="215.897" y="268" type="curve" smooth="yes"/>
      <point x="121.1" y="268"/>
      <point x="32" y="332"/>
    </contour>
    <contour>
      <point x="131" y="485" type="curve" smooth="yes"/>
      <point x="131" y="389"/>
      <point x="176" y="321"/>
      <point x="255.82" y="321" type="curve" smooth="yes"/>
      <point x="332.344" y="321"/>
      <point x="369" y="383.499"/>
      <point x="369" y="453" type="curve" smooth="yes"/>
      <point x="369" y="550"/>
      <point x="330" y="645"/>
      <point x="244.412" y="645" type="curve" smooth="yes"/>
      <point x="172" y="645"/>
      <point x="131" y="577"/>
    </contour>
  </outline>
</glyph>
<glyph name="colon" format="2">
  <advance width="265"/>
  <unicode hex="003A"/>
  <outline>
    <contour>
      <point x="70" y="51" type="curve" smooth="yes"/>
      <point x="70" y="88"/>
      <point x="95" y="116"/>
      <point x="133" y="116" type="curve" smooth="yes"/>
      <point x="172" y="116"/>
      <point x="196" y="88"/>
      <point x="196" y="51" type="curve"/>
      <point x="195" y="15"/>
      <point x="172" y="-12"/>
      <point x="133" y="-12" type="curve" smooth="yes"/>
      <point x="95" y="-12"/>
      <point x="70" y="15"/>
    </contour>
    <contour>
      <point x="70" y="425" type="curve" smooth="yes"/>
      <point x="70" y="462"/>
      <point x="95" y="490"/>
      <point x="133" y="490" type="curve" smooth="yes"/>
      <point x="172" y="490"/>
      <point x="196" y="462"/>
      <point x="196" y="425" type="curve"/>
      <point x="195" y="389"/>
      <point x="172" y="362"/>
      <point x="133" y="362" type="curve" smooth="yes"/>
      <point x="95" y="362"/>
      <point x="70" y="389"/>
    </contour>
  </outline>
</glyph>
<glyph name="less" format="2">
  <advance width="570"/>
  <unicode hex="003C"/>
  <outline>
    <contour>
      <point x="46" y="210" type="line"/>
      <point x="46" y="290" type="line"/>
      <point x="524" y="499" type="line"/>
      <point x="524" y="430" type="line"/>
      <point x="105" y="250" type="line"/>
      <point x="524" y="70" type="line"/>
      <point x="524" y="1" type="line"/>
    </contour>
  </outline>
</glyph>
<glyph name="greater" format="2">
  <advance width="570"/>
  <unicode hex="003E"/>
  <outline>
    <contour>
      <point x="46" y="1" type="line"/>
      <point x="46" y="70" type="line"/>
      <point x="465" y="250" type="line"/>
      <point x="46" y="430" type="line"/>
      <point x="46" y="499" type="line"/>
      <point x="524" y="290" type="line"/>
      <point x="524" y="210" type="line"/>
    </contour>
  </outline>
</glyph>
<glyph name="question" format="2">
  <advance width="389"/>
  <unicode hex="003F"/>
  <outline>
    <contour>
      <point x="29" y="588.078" type="curve" smooth="yes"/>
      <point x="29" y="624"/>
      <point x="69" y="707"/>
      <point x="196.857" y="707" type="curve" smooth="yes"/>
      <point x="291" y="707"/>
      <point x="359" y="661.998"/>
      <point x="359" y="575.037" type="curve" smooth="yes"/>
      <point x="359" y="506.227"/>
      <point x="339.603" y="484.994"/>
      <point x="265.253" y="432.702" type="curve" smooth="yes"/>
      <point x="213.023" y="395.967"/>
      <point x="187" y="360"/>
      <point x="187" y="317.774" type="curve" smooth="yes"/>
      <point x="187" y="261"/>
      <point x="234" y="243"/>
      <point x="258.75" y="243" type="curve" smooth="yes"/>
      <point x="267" y="243"/>
      <point x="278" y="245"/>
      <point x="285" y="247" type="curve"/>
      <point x="293" y="227" type="line"/>
      <point x="266" y="205"/>
      <point x="228" y="199"/>
      <point x="202.856" y="199" type="curve" smooth="yes"/>
      <point x="143" y="199"/>
      <point x="90" y="233"/>
      <point x="90" y="299.279" type="curve" smooth="yes"/>
      <point x="90" y="341"/>
      <point x="110.105" y="368.192"/>
      <point x="171" y="413" type="curve" smooth="yes"/>
      <point x="237.674" y="462.06"/>
      <point x="259.758" y="503.681"/>
      <point x="259.993" y="569.123" type="curve" smooth="yes"/>
      <point x="260.208" y="629"/>
      <point x="242" y="672"/>
      <point x="196" y="672" type="curve" smooth="yes"/>
      <point x="156" y="672"/>
      <point x="128" y="640"/>
      <point x="114" y="565" type="curve" smooth="yes"/>
      <point x="111" y="548"/>
      <point x="97" y="541"/>
      <point x="83.4566" y="541" type="curve" smooth="yes"/>
      <point x="65" y="541"/>
      <point x="29" y="554"/>
    </contour>
    <contour>
      <point x="128" y="50" type="curve" smooth="yes"/>
      <point x="128" y="87"/>
      <point x="154" y="113"/>
      <point x="190" y="113" type="curve" smooth="yes"/>
      <point x="226" y="113"/>
      <point x="252" y="87"/>
      <point x="252" y="50" type="curve" smooth="yes"/>
      <point x="252" y="14"/>
      <point x="226" y="-12"/>
      <point x="190" y="-12" type="curve" smooth="yes"/>
      <point x="154" y="-12"/>
      <point x="128" y="14"/>
    </contour>
  </outline>
</glyph>
<glyph name="A" format="2">
  <advance width="635"/>
  <unicode hex="0041"/>
  <anchor x="311" y="740" name="top"/>
  <anchor x="530" y="10" name="ogonek"/>
  <anchor x="308" y="670" name="aring"/>
  <anchor x="170" y="702" name="tonos"/>
  <outline>
    <contour>
      <point x="-29" y="0" type="line"/>
      <point x="-29" y="29" type="line"/>
      <point x="34" y="32"/>
      <point x="44" y="43"/>
      <point x="64" y="98" type="curve" smooth="yes"/>
      <point x="277" y="692" type="line"/>
      <point x="351" y="692" type="line"/>
      <point x="563" y="89" type="line" smooth="yes"/>
      <point x="581" y="37"/>
      <point x="592" y="34"/>
      <point x="650" y="29" type="curve"/>
      <point x="650" y="0" type="line"/>
      <point x="394" y="0" type="line"/>
      <point x="394" y="29" type="line"/>
      <point x="439" y="33" type="line" smooth="yes"/>
      <point x="461" y="35"/>
      <point x="471" y="41"/>
      <point x="471" y="55" type="curve" smooth="yes"/>
      <point x="471" y="60"/>
      <point x="469" y="67"/>
      <point x="466" y="76" type="curve" smooth="yes"/>
      <point x="399" y="267" type="line"/>
      <point x="175" y="267" type="line"/>
      <point x="114" y="74" type="line"/>
      <point x="112" y="67"/>
      <point x="110" y="59"/>
      <point x="110" y="54" type="curve" smooth="yes"/>
      <point x="110" y="42"/>
      <point x="118" y="36"/>
      <point x="139" y="34" type="curve" smooth="yes"/>
      <point x="191" y="29" type="line"/>
      <point x="191" y="0" type="line"/>
    </contour>
    <contour>
      <point x="188" y="305" type="line"/>
      <point x="387" y="305" type="line"/>
      <point x="288" y="591" type="line"/>
      <point x="285" y="591" type="line"/>
    </contour>
  </outline>
</glyph>
<glyph name="C" format="2">
  <advance width="684"/>
  <unicode hex="0043"/>
  <anchor x="399" y="10" name="cedilla"/>
  <outline>
    <contour>
      <point x="48" y="332" type="curve" smooth="yes"/>
      <point x="48" y="576"/>
      <point x="188" y="707"/>
      <point x="424" y="707" type="curve" smooth="yes"/>
      <point x="512" y="707"/>
      <point x="588" y="689"/>
      <point x="633" y="668" type="curve"/>
      <point x="633" y="512" type="line"/>
      <point x="603" y="512" type="line"/>
      <point x="584" y="630"/>
      <point x="513" y="672"/>
      <point x="416" y="672" type="curve" smooth="yes"/>
      <point x="225" y="672"/>
      <point x="160" y="508"/>
      <point x="160" y="351" type="curve" smooth="yes"/>
      <point x="160" y="223"/>
      <point x="203" y="20"/>
      <point x="412" y="20" type="curve" smooth="yes"/>
      <point x="540" y="20"/>
      <point x="591" y="96"/>
      <point x="619" y="200" type="curve"/>
      <point x="649" y="200" type="line"/>
      <point x="635" y="33" type="line"/>
      <point x="587" y="7"/>
      <point x="495" y="-15"/>
      <point x="415" y="-15" type="curve" smooth="yes"/>
      <point x="177" y="-15"/>
      <point x="48" y="97"/>
    </contour>
  </outline>
</glyph>
<glyph name="J" format="2">
  <advance width="350"/>
  <unicode hex="004A"/>
  <outline>
    <contour>
      <point x="0" y="-89" type="line"/>
      <point x="118.977" y="-58.4059"/>
      <point x="134" y="23.5712"/>
      <point x="134" y="137" type="curve" smooth="yes"/>
      <point x="134" y="599" type="line" smooth="yes"/>
      <point x="134" y="655"/>
      <point x="132" y="657"/>
      <point x="44" y="663" type="curve"/>
      <point x="44" y="692" type="line"/>
      <point x="323" y="692" type="line"/>
      <point x="323" y="663" type="line"/>
      <point x="236" y="657"/>
      <point x="233" y="655"/>
      <point x="233" y="599" type="curve" smooth="yes"/>
      <point x="233" y="143" type="line" smooth="yes"/>
      <point x="233" y="-25.6022"/>
      <point x="174.084" y="-105.329"/>
      <point x="5" y="-114" type="curve"/>
    </contour>
  </outline>
</glyph>
<glyph name="L" format="2">
  <advance width="568"/>
  <unicode hex="004C"/>
  <anchor x="497" y="742" name="quote"/>
  <anchor x="382" y="379" name="dot"/>
  <outline>
    <contour>
      <point x="35" y="0" type="line"/>
      <point x="35" y="29" type="line"/>
      <point x="123" y="35"/>
      <point x="125" y="37"/>
      <point x="125" y="93" type="curve" smooth="yes"/>
      <point x="125" y="599" type="line" smooth="yes"/>
      <point x="125" y="655"/>
      <point x="123" y="657"/>
      <point x="35" y="663" type="curve"/>
      <point x="35" y="692" type="line"/>
      <point x="320" y="692" type="line"/>
      <point x="320" y="663" type="line"/>
      <point x="227" y="657"/>
      <point x="224" y="655"/>
      <point x="224" y="599" type="curve" smooth="yes"/>
      <point x="224" y="120" type="line" smooth="yes"/>
      <point x="224" y="40"/>
      <point x="265" y="35"/>
      <point x="356" y="35" type="curve" smooth="yes"/>
      <point x="461" y="35"/>
      <point x="516" y="48"/>
      <point x="536" y="179" type="curve"/>
      <point x="566" y="179" type="line"/>
      <point x="554" y="0" type="line"/>
    </contour>
  </outline>
</glyph>
<glyph name="O" format="2">
  <advance width="762"/>
  <unicode hex="004F"/>
  <anchor x="66" y="702" name="tonos"/>
  <outline>
    <contour>
      <point x="48" y="346" type="curve" smooth="yes"/>
      <point x="48" y="561"/>
      <point x="157" y="707"/>
      <point x="381" y="707" type="curve" smooth="yes"/>
      <point x="605" y="707"/>
      <point x="714" y="561"/>
      <point x="714" y="346" type="curve" smooth="yes"/>
      <point x="714" y="131"/>
      <point x="605" y="-15"/>
      <point x="381" y="-15" type="curve" smooth="yes"/>
      <point x="157" y="-15"/>
      <point x="48" y="131"/>
    </contour>
    <contour>
      <point x="160" y="346" type="curve" smooth="yes"/>
      <point x="160" y="199"/>
      <point x="203" y="20"/>
      <point x="381" y="20" type="curve" smooth="yes"/>
      <point x="559" y="20"/>
      <point x="602" y="199"/>
      <point x="602" y="346" type="curve" smooth="yes"/>
      <point x="602" y="493"/>
      <point x="559" y="672"/>
      <point x="381" y="672" type="curve" smooth="yes"/>
      <point x="203" y="672"/>
      <point x="160" y="493"/>
    </contour>
  </outline>
</glyph>
<glyph name="S" format="2">
  <advance width="541"/>
  <unicode hex="0053"/>
  <anchor x="261" y="0" name="cedilla"/>
  <outline>
    <contour>
      <point x="50" y="205" type="line"/>
      <point x="82" y="205" type="line"/>
      <point x="107" y="93"/>
      <point x="169" y="20"/>
      <point x="267" y="20" type="curve" smooth="yes"/>
      <point x="350" y="20"/>
      <point x="405" y="72"/>
      <point x="405" y="158" type="curve" smooth="yes"/>
      <point x="405" y="247"/>
      <point x="311" y="293"/>
      <point x="267" y="310" type="curve" smooth="yes"/>
      <point x="249" y="317" type="line" smooth="yes"/>
      <point x="146" y="357"/>
      <point x="61" y="409"/>
      <point x="61" y="520" type="curve" smooth="yes"/>
      <point x="61" y="646"/>
      <point x="169" y="707"/>
      <point x="292" y="707" type="curve" smooth="yes"/>
      <point x="357" y="707"/>
      <point x="425" y="690"/>
      <point x="460" y="663" type="curve"/>
      <point x="460" y="522" type="line"/>
      <point x="428" y="522" type="line"/>
      <point x="412" y="623"/>
      <point x="364" y="672"/>
      <point x="282" y="672" type="curve" smooth="yes"/>
      <point x="196" y="672"/>
      <point x="152" y="618"/>
      <point x="152" y="545" type="curve" smooth="yes"/>
      <point x="152" y="485"/>
      <point x="208" y="442"/>
      <point x="274" y="417" type="curve" smooth="yes"/>
      <point x="306" y="405" type="line" smooth="yes"/>
      <point x="422" y="362"/>
      <point x="504" y="306"/>
      <point x="504" y="192" type="curve" smooth="yes"/>
      <point x="504" y="86"/>
      <point x="433" y="-15"/>
      <point x="261" y="-15" type="curve" smooth="yes"/>
      <point x="187" y="-15"/>
      <point x="104" y="4"/>
      <point x="60" y="45" type="curve"/>
    </contour>
  </outline>
</glyph>
<glyph name="V" format="2">
  <advance width="634"/>
  <unicode hex="0056"/>
  <outline>
    <contour>
      <point x="-18" y="663" type="curve"/>
      <point x="-18" y="692" type="line"/>
      <point x="240" y="692" type="line"/>
      <point x="240" y="663" type="line"/>
      <point x="188" y="658" type="line"/>
      <point x="172" y="656"/>
      <point x="165" y="652"/>
      <point x="165" y="641" type="curve" smooth="yes"/>
      <point x="165" y="636"/>
      <point x="166" y="630"/>
      <point x="169" y="622" type="curve" smooth="yes"/>
      <point x="350" y="108" type="line"/>
      <point x="352" y="108" type="line"/>
      <point x="534" y="627" type="line"/>
      <point x="535" y="631"/>
      <point x="536" y="636"/>
      <point x="536" y="641" type="curve" smooth="yes"/>
      <point x="536" y="651"/>
      <point x="531" y="656"/>
      <point x="512" y="658" type="curve" smooth="yes"/>
      <point x="457" y="663" type="line"/>
      <point x="457" y="692" type="line"/>
      <point x="678" y="692" type="line"/>
      <point x="678" y="663" type="line"/>
      <point x="624" y="660"/>
      <point x="609" y="659"/>
      <point x="591" y="611" type="curve" smooth="yes"/>
      <point x="358" y="0" type="line"/>
      <point x="287" y="0" type="line"/>
      <point x="70" y="604" type="line" smooth="yes"/>
      <point x="50" y="657"/>
      <point x="38" y="661"/>
    </contour>
  </outline>
</glyph>
<glyph name="asciicircum" format="2">
  <advance width="570"/>
  <unicode hex="005E"/>
  <outline>
    <contour>
      <point x="56" y="228" type="line"/>
      <point x="252" y="668" type="line"/>
      <point x="323" y="668" type="line"/>
      <point x="514" y="228" type="line"/>
      <point x="443" y="228" type="line"/>
      <point x="287" y="599" type="line"/>
      <point x="127" y="228" type="line"/>
    </contour>
  </outline>
</glyph>
<glyph name="underscore" format="2">
  <advance width="500"/>
  <unicode hex="005F"/>
  <outline>
    <contour>
      <point x="0" y="-75" type="line"/>
      <point x="500" y="-75" type="line"/>
      <point x="500" y="-125" type="line"/>
      <point x="0" y="-125" type="line"/>
    </contour>
  </outline>
</glyph>
<glyph name="e" format="2">
  <advance width="514"/>
  <unicode hex="0065"/>
  <anchor x="331" y="0" name="ogonek"/>
  <outline>
    <contour>
      <point x="49" y="234" type="curve" smooth="yes"/>
      <point x="49" y="392"/>
      <point x="123" y="502"/>
      <point x="282" y="502" type="curve" smooth="yes"/>
      <point x="462" y="502"/>
      <point x="481" y="361"/>
      <point x="481" y="303" type="curve" smooth="yes"/>
      <point x="481" y="268"/>
      <point x="462" y="263"/>
      <point x="441" y="263" type="curve" smooth="yes"/>
      <point x="153" y="263" type="line"/>
      <point x="153" y="252" type="line" smooth="yes"/>
      <point x="153" y="151"/>
      <point x="179" y="39"/>
      <point x="300" y="39" type="curve" smooth="yes"/>
      <point x="379" y="39"/>
      <point x="417" y="87"/>
      <point x="445" y="145" type="curve"/>
      <point x="475" y="129" type="line"/>
      <point x="448" y="50"/>
      <point x="391" y="-12"/>
      <point x="280" y="-12" type="curve" smooth="yes"/>
      <point x="117" y="-12"/>
      <point x="49" y="83"/>
    </contour>
    <contour>
      <point x="153" y="303" type="curve"/>
      <point x="343" y="303" type="line" smooth="yes"/>
      <point x="371" y="303"/>
      <point x="377" y="316"/>
      <point x="377" y="341" type="curve" smooth="yes"/>
      <point x="377" y="373"/>
      <point x="366" y="467"/>
      <point x="274" y="467" type="curve" smooth="yes"/>
      <point x="168" y="467"/>
      <point x="153" y="344"/>
    </contour>
  </outline>
</glyph>
<glyph name="f" format="2">
  <advance width="319"/>
  <unicode hex="0066"/>
  <anchor x="247" y="800" name="top"/>
  <outline>
    <contour>
      <point x="32" y="0" type="line"/>
      <point x="32" y="29" type="line"/>
      <point x="104" y="34"/>
      <point x="107" y="36"/>
      <point x="107" y="87" type="curve" smooth="yes"/>
      <point x="107" y="450" type="line"/>
      <point x="30" y="450" type="line"/>
      <point x="30" y="490" type="line"/>
      <point x="323" y="490" type="line"/>
      <point x="323" y="450" type="line"/>
      <point x="201" y="450" type="line"/>
      <point x="201" y="86" type="line" smooth="yes"/>
      <point x="201" y="35"/>
      <point x="205" y="33"/>
      <point x="296" y="29" type="curve"/>
      <point x="296" y="0" type="line"/>
    </contour>
    <contour>
      <point x="107" y="490" type="line"/>
      <point x="107" y="525" type="line" smooth="yes"/>
      <point x="107" y="634"/>
      <point x="136" y="742"/>
      <point x="267" y="742" type="curve" smooth="yes"/>
      <point x="347" y="742"/>
      <point x="389" y="702"/>
      <point x="389" y="668" type="curve" smooth="yes"/>
      <point x="389" y="639"/>
      <point x="360" y="622"/>
      <point x="339" y="622" type="curve" smooth="yes"/>
      <point x="325" y="622"/>
      <point x="316.866" y="628.948"/>
      <point x="313" y="639" type="curve" smooth="yes"/>
      <point x="291.866" y="693.949"/>
      <point x="266" y="707"/>
      <point x="245" y="707" type="curve" smooth="yes"/>
      <point x="207" y="707"/>
      <point x="188" y="666"/>
      <point x="188" y="615" type="curve" smooth="yes"/>
      <point x="188" y="598"/>
      <point x="190.288" y="577.037"/>
      <point x="193" y="555" type="curve" smooth="yes"/>
      <point x="201" y="490" type="line"/>
    </contour>
  </outline>
</glyph>
<glyph name="k" format="2">
  <advance width="548"/>
  <unicode hex="006B"/>
  <outline>
    <component base="l"/>
    <contour>
      <point x="169.2" y="254" type="line"/>
      <point x="191" y="254" type="line"/>
      <point x="232" y="189"/>
      <point x="303" y="102"/>
      <point x="355" y="49" type="curve" smooth="yes"/>
      <point x="392" y="12"/>
      <point x="431" y="0"/>
      <point x="463" y="-2" type="curve" smooth="yes"/>
      <point x="538" y="-5" type="line"/>
      <point x="538" y="23" type="line"/>
      <point x="453.702" y="45.4795"/>
      <point x="332.26" y="207.055"/>
      <point x="282.944" y="274.542" type="curve" smooth="yes"/>
      <point x="274" y="287" type="line" smooth="yes"/>
      <point x="271.584" y="290.382"/>
      <point x="269.921" y="293.251"/>
      <point x="269.95" y="296.576" type="curve" smooth="yes"/>
      <point x="269.981" y="300.132"/>
      <point x="271.948" y="304.211"/>
      <point x="277" y="310" type="curve" smooth="yes"/>
      <point x="286.64" y="320.938" type="line" smooth="yes"/>
      <point x="350.35" y="392.491"/>
      <point x="408.655" y="451.723"/>
      <point x="508" y="462" type="curve"/>
      <point x="508" y="490" type="line"/>
      <point x="405" y="490" type="line" smooth="yes"/>
      <point x="371" y="490"/>
      <point x="361.251" y="485.605"/>
      <point x="342" y="461" type="curve" smooth="yes"/>
      <point x="191" y="268" type="line"/>
      <point x="169.2" y="268" type="line"/>
    </contour>
  </outline>
</glyph>
<glyph name="n" format="2">
  <advance width="619"/>
  <unicode hex="006E"/>
  <outline>
    <contour>
      <point x="32" y="0" type="line"/>
      <point x="32" y="29" type="line"/>
      <point x="104" y="34"/>
      <point x="107" y="36"/>
      <point x="107" y="87" type="curve" smooth="yes"/>
      <point x="107" y="402" type="line" smooth="yes"/>
      <point x="107" y="438"/>
      <point x="101" y="443"/>
      <point x="75" y="447" type="curve" smooth="yes"/>
      <point x="37" y="452" type="line"/>
      <point x="37" y="477" type="line"/>
      <point x="186" y="502" type="line"/>
      <point x="200" y="426" type="line"/>
      <point x="262" y="470"/>
      <point x="308" y="502"/>
      <point x="379" y="502" type="curve" smooth="yes"/>
      <point x="474" y="502"/>
      <point x="529" y="444"/>
      <point x="529" y="343" type="curve" smooth="yes"/>
      <point x="529" y="87" type="line" smooth="yes"/>
      <point x="529" y="36"/>
      <point x="533" y="34"/>
      <point x="604" y="29" type="curve"/>
      <point x="604" y="0" type="line"/>
      <point x="360" y="0" type="line"/>
      <point x="360" y="29" type="line"/>
      <point x="432" y="34"/>
      <point x="435" y="36"/>
      <point x="435" y="87" type="curve" smooth="yes"/>
      <point x="435" y="323" type="line" smooth="yes"/>
      <point x="435" y="410"/>
      <point x="398" y="448"/>
      <point x="334" y="448" type="curve" smooth="yes"/>
      <point x="256" y="448"/>
      <point x="201" y="393"/>
      <point x="201" y="321" type="curve" smooth="yes"/>
      <point x="201" y="87" type="line" smooth="yes"/>
      <point x="201" y="36"/>
      <point x="205" y="34"/>
      <point x="276" y="29" type="curve"/>
      <point x="276" y="0" type="line"/>
    </contour>
  </outline>
</glyph>
<glyph name="q" format="2">
  <advance width="591"/>
  <unicode hex="0071"/>
  <outline>
    <contour>
      <point x="49" y="233" type="curve" smooth="yes"/>
      <point x="49" y="396"/>
      <point x="139" y="502"/>
      <point x="300" y="502" type="curve" smooth="yes"/>
      <point x="349" y="502"/>
      <point x="400" y="492"/>
      <point x="438" y="471" type="curve"/>
      <point x="481" y="502" type="line"/>
      <point x="508" y="502" type="line"/>
      <point x="508" y="-143" type="line" smooth="yes"/>
      <point x="508" y="-194"/>
      <point x="514" y="-196"/>
      <point x="583" y="-201" type="curve"/>
      <point x="583" y="-230" type="line"/>
      <point x="334" y="-230" type="line"/>
      <point x="334" y="-201" type="line"/>
      <point x="409" y="-196"/>
      <point x="414" y="-194"/>
      <point x="414" y="-143" type="curve" smooth="yes"/>
      <point x="414" y="53" type="line"/>
      <point x="362" y="15"/>
      <point x="313" y="-12"/>
      <point x="249" y="-12" type="curve" smooth="yes"/>
      <point x="136" y="-12"/>
      <point x="49" y="73"/>
    </contour>
    <contour>
      <point x="153" y="251" type="curve" smooth="yes"/>
      <point x="153" y="133"/>
      <point x="196" y="42"/>
      <point x="300" y="42" type="curve" smooth="yes"/>
      <point x="380" y="42"/>
      <point x="414" y="95"/>
      <point x="414" y="171" type="curve" smooth="yes"/>
      <point x="414" y="340" type="line" smooth="yes"/>
      <point x="414" y="415"/>
      <point x="382" y="467"/>
      <point x="304" y="467" type="curve" smooth="yes"/>
      <point x="196" y="467"/>
      <point x="153" y="369"/>
    </contour>
  </outline>
</glyph>
<glyph name="s" format="2">
  <advance width="436"/>
  <unicode hex="0073"/>
  <anchor x="218" y="0" name="cedilla"/>
  <outline>
    <contour>
      <point x="47" y="167" type="line"/>
      <point x="76" y="167" type="line"/>
      <point x="96" y="82"/>
      <point x="141" y="23"/>
      <point x="218" y="23" type="curve" smooth="yes"/>
      <point x="275" y="23"/>
      <point x="315" y="55"/>
      <point x="315" y="108" type="curve" smooth="yes"/>
      <point x="315" y="174"/>
      <point x="252" y="197"/>
      <point x="210" y="210" type="curve" smooth="yes"/>
      <point x="124" y="236"/>
      <point x="56" y="273"/>
      <point x="56" y="360" type="curve" smooth="yes"/>
      <point x="56" y="451"/>
      <point x="130" y="502"/>
      <point x="236" y="502" type="curve" smooth="yes"/>
      <point x="283" y="502"/>
      <point x="334" y="492"/>
      <point x="367" y="468" type="curve"/>
      <point x="367" y="351" type="line"/>
      <point x="338" y="351" type="line"/>
      <point x="331" y="412"/>
      <point x="297" y="467"/>
      <point x="226" y="467" type="curve" smooth="yes"/>
      <point x="176" y="467"/>
      <point x="136" y="438"/>
      <point x="136" y="391" type="curve" smooth="yes"/>
      <point x="136" y="330"/>
      <point x="202" y="309"/>
      <point x="243" y="296" type="curve" smooth="yes"/>
      <point x="346" y="264"/>
      <point x="400" y="224"/>
      <point x="400" y="142" type="curve" smooth="yes"/>
      <point x="400" y="51"/>
      <point x="332" y="-12"/>
      <point x="213" y="-12" type="curve" smooth="yes"/>
      <point x="154" y="-12"/>
      <point x="93" y="4"/>
      <point x="57" y="36" type="curve"/>
    </contour>
  </outline>
</glyph>
<glyph name="x" format="2">
  <advance width="528"/>
  <unicode hex="0078"/>
  <outline>
    <contour>
      <point x="10" y="0" type="line"/>
      <point x="10" y="29" type="line"/>
      <point x="54" y="32"/>
      <point x="76" y="37"/>
      <point x="102" y="72" type="curve" smooth="yes"/>
      <point x="143" y="126"/>
      <point x="182" y="183"/>
      <point x="219" y="237" type="curve"/>
      <point x="176" y="301"/>
      <point x="133" y="366"/>
      <point x="91" y="424" type="curve" smooth="yes"/>
      <point x="67" y="457"/>
      <point x="57" y="459"/>
      <point x="17" y="461" type="curve"/>
      <point x="17" y="490" type="line"/>
      <point x="226" y="490" type="line"/>
      <point x="226" y="461" type="line"/>
      <point x="196" y="458" type="line"/>
      <point x="181" y="456"/>
      <point x="179" y="445"/>
      <point x="187" y="433" type="curve" smooth="yes"/>
      <point x="271" y="308" type="line"/>
      <point x="272" y="308" type="line"/>
      <point x="302" y="354"/>
      <point x="329" y="396"/>
      <point x="352" y="434" type="curve" smooth="yes"/>
      <point x="359" y="445"/>
      <point x="361" y="455"/>
      <point x="345" y="457" type="curve" smooth="yes"/>
      <point x="306" y="461" type="line"/>
      <point x="306" y="490" type="line"/>
      <point x="492" y="490" type="line"/>
      <point x="492" y="461" type="line"/>
      <point x="444" y="459"/>
      <point x="431" y="455"/>
      <point x="405" y="423" type="curve" smooth="yes"/>
      <point x="366" y="376"/>
      <point x="327" y="326"/>
      <point x="294" y="276" type="curve"/>
      <point x="338" y="206"/>
      <point x="385" y="136"/>
      <point x="431" y="70" type="curve" smooth="yes"/>
      <point x="456" y="34"/>
      <point x="473" y="31"/>
      <point x="518" y="29" type="curve"/>
      <point x="518" y="0" type="line"/>
      <point x="283" y="0" type="line"/>
      <point x="283" y="29" type="line"/>
      <point x="325" y="34" type="line" smooth="yes"/>
      <point x="340" y="36"/>
      <point x="343" y="45"/>
      <point x="332" y="62" type="curve" smooth="yes"/>
      <point x="243" y="201" type="line"/>
      <point x="241" y="201" type="line"/>
      <point x="207" y="149"/>
      <point x="175" y="101"/>
      <point x="153" y="58" type="curve"/>
      <point x="147" y="47"/>
      <point x="146" y="36"/>
      <point x="160" y="34" type="curve" smooth="yes"/>
      <point x="202" y="29" type="line"/>
      <point x="202" y="0" type="line"/>
    </contour>
  </outline>
</glyph>
<glyph name="y" format="2">
  <advance width="506"/>
  <unicode hex="0079"/>
  <outline>
    <contour>
      <point x="-5" y="461" type="curve"/>
      <point x="-5" y="490" type="line"/>
      <point x="224" y="490" type="line"/>
      <point x="224" y="461" type="line"/>
      <point x="181" y="457" type="line" smooth="yes"/>
      <point x="167" y="456"/>
      <point x="162" y="451"/>
      <point x="162" y="443" type="curve" smooth="yes"/>
      <point x="162" y="439"/>
      <point x="163" y="433"/>
      <point x="166" y="426" type="curve"/>
      <point x="289" y="91" type="line"/>
      <point x="291" y="91" type="line"/>
      <point x="402" y="422" type="line" smooth="yes"/>
      <point x="404" y="428"/>
      <point x="405" y="434"/>
      <point x="405" y="439" type="curve" smooth="yes"/>
      <point x="405" y="449"/>
      <point x="400" y="455"/>
      <point x="388" y="456" type="curve" smooth="yes"/>
      <point x="336" y="461" type="line"/>
      <point x="336" y="490" type="line"/>
      <point x="528" y="490" type="line"/>
      <point x="528" y="461" type="line"/>
      <point x="478" y="458"/>
      <point x="469" y="451"/>
      <point x="454" y="410" type="curve" smooth="yes"/>
      <point x="269" y="-82" type="line" smooth="yes"/>
      <point x="214" y="-229"/>
      <point x="167" y="-242"/>
      <point x="134" y="-242" type="curve" smooth="yes"/>
      <point x="85" y="-242"/>
      <point x="57" y="-214"/>
      <point x="57" y="-187" type="curve" smooth="yes"/>
      <point x="57" y="-161"/>
      <point x="82" y="-134"/>
      <point x="104" y="-134" type="curve" smooth="yes"/>
      <point x="113" y="-134"/>
      <point x="121" y="-139"/>
      <point x="132" y="-150" type="curve"/>
      <point x="149" y="-166"/>
      <point x="158" y="-169"/>
      <point x="165" y="-169" type="curve" smooth="yes"/>
      <point x="207" y="-169"/>
      <point x="236" y="-73"/>
      <point x="236" y="-33" type="curve" smooth="yes"/>
      <point x="236" y="-25"/>
      <point x="235" y="-10"/>
      <point x="228" y="7" type="curve" smooth="yes"/>
      <point x="71" y="409" type="line" smooth="yes"/>
      <point x="54" y="453"/>
      <point x="43" y="459"/>
    </contour>
  </outline>
</glyph>
<glyph name="braceleft" format="2">
  <advance width="340"/>
  <unicode hex="007B"/>
  <outline>
    <contour>
      <point x="78" y="267" type="curve"/>
      <point x="78" y="296" type="line"/>
      <point x="139" y="296"/>
      <point x="167" y="332"/>
      <point x="167" y="386" type="curve" smooth="yes"/>
      <point x="167" y="392"/>
      <point x="167" y="401"/>
      <point x="166" y="409" type="curve" smooth="yes"/>
      <point x="154" y="504" type="line" smooth="yes"/>
      <point x="152" y="521"/>
      <point x="150" y="539"/>
      <point x="150" y="559" type="curve" smooth="yes"/>
      <point x="150" y="625"/>
      <point x="173" y="692"/>
      <point x="272" y="692" type="curve" smooth="yes"/>
      <point x="298" y="692" type="line"/>
      <point x="298" y="663" type="line"/>
      <point x="231" y="660"/>
      <point x="217" y="626"/>
      <point x="217" y="582" type="curve" smooth="yes"/>
      <point x="217" y="566"/>
      <point x="219" y="545"/>
      <point x="220" y="538" type="curve"/>
      <point x="228" y="460" type="line" smooth="yes"/>
      <point x="231" y="435"/>
      <point x="234" y="410"/>
      <point x="234" y="390" type="curve" smooth="yes"/>
      <point x="234" y="339"/>
      <point x="215" y="300"/>
      <point x="134" y="284" type="curve"/>
      <point x="134" y="279" type="line"/>
      <point x="215" y="263"/>
      <point x="234" y="224"/>
      <point x="234" y="174" type="curve" smooth="yes"/>
      <point x="234" y="153"/>
      <point x="231" y="128"/>
      <point x="228" y="103" type="curve" smooth="yes"/>
      <point x="220" y="26" type="line"/>
      <point x="219" y="19"/>
      <point x="217" y="0"/>
      <point x="217" y="-16" type="curve" smooth="yes"/>
      <point x="217" y="-60"/>
      <point x="231" y="-96"/>
      <point x="298" y="-99" type="curve"/>
      <point x="298" y="-128" type="line"/>
      <point x="272" y="-128" type="line" smooth="yes"/>
      <point x="173" y="-128"/>
      <point x="150" y="-61"/>
      <point x="150" y="5" type="curve" smooth="yes"/>
      <point x="150" y="25"/>
      <point x="152" y="43"/>
      <point x="154" y="60" type="curve" smooth="yes"/>
      <point x="166" y="154" type="line"/>
      <point x="167" y="165"/>
      <point x="167" y="175"/>
      <point x="167" y="176" type="curve" smooth="yes"/>
      <point x="167" y="236"/>
      <point x="145" y="267"/>
    </contour>
  </outline>
</glyph>
<glyph name="bar" format="2">
  <advance width="228"/>
  <unicode hex="007C"/>
  <outline>
    <contour>
      <point x="80" y="-250" type="line"/>
      <point x="80" y="750" type="line"/>
      <point x="148" y="750" type="line"/>
      <point x="148" y="-250" type="line"/>
    </contour>
  </outline>
</glyph>
<glyph name="dieresis" format="2">
  <advance width="400"/>
  <unicode hex="00A8"/>
  <anchor x="200" y="720" name="top"/>
  <outline>
    <contour>
      <point x="36" y="627" type="curve" smooth="yes"/>
      <point x="36" y="656"/>
      <point x="57" y="683"/>
      <point x="96" y="683" type="curve" smooth="yes"/>
      <point x="135" y="683"/>
      <point x="156" y="656"/>
      <point x="156" y="627" type="curve" smooth="yes"/>
      <point x="156" y="598"/>
      <point x="135" y="570"/>
      <point x="96" y="570" type="curve" smooth="yes"/>
      <point x="57" y="570"/>
      <point x="36" y="598"/>
    </contour>
    <contour>
      <point x="244" y="627" type="curve" smooth="yes"/>
      <point x="244" y="656"/>
      <point x="265" y="683"/>
      <point x="304" y="683" type="curve" smooth="yes"/>
      <point x="343" y="683"/>
      <point x="364" y="656"/>
      <point x="364" y="627" type="curve" smooth="yes"/>
      <point x="364" y="598"/>
      <point x="343" y="570"/>
      <point x="304" y="570" type="curve" smooth="yes"/>
      <point x="265" y="570"/>
      <point x="244" y="598"/>
    </contour>
  </outline>
</glyph>
<glyph name="guillemotleft" format="2">
  <advance width="442"/>
  <unicode hex="00AB"/>
  <outline>
    <contour>
      <point x="41" y="239" type="curve" smooth="yes"/>
      <point x="41" y="244"/>
      <point x="42" y="250"/>
      <point x="46" y="254" type="curve"/>
      <point x="196" y="435" type="line"/>
      <point x="216" y="418" type="line"/>
      <point x="137" y="255" type="line"/>
      <point x="134" y="250"/>
      <point x="133" y="244"/>
      <point x="133" y="239" type="curve" smooth="yes"/>
      <point x="133" y="233"/>
      <point x="134" y="227"/>
      <point x="137" y="221" type="curve" smooth="yes"/>
      <point x="216" y="57" type="line"/>
      <point x="196" y="41" type="line"/>
      <point x="46" y="223" type="line" smooth="yes"/>
      <point x="42" y="228"/>
      <point x="41" y="233"/>
    </contour>
    <contour>
      <point x="226" y="239" type="curve" smooth="yes"/>
      <point x="226" y="244"/>
      <point x="227" y="250"/>
      <point x="231" y="254" type="curve"/>
      <point x="381" y="435" type="line"/>
      <point x="401" y="418" type="line"/>
      <point x="322" y="255" type="line"/>
      <point x="319" y="250"/>
      <point x="318" y="244"/>
      <point x="318" y="239" type="curve" smooth="yes"/>
      <point x="318" y="233"/>
      <point x="319" y="227"/>
      <point x="322" y="221" type="curve" smooth="yes"/>
      <point x="401" y="57" type="line"/>
      <point x="381" y="41" type="line"/>
      <point x="231" y="223" type="line" smooth="yes"/>
      <point x="227" y="228"/>
      <point x="226" y="233"/>
    </contour>
  </outline>
</glyph>
<glyph name="plusminus" format="2">
  <advance width="570"/>
  <unicode hex="00B1"/>
  <outline>
    <contour>
      <point x="43" y="310" type="line"/>
      <point x="43" y="369" type="line"/>
      <point x="252" y="369" type="line"/>
      <point x="252" y="556" type="line"/>
      <point x="320" y="556" type="line"/>
      <point x="320" y="369" type="line"/>
      <point x="527" y="369" type="line"/>
      <point x="527" y="310" type="line"/>
      <point x="320" y="310" type="line"/>
      <point x="320" y="114.557" type="line"/>
      <point x="252" y="114.557" type="line"/>
      <point x="252" y="310" type="line"/>
    </contour>
    <contour>
      <point x="43" y="0" type="line"/>
      <point x="43" y="59" type="line"/>
      <point x="527" y="59" type="line"/>
      <point x="527" y="0" type="line"/>
    </contour>
  </outline>
</glyph>
<glyph name="cedilla" format="2">
  <advance width="400"/>
  <unicode hex="00B8"/>
  <outline>
    <contour>
      <point x="163" y="-201" type="line"/>
      <point x="212" y="-201"/>
      <point x="251" y="-186"/>
      <point x="251" y="-145" type="curve" smooth="yes"/>
      <point x="251" y="-96"/>
      <point x="207" y="-92"/>
      <point x="189" y="-91" type="curve"/>
      <point x="185" y="-84" type="line"/>
      <point x="231" y="0" type="line"/>
      <point x="272" y="0" type="line"/>
      <point x="240" y="-55" type="line"/>
      <point x="277" y="-60"/>
      <point x="329" y="-78"/>
      <point x="329" y="-142" type="curve" smooth="yes"/>
      <point x="329" y="-219"/>
      <point x="238" y="-230"/>
      <point x="207" y="-230" type="curve" smooth="yes"/>
      <point x="189" y="-230"/>
      <point x="177" y="-229"/>
      <point x="163" y="-227" type="curve"/>
    </contour>
  </outline>
</glyph>
<glyph name="onequarter" format="2">
  <advance width="860"/>
  <unicode hex="00BC"/>
  <outline>
    <contour>
      <point x="65" y="272" type="line"/>
      <point x="65" y="294" type="line"/>
      <point x="120" y="299" type="line" smooth="yes"/>
      <point x="133" y="300"/>
      <point x="141" y="306"/>
      <point x="141" y="325" type="curve" smooth="yes"/>
      <point x="141" y="608" type="line" smooth="yes"/>
      <point x="141" y="623"/>
      <point x="137" y="630"/>
      <point x="126" y="632" type="curve"/>
      <point x="65" y="640" type="line"/>
      <point x="65" y="659" type="line"/>
      <point x="208" y="680" type="line"/>
      <point x="215" y="676" type="line"/>
      <point x="215" y="325" type="line" smooth="yes"/>
      <point x="215" y="306"/>
      <point x="223" y="300"/>
      <point x="237" y="299" type="curve" smooth="yes"/>
      <point x="291" y="294" type="line"/>
      <point x="291" y="272" type="line"/>
    </contour>
    <contour>
      <point x="199" y="0" type="line"/>
      <point x="627" y="695" type="line"/>
      <point x="665" y="671" type="line"/>
      <point x="235" y="-27" type="line"/>
    </contour>
    <contour>
      <point x="478" y="119" type="line"/>
      <point x="536" y="215"/>
      <point x="626" y="347"/>
      <point x="670" y="401" type="curve"/>
      <point x="731" y="401" type="line"/>
      <point x="731" y="135" type="line"/>
      <point x="795" y="135" type="line"/>
      <point x="795" y="102" type="line"/>
      <point x="731" y="102" type="line"/>
      <point x="731" y="53" type="line" smooth="yes"/>
      <point x="731" y="34"/>
      <point x="739" y="28"/>
      <point x="753" y="27" type="curve"/>
      <point x="787" y="22" type="line"/>
      <point x="787" y="0" type="line"/>
      <point x="591" y="0" type="line"/>
      <point x="591" y="22" type="line"/>
      <point x="636" y="27" type="line"/>
      <point x="649" y="28"/>
      <point x="657" y="34"/>
      <point x="657" y="53" type="curve" smooth="yes"/>
      <point x="657" y="102" type="line"/>
      <point x="489" y="102" type="line"/>
    </contour>
    <contour>
      <point x="532" y="135" type="curve"/>
      <point x="657" y="135" type="line"/>
      <point x="657" y="333" type="line"/>
      <point x="655" y="333" type="line"/>
      <point x="618" y="277"/>
      <point x="570" y="202"/>
    </contour>
  </outline>
</glyph>
<glyph name="onehalf" format="2">
  <advance width="860"/>
  <unicode hex="00BD"/>
  <outline>
    <contour>
      <point x="58" y="272" type="line"/>
      <point x="58" y="294" type="line"/>
      <point x="113" y="299" type="line" smooth="yes"/>
      <point x="126" y="300"/>
      <point x="134" y="306"/>
      <point x="134" y="325" type="curve" smooth="yes"/>
      <point x="134" y="608" type="line" smooth="yes"/>
      <point x="134" y="623"/>
      <point x="130" y="630"/>
      <point x="119" y="632" type="curve"/>
      <point x="58" y="640" type="line"/>
      <point x="58" y="659" type="line"/>
      <point x="201" y="680" type="line"/>
      <point x="208" y="676" type="line"/>
      <point x="208" y="325" type="line" smooth="yes"/>
      <point x="208" y="306"/>
      <point x="216" y="300"/>
      <point x="230" y="299" type="curve" smooth="yes"/>
      <point x="284" y="294" type="line"/>
      <point x="284" y="272" type="line"/>
    </contour>
    <contour>
      <point x="172" y="0" type="line"/>
      <point x="600" y="695" type="line"/>
      <point x="638" y="671" type="line"/>
      <point x="208" y="-27" type="line"/>
    </contour>
    <contour>
      <point x="491" y="10" type="line"/>
      <point x="498" y="58"/>
      <point x="535" y="112"/>
      <point x="624" y="173" type="curve" smooth="yes"/>
      <point x="691" y="219"/>
      <point x="704" y="271"/>
      <point x="704" y="310" type="curve" smooth="yes"/>
      <point x="704" y="350"/>
      <point x="686" y="380"/>
      <point x="649" y="380" type="curve" smooth="yes"/>
      <point x="618" y="380"/>
      <point x="592" y="358"/>
      <point x="580" y="300" type="curve" smooth="yes"/>
      <point x="577" y="284"/>
      <point x="571" y="276"/>
      <point x="554" y="276" type="curve" smooth="yes"/>
      <point x="533" y="276"/>
      <point x="509" y="291"/>
      <point x="509" y="312" type="curve" smooth="yes"/>
      <point x="509" y="357"/>
      <point x="558" y="408"/>
      <point x="652" y="408" type="curve" smooth="yes"/>
      <point x="737" y="408"/>
      <point x="790" y="372"/>
      <point x="790" y="299" type="curve" smooth="yes"/>
      <point x="790" y="236"/>
      <point x="746" y="200"/>
      <point x="657" y="151" type="curve" smooth="yes"/>
      <point x="597" y="118"/>
      <point x="575" y="83"/>
      <point x="566" y="59" type="curve"/>
      <point x="728" y="59" type="line" smooth="yes"/>
      <point x="760" y="59"/>
      <point x="771" y="69"/>
      <point x="784" y="94" type="curve"/>
      <point x="807" y="89" type="line"/>
      <point x="780" y="0" type="line"/>
      <point x="500" y="0" type="line"/>
    </contour>
  </outline>
</glyph>
<glyph name="Eth" format="2">
  <advance width="785"/>
  <unicode hex="00D0"/>
  <outline>
    <component base="D" xOffset="6"/>
    <contour>
      <point x="20" y="341" type="line"/>
      <point x="368" y="341" type="line"/>
      <point x="368" y="379" type="line"/>
      <point x="20" y="379" type="line"/>
    </contour>
  </outline>
</glyph>
<glyph name="Oslash" format="2">
  <advance width="762"/>
  <unicode hex="00D8"/>
  <outline>
    <component base="O"/>
    <contour>
      <point x="149" y="-29" type="line"/>
      <point x="181" y="-53" type="line"/>
      <point x="609" y="718" type="line"/>
      <point x="575" y="739" type="line"/>
    </contour>
  </outline>
</glyph>
<glyph name="Thorn" format="2">
  <advance width="593"/>
  <unicode hex="00DE"/>
  <outline>
    <contour>
      <point x="35" y="0" type="line"/>
      <point x="35" y="29" type="line"/>
      <point x="123" y="35"/>
      <point x="125" y="37"/>
      <point x="125" y="93" type="curve" smooth="yes"/>
      <point x="125" y="599" type="line" smooth="yes"/>
      <point x="125" y="655"/>
      <point x="123" y="657"/>
      <point x="35" y="663" type="curve"/>
      <point x="35" y="692" type="line"/>
      <point x="314" y="692" type="line"/>
      <point x="314" y="663" type="line"/>
      <point x="227" y="657"/>
      <point x="224" y="655"/>
      <point x="224" y="599" type="curve" smooth="yes"/>
      <point x="224" y="553" type="line"/>
      <point x="305" y="553" type="line" smooth="yes"/>
      <point x="425" y="553"/>
      <point x="556" y="523"/>
      <point x="556" y="374" type="curve" smooth="yes"/>
      <point x="556" y="226"/>
      <point x="427" y="182"/>
      <point x="302" y="182" type="curve" smooth="yes"/>
      <point x="224" y="182" type="line"/>
      <point x="224" y="93" type="line" smooth="yes"/>
      <point x="224" y="37"/>
      <point x="227" y="35"/>
      <point x="322" y="29" type="curve"/>
      <point x="322" y="0" type="line"/>
    </contour>
    <contour>
      <point x="224" y="258" type="line" smooth="yes"/>
      <point x="224" y="230"/>
      <point x="231" y="217"/>
      <point x="288" y="217" type="curve" smooth="yes"/>
      <point x="387" y="217"/>
      <point x="449" y="256"/>
      <point x="449" y="362" type="curve" smooth="yes"/>
      <point x="449" y="464"/>
      <point x="392" y="518"/>
      <point x="297" y="518" type="curve" smooth="yes"/>
      <point x="241" y="518"/>
      <point x="224" y="515"/>
      <point x="224" y="481" type="curve" smooth="yes"/>
    </contour>
  </outline>
</glyph>
<glyph name="germandbls" format="2">
  <advance width="601"/>
  <unicode hex="00DF"/>
  <outline>
    <contour>
      <point x="22" y="0" type="line"/>
      <point x="22" y="29" type="line"/>
      <point x="94" y="34"/>
      <point x="97" y="36"/>
      <point x="97" y="87" type="curve" smooth="yes"/>
      <point x="97" y="455" type="line" smooth="yes"/>
      <point x="97" y="613.602"/>
      <point x="139.308" y="742"/>
      <point x="322" y="742" type="curve" smooth="yes"/>
      <point x="495" y="742"/>
      <point x="515" y="628"/>
      <point x="515" y="586.409" type="curve" smooth="yes"/>
      <point x="515" y="557"/>
      <point x="505" y="529"/>
      <point x="488" y="507" type="curve"/>
      <point x="416" y="497"/>
      <point x="371" y="464"/>
      <point x="371" y="408.213" type="curve" smooth="yes"/>
      <point x="371" y="365"/>
      <point x="398" y="337"/>
      <point x="472" y="287" type="curve" smooth="yes"/>
      <point x="521" y="254"/>
      <point x="573" y="204"/>
      <point x="573" y="128" type="curve" smooth="yes"/>
      <point x="573" y="44"/>
      <point x="510" y="-12"/>
      <point x="412.524" y="-12" type="curve" smooth="yes"/>
      <point x="340" y="-12"/>
      <point x="288" y="19"/>
      <point x="288" y="53" type="curve" smooth="yes"/>
      <point x="288" y="73"/>
      <point x="306" y="91"/>
      <point x="325" y="91" type="curve" smooth="yes"/>
      <point x="336" y="91"/>
      <point x="344" y="84"/>
      <point x="352.416" y="68.671" type="curve" smooth="yes"/>
      <point x="372" y="33"/>
      <point x="400" y="23"/>
      <point x="422.049" y="23" type="curve" smooth="yes"/>
      <point x="454" y="23"/>
      <point x="492" y="44"/>
      <point x="492" y="101.557" type="curve" smooth="yes"/>
      <point x="492" y="156"/>
      <point x="458" y="192"/>
      <point x="392.943" y="234.994" type="curve" smooth="yes"/>
      <point x="343" y="268"/>
      <point x="290" y="311"/>
      <point x="290" y="383.358" type="curve" smooth="yes"/>
      <point x="290" y="447"/>
      <point x="331" y="493"/>
      <point x="407" y="514" type="curve"/>
      <point x="423" y="531"/>
      <point x="429" y="563"/>
      <point x="429" y="587.553" type="curve" smooth="yes"/>
      <point x="429" y="657"/>
      <point x="381" y="707"/>
      <point x="309.326" y="707" type="curve" smooth="yes"/>
      <point x="198.838" y="707"/>
      <point x="191" y="588.181"/>
      <point x="191" y="448" type="curve" smooth="yes"/>
      <point x="191" y="87" type="line" smooth="yes"/>
      <point x="191" y="36"/>
      <point x="195" y="34"/>
      <point x="266" y="29" type="curve"/>
      <point x="266" y="0" type="line"/>
    </contour>
  </outline>
</glyph>
<glyph name="oslash" format="2">
  <advance width="577"/>
  <unicode hex="00F8"/>
  <outline>
    <component base="o"/>
    <contour>
      <point x="96" y="-18" type="line"/>
      <point x="127" y="-41" type="line"/>
      <point x="472" y="511" type="line"/>
      <point x="440" y="532" type="line"/>
    </contour>
  </outline>
</glyph>
<glyph name="thorn" format="2">
  <advance width="606"/>
  <unicode hex="00FE"/>
  <outline>
    <contour>
      <point x="23" y="-201" type="line"/>
      <point x="93" y="-196"/>
      <point x="98" y="-192"/>
      <point x="98" y="-143" type="curve" smooth="yes"/>
      <point x="98" y="622" type="line" smooth="yes"/>
      <point x="98" y="660"/>
      <point x="92" y="665"/>
      <point x="66" y="668" type="curve" smooth="yes"/>
      <point x="28" y="672" type="line"/>
      <point x="28" y="697" type="line"/>
      <point x="185" y="722" type="line"/>
      <point x="192" y="716" type="line"/>
      <point x="192" y="430" type="line"/>
      <point x="231" y="453"/>
      <point x="289" y="502"/>
      <point x="362" y="502" type="curve" smooth="yes"/>
      <point x="544" y="502"/>
      <point x="557" y="327"/>
      <point x="557" y="256" type="curve" smooth="yes"/>
      <point x="557" y="50"/>
      <point x="441" y="-12"/>
      <point x="306" y="-12" type="curve" smooth="yes"/>
      <point x="260" y="-12"/>
      <point x="213" y="-1"/>
      <point x="192" y="11" type="curve"/>
      <point x="192" y="-143" type="line" smooth="yes"/>
      <point x="192" y="-192"/>
      <point x="198" y="-196"/>
      <point x="282" y="-201" type="curve"/>
      <point x="282" y="-230" type="line"/>
      <point x="23" y="-230" type="line"/>
    </contour>
    <contour>
      <point x="192" y="157" type="line" smooth="yes"/>
      <point x="192" y="134"/>
      <point x="193" y="114"/>
      <point x="199" y="96" type="curve" smooth="yes"/>
      <point x="215" y="50"/>
      <point x="255" y="23"/>
      <point x="307" y="23" type="curve" smooth="yes"/>
      <point x="407" y="23"/>
      <point x="453" y="103"/>
      <point x="453" y="250" type="curve" smooth="yes"/>
      <point x="453" y="422"/>
      <point x="364" y="448"/>
      <point x="324" y="448" type="curve" smooth="yes"/>
      <point x="271" y="448"/>
      <point x="228" y="424"/>
      <point x="205" y="378" type="curve" smooth="yes"/>
      <point x="196" y="360"/>
      <point x="192" y="346"/>
      <point x="192" y="321" type="curve" smooth="yes"/>
    </contour>
  </outline>
</glyph>
<glyph name="Hbar" format="2">
  <advance width="798"/>
  <unicode hex="0126"/>
  <outline>
    <contour>
      <point x="35" y="0" type="line"/>
      <point x="35" y="29" type="line"/>
      <point x="123" y="35"/>
      <point x="125" y="37"/>
      <point x="125" y="93" type="curve" smooth="yes"/>
      <point x="125" y="564" type="line"/>
      <point x="48" y="564" type="line"/>
      <point x="48" y="599" type="line"/>
      <point x="125" y="599" type="line"/>
      <point x="125" y="655"/>
      <point x="123" y="657"/>
      <point x="35" y="663" type="curve"/>
      <point x="35" y="692" type="line"/>
      <point x="314" y="692" type="line"/>
      <point x="314" y="663" type="line"/>
      <point x="227" y="657"/>
      <point x="224" y="655"/>
      <point x="224" y="599" type="curve"/>
      <point x="574" y="599" type="line"/>
      <point x="574" y="655"/>
      <point x="572" y="657"/>
      <point x="484" y="663" type="curve"/>
      <point x="484" y="692" type="line"/>
      <point x="763" y="692" type="line"/>
      <point x="763" y="663" type="line"/>
      <point x="676" y="657"/>
      <point x="673" y="655"/>
      <point x="673" y="599" type="curve"/>
      <point x="750" y="599" type="line"/>
      <point x="750" y="564" type="line"/>
      <point x="673" y="564" type="line"/>
      <point x="673" y="93" type="line" smooth="yes"/>
      <point x="673" y="37"/>
      <point x="676" y="35"/>
      <point x="763" y="29" type="curve"/>
      <point x="763" y="0" type="line"/>
      <point x="484" y="0" type="line"/>
      <point x="484" y="29" type="line"/>
      <point x="572" y="35"/>
      <point x="574" y="37"/>
      <point x="574" y="93" type="curve" smooth="yes"/>
      <point x="574" y="341" type="line"/>
      <point x="224" y="341" type="line"/>
      <point x="224" y="93" type="line" smooth="yes"/>
      <point x="224" y="37"/>
      <point x="227" y="35"/>
      <point x="314" y="29" type="curve"/>
      <point x="314" y="0" type="line"/>
    </contour>
    <contour>
      <point x="224" y="379" type="line"/>
      <point x="574" y="379" type="line"/>
      <point x="574" y="564" type="line"/>
      <point x="224" y="564" type="line"/>
    </contour>
  </outline>
</glyph>
<glyph name="ij" format="2">
  <advance width="571"/>
  <unicode hex="0133"/>
  <outline>
    <contour>
      <point x="32" y="0" type="line"/>
      <point x="32" y="29" type="line"/>
      <point x="104" y="34"/>
      <point x="107" y="36"/>
      <point x="107" y="87" type="curve" smooth="yes"/>
      <point x="107" y="402" type="line" smooth="yes"/>
      <point x="107" y="438"/>
      <point x="101" y="443"/>
      <point x="75" y="447" type="curve" smooth="yes"/>
      <point x="37" y="452" type="line"/>
      <point x="37" y="477" type="line"/>
      <point x="194" y="502" type="line"/>
      <point x="201" y="496" type="line"/>
      <point x="201" y="87" type="line" smooth="yes"/>
      <point x="201" y="36"/>
      <point x="205" y="34"/>
      <point x="276" y="29" type="curve"/>
      <point x="276" y="0" type="line"/>
    </contour>
    <contour>
      <point x="92" y="654" type="curve" smooth="yes"/>
      <point x="92" y="690"/>
      <point x="117" y="715"/>
      <point x="153" y="715" type="curve" smooth="yes"/>
      <point x="189" y="715"/>
      <point x="214" y="690"/>
      <point x="214" y="654" type="curve" smooth="yes"/>
      <point x="214" y="618"/>
      <point x="189" y="593"/>
      <point x="153" y="593" type="curve" smooth="yes"/>
      <point x="117" y="593"/>
      <point x="92" y="618"/>
    </contour>
    <contour>
      <point x="258" y="-218" type="line"/>
      <point x="319" y="-203"/>
      <point x="353" y="-182"/>
      <point x="371" y="-147" type="curve" smooth="yes"/>
      <point x="392" y="-106"/>
      <point x="397" y="-36"/>
      <point x="397" y="36" type="curve" smooth="yes"/>
      <point x="397" y="402" type="line" smooth="yes"/>
      <point x="397" y="436"/>
      <point x="391" y="443"/>
      <point x="365" y="447" type="curve" smooth="yes"/>
      <point x="327" y="452" type="line"/>
      <point x="327" y="477" type="line"/>
      <point x="484" y="502" type="line"/>
      <point x="491" y="496" type="line"/>
      <point x="491" y="7" type="line" smooth="yes"/>
      <point x="491" y="-118"/>
      <point x="461" y="-205"/>
      <point x="334" y="-233" type="curve" smooth="yes"/>
      <point x="306" y="-239"/>
      <point x="278" y="-242"/>
      <point x="260" y="-242" type="curve"/>
    </contour>
    <contour>
      <point x="383" y="654" type="curve" smooth="yes"/>
      <point x="383" y="690"/>
      <point x="408" y="715"/>
      <point x="444" y="715" type="curve" smooth="yes"/>
      <point x="480" y="715"/>
      <point x="505" y="690"/>
      <point x="505" y="654" type="curve" smooth="yes"/>
      <point x="505" y="618"/>
      <point x="480" y="593"/>
      <point x="444" y="593" type="curve" smooth="yes"/>
      <point x="408" y="593"/>
      <point x="383" y="618"/>
    </contour>
  </outline>
</glyph>
<glyph name="Kcedilla" format="2">
  <advance width="658"/>
  <unicode hex="0136"/>
  <outline>
    <contour>
      <point x="35" y="0" type="line"/>
      <point x="35" y="29" type="line"/>
      <point x="123" y="35"/>
      <point x="125" y="37"/>
      <point x="125" y="93" type="curve" smooth="yes"/>
      <point x="125" y="599" type="line" smooth="yes"/>
      <point x="125" y="655"/>
      <point x="123" y="657"/>
      <point x="35" y="663" type="curve"/>
      <point x="35" y="692" type="line"/>
      <point x="314" y="692" type="line"/>
      <point x="314" y="663" type="line"/>
      <point x="227" y="657"/>
      <point x="224" y="655"/>
      <point x="224" y="599" type="curve" smooth="yes"/>
      <point x="224" y="363" type="line"/>
      <point x="296" y="437"/>
      <point x="409" y="555"/>
      <point x="467" y="620" type="curve"/>
      <point x="478" y="633"/>
      <point x="483" y="642"/>
      <point x="483" y="648" type="curve" smooth="yes"/>
      <point x="483" y="655"/>
      <point x="477" y="659"/>
      <point x="466" y="660" type="curve" smooth="yes"/>
      <point x="428" y="663" type="line"/>
      <point x="428" y="692" type="line"/>
      <point x="671" y="692" type="line"/>
      <point x="671" y="663" type="line"/>
      <point x="586" y="658"/>
      <point x="566" y="647"/>
      <point x="514" y="601" type="curve" smooth="yes"/>
      <point x="453" y="548"/>
      <point x="376" y="472"/>
      <point x="310" y="399" type="curve"/>
      <point x="378" y="297"/>
      <point x="462" y="196"/>
      <point x="551" y="101" type="curve" smooth="yes"/>
      <point x="594" y="56"/>
      <point x="626" y="28"/>
      <point x="667" y="19" type="curve"/>
      <point x="667" y="-5" type="line"/>
      <point x="604" y="-2" type="line" smooth="yes"/>
      <point x="542" y="0"/>
      <point x="489" y="18"/>
      <point x="431" y="84" type="curve" smooth="yes"/>
      <point x="353" y="172"/>
      <point x="284" y="266"/>
      <point x="227" y="353" type="curve"/>
      <point x="226" y="357" type="line"/>
      <point x="224" y="357" type="line"/>
      <point x="224" y="93" type="line" smooth="yes"/>
      <point x="224" y="37"/>
      <point x="227" y="35"/>
      <point x="314" y="29" type="curve"/>
      <point x="314" y="0" type="line"/>
    </contour>
    <contour>
      <point x="333" y="-246" type="line"/>
      <point x="362" y="-216"/>
      <point x="378" y="-194"/>
      <point x="378" y="-162" type="curve" smooth="yes"/>
      <point x="378" y="-131"/>
      <point x="347" y="-116"/>
      <point x="347" y="-87" type="curve" smooth="yes"/>
      <point x="347" y="-63"/>
      <point x="365" y="-44"/>
      <point x="388" y="-44" type="curve" smooth="yes"/>
      <point x="422" y="-44"/>
      <point x="445" y="-74"/>
      <point x="445" y="-116" type="curve" smooth="yes"/>
      <point x="445" y="-178"/>
      <point x="395" y="-221"/>
      <point x="349" y="-261" type="curve"/>
    </contour>
  </outline>
</glyph>
<glyph name="Lslash" format="2">
  <advance width="574"/>
  <unicode hex="0141"/>
  <outline>
    <component base="L" xOffset="6"/>
    <contour>
      <point x="36" y="266" type="line"/>
      <point x="36" y="220" type="line"/>
      <point x="358" y="450" type="line"/>
      <point x="358" y="496" type="line"/>
    </contour>
  </outline>
</glyph>
<glyph name="lslash" format="2">
  <advance width="294"/>
  <unicode hex="0142"/>
  <outline>
    <contour>
      <point x="14" y="253" type="line"/>
      <point x="14" y="303" type="line"/>
      <point x="101" y="376" type="line"/>
      <point x="101" y="642" type="line" smooth="yes"/>
      <point x="101" y="680"/>
      <point x="95" y="685"/>
      <point x="69" y="688" type="curve" smooth="yes"/>
      <point x="31" y="692" type="line"/>
      <point x="31" y="717" type="line"/>
      <point x="188" y="742" type="line"/>
      <point x="195" y="736" type="line"/>
      <point x="195" y="445" type="line"/>
      <point x="293" y="528" type="line"/>
      <point x="293" y="478" type="line"/>
      <point x="195" y="395" type="line"/>
      <point x="195" y="87" type="line" smooth="yes"/>
      <point x="195" y="36"/>
      <point x="199" y="34"/>
      <point x="270" y="29" type="curve"/>
      <point x="270" y="0" type="line"/>
      <point x="26" y="0" type="line"/>
      <point x="26" y="29" type="line"/>
      <point x="98" y="34"/>
      <point x="101" y="36"/>
      <point x="101" y="87" type="curve" smooth="yes"/>
      <point x="101" y="326" type="line"/>
    </contour>
  </outline>
</glyph>
<glyph name="Eng" format="2">
  <advance width="761"/>
  <unicode hex="014A"/>
  <outline>
    <contour>
      <point x="35" y="0" type="line"/>
      <point x="35" y="29" type="line"/>
      <point x="123" y="35"/>
      <point x="125" y="37"/>
      <point x="125" y="93" type="curve" smooth="yes"/>
      <point x="125" y="599" type="line" smooth="yes"/>
      <point x="125" y="655"/>
      <point x="123" y="657"/>
      <point x="35" y="663" type="curve"/>
      <point x="35" y="692" type="line"/>
      <point x="224" y="692" type="line"/>
      <point x="224" y="600" type="line"/>
      <point x="275" y="649"/>
      <point x="368" y="707"/>
      <point x="470" y="707" type="curve" smooth="yes"/>
      <point x="602" y="707"/>
      <point x="676" y="647"/>
      <point x="676" y="473" type="curve" smooth="yes"/>
      <point x="676" y="40" type="line" smooth="yes"/>
      <point x="676" y="-162"/>
      <point x="590" y="-242"/>
      <point x="482" y="-242" type="curve" smooth="yes"/>
      <point x="420" y="-242"/>
      <point x="328" y="-215"/>
      <point x="328" y="-134" type="curve" smooth="yes"/>
      <point x="328" y="-104"/>
      <point x="364" y="-91"/>
      <point x="386" y="-91" type="curve" smooth="yes"/>
      <point x="417" y="-91"/>
      <point x="421" y="-118"/>
      <point x="425" y="-147" type="curve"/>
      <point x="430" y="-176"/>
      <point x="435" y="-207"/>
      <point x="482" y="-207" type="curve" smooth="yes"/>
      <point x="563" y="-207"/>
      <point x="577" y="-112"/>
      <point x="577" y="10" type="curve" smooth="yes"/>
      <point x="577" y="503" type="line" smooth="yes"/>
      <point x="577" y="599"/>
      <point x="533" y="645"/>
      <point x="431" y="645" type="curve" smooth="yes"/>
      <point x="366" y="645"/>
      <point x="224" y="601"/>
      <point x="224" y="521" type="curve" smooth="yes"/>
      <point x="224" y="93" type="line" smooth="yes"/>
      <point x="224" y="37"/>
      <point x="226" y="35"/>
      <point x="316" y="29" type="curve"/>
      <point x="316" y="0" type="line"/>
    </contour>
  </outline>
</glyph>
<glyph name="oe" format="2">
  <advance width="882"/>
  <unicode hex="0153"/>
  <outline>
    <contour>
      <point x="49" y="245" type="curve" smooth="yes"/>
      <point x="49" y="407.723"/>
      <point x="128" y="502"/>
      <point x="284.079" y="502" type="curve" smooth="yes"/>
      <point x="373.185" y="502"/>
      <point x="434.542" y="471"/>
      <point x="472.042" y="422.542" type="curve"/>
      <point x="506.417" y="464.036"/>
      <point x="563" y="502"/>
      <point x="654.03" y="502" type="curve" smooth="yes"/>
      <point x="830" y="502"/>
      <point x="849" y="361.289"/>
      <point x="849" y="303" type="curve" smooth="yes"/>
      <point x="849" y="268.263"/>
      <point x="830" y="263"/>
      <point x="809" y="263" type="curve" smooth="yes"/>
      <point x="521" y="263" type="line"/>
      <point x="521" y="162"/>
      <point x="548" y="39"/>
      <point x="670.485" y="39" type="curve" smooth="yes"/>
      <point x="747" y="39"/>
      <point x="785" y="87"/>
      <point x="813" y="145" type="curve"/>
      <point x="843" y="129" type="line"/>
      <point x="816" y="50"/>
      <point x="759" y="-12"/>
      <point x="642.228" y="-12" type="curve" smooth="yes"/>
      <point x="561" y="-12"/>
      <point x="501.208" y="18"/>
      <point x="467.875" y="66" type="curve"/>
      <point x="427.25" y="16"/>
      <point x="367.207" y="-12"/>
      <point x="283.07" y="-12" type="curve" smooth="yes"/>
      <point x="128" y="-12"/>
      <point x="49" y="83"/>
    </contour>
    <contour>
      <point x="153" y="245" type="curve" smooth="yes"/>
      <point x="153" y="107"/>
      <point x="196.838" y="23"/>
      <point x="287.502" y="23" type="curve" smooth="yes"/>
      <point x="380.159" y="23"/>
      <point x="423" y="107"/>
      <point x="423" y="245" type="curve" smooth="yes"/>
      <point x="423" y="384.012"/>
      <point x="380.159" y="467"/>
      <point x="287.502" y="467" type="curve" smooth="yes"/>
      <point x="196.838" y="467"/>
      <point x="153" y="384.012"/>
    </contour>
    <contour>
      <point x="522" y="303" type="curve"/>
      <point x="711" y="303" type="line" smooth="yes"/>
      <point x="739" y="303"/>
      <point x="745" y="315.843"/>
      <point x="745" y="340.185" type="curve" smooth="yes"/>
      <point x="745" y="373.145"/>
      <point x="734" y="467"/>
      <point x="642.247" y="467" type="curve" smooth="yes"/>
      <point x="537" y="467"/>
      <point x="522" y="343.506"/>
    </contour>
  </outline>
</glyph>
<glyph name="tcaron" format="2">
  <advance width="350"/>
  <unicode hex="0165"/>
  <outline>
    <contour>
      <point x="31" y="450" type="line"/>
      <point x="31" y="490" type="line"/>
      <point x="107" y="490" type="line"/>
      <point x="168" y="616" type="line"/>
      <point x="197" y="616" type="line"/>
      <point x="197" y="490" type="line"/>
      <point x="326" y="490" type="line"/>
      <point x="326" y="450" type="line"/>
      <point x="197" y="450" type="line"/>
      <point x="197" y="140" type="line" smooth="yes"/>
      <point x="197" y="64"/>
      <point x="229" y="40"/>
      <point x="263" y="40" type="curve" smooth="yes"/>
      <point x="288" y="40"/>
      <point x="310" y="43"/>
      <point x="334" y="53" type="curve"/>
      <point x="342" y="32" type="line"/>
      <point x="313" y="14"/>
      <point x="265" y="-12"/>
      <point x="214" y="-12" type="curve" smooth="yes"/>
      <point x="179" y="-12"/>
      <point x="103" y="0"/>
      <point x="103" y="102" type="curve" smooth="yes"/>
      <point x="103" y="450" type="line"/>
    </contour>
    <contour>
      <point x="237" y="744" type="curve" smooth="yes"/>
      <point x="237" y="769"/>
      <point x="257" y="790"/>
      <point x="288" y="790" type="curve" smooth="yes"/>
      <point x="329" y="790"/>
      <point x="356" y="751"/>
      <point x="356" y="701" type="curve" smooth="yes"/>
      <point x="356" y="639"/>
      <point x="308" y="590"/>
      <point x="264" y="548" type="curve"/>
      <point x="247" y="564" type="line"/>
      <point x="269" y="595"/>
      <point x="283" y="627"/>
      <point x="283" y="656" type="curve" smooth="yes"/>
      <point x="283" y="697"/>
      <point x="237" y="702"/>
    </contour>
  </outline>
</glyph>
<glyph name="Tbar" format="2">
  <advance width="621"/>
  <unicode hex="0166"/>
  <outline>
    <component base="T"/>
    <contour>
      <point x="290.5" y="305" type="line"/>
      <point x="146.5" y="305" type="line"/>
      <point x="146.5" y="364" type="line"/>
      <point x="290.5" y="364" type="line"/>
    </contour>
    <contour>
      <point x="330.5" y="364" type="line"/>
      <point x="474.5" y="364" type="line"/>
      <point x="474.5" y="305" type="line"/>
      <point x="330.5" y="305" type="line"/>
    </contour>
  </outline>
</glyph>
<glyph name="tbar" format="2">
  <advance width="344"/>
  <unicode hex="0167"/>
  <outline>
    <component base="t"/>
    <contour>
      <point x="172" y="235" type="line"/>
      <point x="28" y="235" type="line"/>
      <point x="28" y="294" type="line"/>
      <point x="172" y="294" type="line"/>
    </contour>
    <contour>
      <point x="171.983" y="294" type="line"/>
      <point x="315.983" y="294" type="line"/>
      <point x="315.983" y="235" type="line"/>
      <point x="171.983" y="235" type="line"/>
    </contour>
  </outline>
</glyph>
<glyph name="longs" format="2">
  <advance width="302"/>
  <unicode hex="017F"/>
  <anchor x="221" y="800" name="top"/>
  <outline>
    <contour>
      <point x="25" y="0" type="line"/>
      <point x="25" y="29" type="line"/>
      <point x="94" y="34"/>
      <point x="97" y="36"/>
      <point x="97" y="87" type="curve" smooth="yes"/>
      <point x="97" y="490" type="line"/>
      <point x="191" y="490" type="line"/>
      <point x="191" y="87" type="line" smooth="yes"/>
      <point x="191" y="36"/>
      <point x="195" y="34"/>
      <point x="266" y="29" type="curve"/>
      <point x="266" y="0" type="line"/>
    </contour>
    <contour>
      <point x="97" y="490" type="line"/>
      <point x="97" y="525" type="line" smooth="yes"/>
      <point x="97" y="634"/>
      <point x="126" y="742"/>
      <point x="257" y="742" type="curve" smooth="yes"/>
      <point x="337" y="742"/>
      <point x="379" y="702"/>
      <point x="379" y="668" type="curve" smooth="yes"/>
      <point x="379" y="639"/>
      <point x="350" y="622"/>
      <point x="329" y="622" type="curve" smooth="yes"/>
      <point x="315" y="622"/>
      <point x="306.866" y="628.948"/>
      <point x="303" y="639" type="curve" smooth="yes"/>
      <point x="281.866" y="693.949"/>
      <point x="256" y="707"/>
      <point x="235" y="707" type="curve" smooth="yes"/>
      <point x="197" y="707"/>
      <point x="178" y="666"/>
      <point x="178" y="615" type="curve" smooth="yes"/>
      <point x="178" y="598"/>
      <point x="180.288" y="577.037"/>
      <point x="183" y="555" type="curve" smooth="yes"/>
      <point x="191" y="490" type="line"/>
    </contour>
  </outline>
</glyph>
<glyph name="uni0188" format="2">
  <advance width="630"/>
  <unicode hex="0188"/>
  <outline>
    <component base="c"/>
    <contour>
      <point x="466" y="401.108" type="line"/>
      <point x="466" y="486" type="line" smooth="yes"/>
      <point x="466" y="557.662"/>
      <point x="498.798" y="566.482"/>
      <point x="515.372" y="566.482" type="curve" smooth="yes"/>
      <point x="540.573" y="566.482"/>
      <point x="548.905" y="546.089"/>
      <point x="557.088" y="526.268" type="curve" smooth="yes"/>
      <point x="564.824" y="507.532"/>
      <point x="572.426" y="489.308"/>
      <point x="594.02" y="489.308" type="curve" smooth="yes"/>
      <point x="615.18" y="489.308"/>
      <point x="643.747" y="508.05"/>
      <point x="643.747" y="541.761" type="curve" smooth="yes"/>
      <point x="643.747" y="574.2"/>
      <point x="617.296" y="621.607"/>
      <point x="535.829" y="621.607" type="curve" smooth="yes"/>
      <point x="482.928" y="621.607"/>
      <point x="426.1" y="580.815"/>
      <point x="426.1" y="495.923" type="curve" smooth="yes"/>
      <point x="426.1" y="401.108" type="line"/>
    </contour>
  </outline>
</glyph>
<glyph name="uni018F" format="2">
  <advance width="710"/>
  <unicode hex="018F"/>
  <outline>
    <contour>
      <point x="45" y="306" type="curve" smooth="yes"/>
      <point x="45" y="328"/>
      <point x="58" y="344"/>
      <point x="80" y="344" type="curve" smooth="yes"/>
      <point x="550" y="344" type="line"/>
      <point x="550" y="498"/>
      <point x="505.888" y="672"/>
      <point x="343.162" y="672" type="curve" smooth="yes"/>
      <point x="262.268" y="672"/>
      <point x="151" y="629"/>
      <point x="123" y="486" type="curve"/>
      <point x="91" y="486" type="line"/>
      <point x="91" y="656" type="line"/>
      <point x="149" y="679"/>
      <point x="253.245" y="707"/>
      <point x="334.452" y="707" type="curve" smooth="yes"/>
      <point x="598" y="707"/>
      <point x="662" y="507"/>
      <point x="662" y="349.027" type="curve" smooth="yes"/>
      <point x="662" y="185"/>
      <point x="593" y="-15"/>
      <point x="350.666" y="-15" type="curve" smooth="yes"/>
      <point x="116" y="-15"/>
      <point x="45" y="171"/>
    </contour>
    <contour>
      <point x="157" y="287" type="curve" smooth="yes"/>
      <point x="157" y="153"/>
      <point x="219.158" y="20"/>
      <point x="348.048" y="20" type="curve" smooth="yes"/>
      <point x="485.837" y="20"/>
      <point x="550" y="172"/>
      <point x="550" y="306" type="curve"/>
      <point x="178.054" y="306" type="line" smooth="yes"/>
      <point x="165.02" y="306"/>
      <point x="157" y="304"/>
    </contour>
  </outline>
</glyph>
<glyph name="florin" format="2">
  <advance width="530"/>
  <unicode hex="0192"/>
  <outline>
    <contour>
      <point x="-2" y="-77" type="curve" smooth="yes"/>
      <point x="-2" y="-50.9808"/>
      <point x="21" y="-34"/>
      <point x="38" y="-34" type="curve" smooth="yes"/>
      <point x="49" y="-34"/>
      <point x="57" y="-41"/>
      <point x="61" y="-50" type="curve"/>
      <point x="80" y="-88"/>
      <point x="95" y="-102"/>
      <point x="112.883" y="-102" type="curve" smooth="yes"/>
      <point x="132" y="-102"/>
      <point x="148" y="-86"/>
      <point x="157" y="-14" type="curve" smooth="yes"/>
      <point x="206" y="364" type="line"/>
      <point x="104" y="364" type="line"/>
      <point x="104" y="404" type="line"/>
      <point x="213" y="404" type="line"/>
      <point x="220" y="447" type="line" smooth="yes"/>
      <point x="237.45" y="555.192"/>
      <point x="279.532" y="691"/>
      <point x="413" y="691" type="curve" smooth="yes"/>
      <point x="480" y="691"/>
      <point x="522" y="655.995"/>
      <point x="522" y="621.757" type="curve" smooth="yes"/>
      <point x="522" y="596.977"/>
      <point x="500" y="579"/>
      <point x="478.445" y="579" type="curve" smooth="yes"/>
      <point x="466" y="579"/>
      <point x="457" y="585"/>
      <point x="453" y="594" type="curve"/>
      <point x="433" y="644"/>
      <point x="418" y="656"/>
      <point x="398" y="656" type="curve" smooth="yes"/>
      <point x="367" y="656"/>
      <point x="346" y="625"/>
      <point x="328" y="516" type="curve" smooth="yes"/>
      <point x="310" y="404" type="line"/>
      <point x="442" y="404" type="line"/>
      <point x="442" y="364" type="line"/>
      <point x="304" y="364" type="line"/>
      <point x="276" y="182" type="line" smooth="yes"/>
      <point x="246.364" y="-10.6371"/>
      <point x="217.864" y="-137"/>
      <point x="98.1692" y="-137" type="curve" smooth="yes"/>
      <point x="46" y="-137"/>
      <point x="-2" y="-112.995"/>
    </contour>
  </outline>
</glyph>
<glyph name="uni0195" format="2">
  <advance width="898"/>
  <unicode hex="0195"/>
  <outline>
    <component base="l"/>
    <contour>
      <point x="423" y="200" type="line"/>
      <point x="423" y="323" type="line" smooth="yes"/>
      <point x="423" y="410"/>
      <point x="386" y="448"/>
      <point x="321" y="448" type="curve" smooth="yes"/>
      <point x="242" y="448"/>
      <point x="189" y="393"/>
      <point x="189" y="321" type="curve"/>
      <point x="149" y="321.201" type="line"/>
      <point x="149" y="395.16" type="line"/>
      <point x="189" y="426" type="line" smooth="yes"/>
      <point x="251.096" y="473.876"/>
      <point x="296" y="502"/>
      <point x="364" y="502" type="curve" smooth="yes"/>
      <point x="462" y="502"/>
      <point x="517" y="444"/>
      <point x="517" y="343" type="curve" smooth="yes"/>
      <point x="517" y="200" type="line"/>
    </contour>
    <contour>
      <point x="517" y="156" type="line" smooth="yes"/>
      <point x="516.945" y="78"/>
      <point x="560" y="42"/>
      <point x="618" y="42" type="curve" smooth="yes"/>
      <point x="696" y="42"/>
      <point x="749" y="97"/>
      <point x="749" y="177" type="curve" smooth="yes"/>
      <point x="749" y="402" type="line" smooth="yes"/>
      <point x="749" y="438"/>
      <point x="743" y="443"/>
      <point x="717" y="447" type="curve" smooth="yes"/>
      <point x="679" y="452" type="line"/>
      <point x="679" y="477" type="line"/>
      <point x="836" y="502" type="line"/>
      <point x="843" y="496" type="line"/>
      <point x="843" y="229" type="line" smooth="yes"/>
      <point x="843" y="87"/>
      <point x="785" y="-12"/>
      <point x="586" y="-12" type="curve" smooth="yes"/>
      <point x="507" y="-12"/>
      <point x="423.257" y="36"/>
      <point x="423" y="129" type="curve" smooth="yes"/>
      <point x="422.803" y="200.198" type="line"/>
      <point x="517.031" y="199.735" type="line"/>
    </contour>
  </outline>
</glyph>
<glyph name="uni0196" format="2">
  <advance width="420"/>
  <unicode hex="0196"/>
  <outline>
    <contour>
      <point x="29" y="663" type="curve"/>
      <point x="29" y="692" type="line"/>
      <point x="218" y="692" type="line"/>
      <point x="218" y="167" type="line" smooth="yes"/>
      <point x="218" y="71"/>
      <point x="244" y="39"/>
      <point x="291.466" y="39" type="curve" smooth="yes"/>
      <point x="318" y="39"/>
      <point x="354" y="49"/>
      <point x="395" y="78" type="curve"/>
      <point x="411" y="55" type="line"/>
      <point x="351" y="0"/>
      <point x="313" y="-15"/>
      <point x="254" y="-15" type="curve" smooth="yes"/>
      <point x="188" y="-15"/>
      <point x="119" y="22"/>
      <point x="119" y="166" type="curve" smooth="yes"/>
      <point x="119" y="599" type="line" smooth="yes"/>
      <point x="119" y="655"/>
      <point x="117" y="657"/>
    </contour>
  </outline>
</glyph>
<glyph name="uni01A8" format="2">
  <advance width="436"/>
  <unicode hex="01A8"/>
  <outline>
    <contour>
      <point x="36" y="136" type="curve" smooth="yes"/>
      <point x="36" y="224"/>
      <point x="90" y="264"/>
      <point x="193" y="296" type="curve" smooth="yes"/>
      <point x="234" y="309"/>
      <point x="300" y="330"/>
      <point x="300" y="386" type="curve" smooth="yes"/>
      <point x="300" y="438"/>
      <point x="260" y="467"/>
      <point x="210" y="467" type="curve" smooth="yes"/>
      <point x="139" y="467"/>
      <point x="105" y="412"/>
      <point x="98" y="351" type="curve"/>
      <point x="69" y="351" type="line"/>
      <point x="69" y="468" type="line"/>
      <point x="102" y="492"/>
      <point x="153" y="502"/>
      <point x="198" y="502" type="curve" smooth="yes"/>
      <point x="306" y="502"/>
      <point x="380" y="451"/>
      <point x="380" y="356" type="curve" smooth="yes"/>
      <point x="380" y="273"/>
      <point x="312" y="236"/>
      <point x="229" y="211" type="curve" smooth="yes"/>
      <point x="184" y="197"/>
      <point x="121" y="174"/>
      <point x="121" y="106" type="curve" smooth="yes"/>
      <point x="121" y="55"/>
      <point x="161" y="23"/>
      <point x="214" y="23" type="curve" smooth="yes"/>
      <point x="295" y="23"/>
      <point x="340" y="82"/>
      <point x="360" y="167" type="curve"/>
      <point x="389" y="167" type="line"/>
      <point x="379" y="36" type="line"/>
      <point x="343" y="4"/>
      <point x="282" y="-12"/>
      <point x="223" y="-12" type="curve" smooth="yes"/>
      <point x="104" y="-12"/>
      <point x="36" y="51"/>
    </contour>
  </outline>
</glyph>
<glyph name="uni01B2" format="2">
  <advance width="700"/>
  <unicode hex="01B2"/>
  <outline>
    <contour>
      <point x="29" y="663" type="curve"/>
      <point x="29" y="692" type="line"/>
      <point x="308" y="692" type="line"/>
      <point x="308" y="663" type="line"/>
      <point x="221" y="657"/>
      <point x="218" y="655"/>
      <point x="218" y="599" type="curve" smooth="yes"/>
      <point x="218" y="270" type="line" smooth="yes"/>
      <point x="218" y="115"/>
      <point x="270" y="20"/>
      <point x="384" y="20" type="curve" smooth="yes"/>
      <point x="536" y="20"/>
      <point x="584" y="176"/>
      <point x="584" y="361" type="curve" smooth="yes"/>
      <point x="584" y="478"/>
      <point x="549" y="534"/>
      <point x="480" y="635" type="curve"/>
      <point x="472" y="646"/>
      <point x="464" y="655"/>
      <point x="464" y="667" type="curve" smooth="yes"/>
      <point x="464" y="691"/>
      <point x="494" y="707"/>
      <point x="526" y="707" type="curve" smooth="yes"/>
      <point x="579" y="707"/>
      <point x="651" y="570"/>
      <point x="651" y="418" type="curve" smooth="yes"/>
      <point x="651" y="234"/>
      <point x="623" y="-15"/>
      <point x="374" y="-15" type="curve" smooth="yes"/>
      <point x="234" y="-15"/>
      <point x="119" y="46"/>
      <point x="119" y="241" type="curve" smooth="yes"/>
      <point x="119" y="599" type="line" smooth="yes"/>
      <point x="119" y="655"/>
      <point x="117" y="657"/>
    </contour>
  </outline>
</glyph>
<glyph name="uni01C2" format="2">
  <advance width="400"/>
  <unicode hex="01C2"/>
  <outline>
    <component base="uni01C0" xOffset="86"/>
    <contour>
      <point x="180" y="416" type="line"/>
      <point x="36" y="416" type="line"/>
      <point x="36" y="475" type="line"/>
      <point x="180" y="475" type="line"/>
    </contour>
    <contour>
      <point x="220" y="475" type="line"/>
      <point x="364" y="475" type="line"/>
      <point x="364" y="416" type="line"/>
      <point x="220" y="416" type="line"/>
    </contour>
    <contour>
      <point x="180" y="266" type="line"/>
      <point x="36" y="266" type="line"/>
      <point x="36" y="325" type="line"/>
      <point x="180" y="325" type="line"/>
    </contour>
    <contour>
      <point x="220" y="325" type="line"/>
      <point x="364" y="325" type="line"/>
      <point x="364" y="266" type="line"/>
      <point x="220" y="266" type="line"/>
    </contour>
  </outline>
</glyph>
<glyph name="uni01E4" format="2">
  <advance width="734"/>
  <unicode hex="01E4"/>
  <outline>
    <component base="G"/>
    <contour>
      <point x="594.002" y="131.708" type="line"/>
      <point x="450.002" y="131.708" type="line"/>
      <point x="450.002" y="190.708" type="line"/>
      <point x="594.002" y="190.708" type="line"/>
    </contour>
    <contour>
      <point x="582.014" y="191" type="line"/>
      <point x="726.014" y="191" type="line"/>
      <point x="726.014" y="132" type="line"/>
      <point x="582.014" y="132" type="line"/>
    </contour>
  </outline>
</glyph>
<glyph name="uni0241" format="2">
  <advance width="492"/>
  <unicode hex="0241"/>
  <outline>
    <contour>
      <point x="40" y="592.57" type="curve" smooth="yes"/>
      <point x="40" y="630"/>
      <point x="84" y="707"/>
      <point x="237.662" y="707" type="curve" smooth="yes"/>
      <point x="381" y="707"/>
      <point x="449" y="640"/>
      <point x="449" y="533" type="curve" smooth="yes"/>
      <point x="449" y="476.926"/>
      <point x="409.06" y="437.704"/>
      <point x="367.162" y="398.53" type="curve" smooth="yes"/>
      <point x="323.635" y="357.833"/>
      <point x="279" y="314.075"/>
      <point x="279" y="249" type="curve" smooth="yes"/>
      <point x="279" y="93" type="line" smooth="yes"/>
      <point x="279" y="37"/>
      <point x="282" y="35"/>
      <point x="389" y="29" type="curve"/>
      <point x="389" y="0" type="line"/>
      <point x="70" y="0" type="line"/>
      <point x="70" y="29" type="line"/>
      <point x="177" y="35"/>
      <point x="180" y="37"/>
      <point x="180" y="93" type="curve" smooth="yes"/>
      <point x="180" y="205" type="line" smooth="yes"/>
      <point x="180" y="300.193"/>
      <point x="227.935" y="353.482"/>
      <point x="272.502" y="401.077" type="curve" smooth="yes"/>
      <point x="307.8" y="438.774"/>
      <point x="342" y="476.613"/>
      <point x="342" y="533" type="curve" smooth="yes"/>
      <point x="342" y="610"/>
      <point x="309" y="672"/>
      <point x="231" y="672" type="curve" smooth="yes"/>
      <point x="174" y="672"/>
      <point x="151" y="640"/>
      <point x="139" y="574" type="curve" smooth="yes"/>
      <point x="136" y="558"/>
      <point x="122" y="545"/>
      <point x="101.165" y="545" type="curve" smooth="yes"/>
      <point x="82" y="545"/>
      <point x="40" y="556"/>
    </contour>
  </outline>
</glyph>
<glyph name="uni0253" format="2">
  <advance width="591"/>
  <unicode hex="0253"/>
  <outline>
    <contour>
      <point x="508" y="255" type="curve" smooth="yes"/>
      <point x="508" y="92"/>
      <point x="418" y="-14"/>
      <point x="257.345" y="-14" type="curve" smooth="yes"/>
      <point x="208" y="-14"/>
      <point x="157" y="-4"/>
      <point x="119" y="17" type="curve"/>
      <point x="76" y="-14" type="line"/>
      <point x="49" y="-14" type="line"/>
      <point x="49" y="450" type="line"/>
      <point x="143" y="450" type="line"/>
      <point x="143" y="435" type="line"/>
      <point x="195" y="473"/>
      <point x="244" y="500"/>
      <point x="307.8" y="500" type="curve" smooth="yes"/>
      <point x="421" y="500"/>
      <point x="508" y="415"/>
    </contour>
    <contour>
      <point x="404" y="237" type="curve" smooth="yes"/>
      <point x="404" y="355"/>
      <point x="361" y="446"/>
      <point x="257.209" y="446" type="curve" smooth="yes"/>
      <point x="178" y="446"/>
      <point x="143" y="393"/>
      <point x="143" y="317" type="curve" smooth="yes"/>
      <point x="143" y="148" type="line" smooth="yes"/>
      <point x="143" y="73"/>
      <point x="175" y="21"/>
      <point x="253.388" y="21" type="curve" smooth="yes"/>
      <point x="361" y="21"/>
      <point x="404" y="119"/>
    </contour>
    <contour>
      <point x="49" y="450" type="line"/>
      <point x="49" y="460" type="line" smooth="yes"/>
      <point x="49" y="663"/>
      <point x="150" y="748"/>
      <point x="264" y="748" type="curve" smooth="yes"/>
      <point x="377" y="748"/>
      <point x="443" y="701"/>
      <point x="443" y="665.399" type="curve" smooth="yes"/>
      <point x="443" y="641"/>
      <point x="412" y="614"/>
      <point x="385.461" y="614" type="curve" smooth="yes"/>
      <point x="373" y="614"/>
      <point x="361.915" y="619.953"/>
      <point x="348" y="645" type="curve" smooth="yes"/>
      <point x="331.915" y="673.953"/>
      <point x="308" y="713"/>
      <point x="260.904" y="713" type="curve" smooth="yes"/>
      <point x="178" y="713"/>
      <point x="143" y="592"/>
      <point x="143" y="502" type="curve" smooth="yes"/>
      <point x="143" y="450" type="line"/>
    </contour>
  </outline>
</glyph>
<glyph name="uni0257" format="2">
  <advance width="598"/>
  <unicode hex="0257"/>
  <outline>
    <contour>
      <point x="49" y="235" type="curve" smooth="yes"/>
      <point x="49" y="396"/>
      <point x="138" y="502"/>
      <point x="301" y="502" type="curve" smooth="yes"/>
      <point x="349" y="502"/>
      <point x="385" y="493"/>
      <point x="413" y="478" type="curve"/>
      <point x="413" y="494" type="line"/>
      <point x="508" y="494" type="line"/>
      <point x="508" y="87" type="line" smooth="yes"/>
      <point x="508" y="36"/>
      <point x="512" y="34"/>
      <point x="583" y="29" type="curve"/>
      <point x="583" y="0" type="line"/>
      <point x="421" y="0" type="line"/>
      <point x="413" y="7" type="line"/>
      <point x="413" y="56" type="line"/>
      <point x="359" y="12"/>
      <point x="312" y="-12"/>
      <point x="251" y="-12" type="curve" smooth="yes"/>
      <point x="126" y="-12"/>
      <point x="49" y="87"/>
    </contour>
    <contour>
      <point x="153" y="254" type="curve" smooth="yes"/>
      <point x="153" y="132"/>
      <point x="199" y="42"/>
      <point x="301" y="42" type="curve" smooth="yes"/>
      <point x="377" y="42"/>
      <point x="414" y="92"/>
      <point x="414" y="170" type="curve" smooth="yes"/>
      <point x="414" y="346" type="line" smooth="yes"/>
      <point x="414" y="416"/>
      <point x="380" y="467"/>
      <point x="302" y="467" type="curve" smooth="yes"/>
      <point x="200" y="467"/>
      <point x="153" y="377"/>
    </contour>
    <contour>
      <point x="508" y="463.506" type="line"/>
      <point x="413" y="463.506" type="line"/>
      <point x="413" y="524.506" type="line" smooth="yes"/>
      <point x="413" y="625.596"/>
      <point x="435.749" y="741.506"/>
      <point x="565.017" y="741.506" type="curve" smooth="yes"/>
      <point x="640" y="741.506"/>
      <point x="684" y="702.506"/>
      <point x="684" y="666.057" type="curve" smooth="yes"/>
      <point x="684" y="637.506"/>
      <point x="657" y="621.506"/>
      <point x="637" y="621.506" type="curve" smooth="yes"/>
      <point x="616.054" y="621.506"/>
      <point x="607.49" y="640.321"/>
      <point x="598.409" y="660.247" type="curve" smooth="yes"/>
      <point x="588.188" y="682.673"/>
      <point x="577.311" y="706.506"/>
      <point x="547.388" y="706.506" type="curve" smooth="yes"/>
      <point x="529" y="706.506"/>
      <point x="500" y="697.506"/>
      <point x="500" y="613.654" type="curve" smooth="yes"/>
      <point x="500" y="598.281"/>
      <point x="500.975" y="578.696"/>
      <point x="503.962" y="559.114" type="curve" smooth="yes"/>
      <point x="506.968" y="539.408"/>
      <point x="508" y="519.454"/>
      <point x="508" y="499.506" type="curve" smooth="yes"/>
    </contour>
  </outline>
</glyph>
<glyph name="uni0259" format="2">
  <advance width="514"/>
  <unicode hex="0259"/>
  <outline>
    <contour>
      <point x="465" y="256" type="curve" smooth="yes"/>
      <point x="465" y="98"/>
      <point x="391" y="-12"/>
      <point x="232" y="-12" type="curve" smooth="yes"/>
      <point x="52" y="-12"/>
      <point x="33" y="129"/>
      <point x="33" y="187" type="curve" smooth="yes"/>
      <point x="33" y="222"/>
      <point x="52" y="227"/>
      <point x="73" y="227" type="curve" smooth="yes"/>
      <point x="361" y="227" type="line"/>
      <point x="361" y="238" type="line" smooth="yes"/>
      <point x="361" y="339"/>
      <point x="335" y="451"/>
      <point x="214" y="451" type="curve" smooth="yes"/>
      <point x="135" y="451"/>
      <point x="97" y="403"/>
      <point x="69" y="345" type="curve"/>
      <point x="39" y="361" type="line"/>
      <point x="66" y="440"/>
      <point x="123" y="502"/>
      <point x="234" y="502" type="curve" smooth="yes"/>
      <point x="397" y="502"/>
      <point x="465" y="407"/>
    </contour>
    <contour>
      <point x="361" y="187" type="curve"/>
      <point x="171" y="187" type="line" smooth="yes"/>
      <point x="143" y="187"/>
      <point x="137" y="174"/>
      <point x="137" y="149" type="curve" smooth="yes"/>
      <point x="137" y="117"/>
      <point x="148" y="23"/>
      <point x="240" y="23" type="curve" smooth="yes"/>
      <point x="346" y="23"/>
      <point x="361" y="146"/>
    </contour>
  </outline>
</glyph>
<glyph name="uni025C" format="2">
  <advance width="482"/>
  <unicode hex="025C"/>
  <outline>
    <contour>
      <point x="25" y="117" type="curve"/>
      <point x="54" y="131" type="line"/>
      <point x="84" y="70"/>
      <point x="133" y="37"/>
      <point x="206" y="37" type="curve" smooth="yes"/>
      <point x="275" y="37"/>
      <point x="328" y="64"/>
      <point x="328" y="130" type="curve" smooth="yes"/>
      <point x="328" y="186"/>
      <point x="285" y="241"/>
      <point x="212" y="241" type="curve" smooth="yes"/>
      <point x="176" y="241" type="line"/>
      <point x="176" y="276" type="line"/>
      <point x="212" y="276" type="line" smooth="yes"/>
      <point x="276" y="276"/>
      <point x="309" y="318"/>
      <point x="309" y="370" type="curve" smooth="yes"/>
      <point x="309" y="424"/>
      <point x="277" y="467"/>
      <point x="213" y="467" type="curve" smooth="yes"/>
      <point x="165" y="467"/>
      <point x="143" y="438"/>
      <point x="123" y="384" type="curve" smooth="yes"/>
      <point x="117" y="368"/>
      <point x="111" y="358"/>
      <point x="92" y="358" type="curve" smooth="yes"/>
      <point x="72" y="358"/>
      <point x="35" y="370"/>
      <point x="35" y="408" type="curve" smooth="yes"/>
      <point x="35" y="454"/>
      <point x="104" y="502"/>
      <point x="224" y="502" type="curve" smooth="yes"/>
      <point x="318" y="502"/>
      <point x="408" y="454"/>
      <point x="408" y="377" type="curve" smooth="yes"/>
      <point x="408" y="320"/>
      <point x="363" y="284"/>
      <point x="304" y="266" type="curve"/>
      <point x="304" y="263" type="line"/>
      <point x="387" y="242"/>
      <point x="432" y="181"/>
      <point x="432" y="123" type="curve" smooth="yes"/>
      <point x="432" y="32"/>
      <point x="323" y="-12"/>
      <point x="213" y="-12" type="curve" smooth="yes"/>
      <point x="143" y="-12"/>
      <point x="54" y="21"/>
    </contour>
  </outline>
</glyph>
<glyph name="uni025F" format="2">
  <advance width="315"/>
  <unicode hex="025F"/>
  <outline>
    <component base="dotlessj" xOffset="5"/>
    <contour>
      <point x="167.002" y="223.962" type="line"/>
      <point x="23.0022" y="223.962" type="line"/>
      <point x="23.0022" y="282.962" type="line"/>
      <point x="167.002" y="282.962" type="line"/>
    </contour>
    <contour>
      <point x="153.022" y="282.962" type="line"/>
      <point x="297.022" y="282.962" type="line"/>
      <point x="297.022" y="223.962" type="line"/>
      <point x="153.022" y="223.962" type="line"/>
    </contour>
  </outline>
</glyph>
<glyph name="uni0260" format="2">
  <advance width="588"/>
  <unicode hex="0260"/>
  <outline>
    <component base="uni0261"/>
    <contour>
      <point x="508" y="463.506" type="line"/>
      <point x="413" y="463.506" type="line"/>
      <point x="413" y="524.506" type="line" smooth="yes"/>
      <point x="413" y="625.596"/>
      <point x="435.749" y="741.506"/>
      <point x="565.017" y="741.506" type="curve" smooth="yes"/>
      <point x="640" y="741.506"/>
      <point x="684" y="702.506"/>
      <point x="684" y="666.057" type="curve" smooth="yes"/>
      <point x="684" y="637.506"/>
      <point x="657" y="621.506"/>
      <point x="637" y="621.506" type="curve" smooth="yes"/>
      <point x="616.054" y="621.506"/>
      <point x="607.49" y="640.321"/>
      <point x="598.409" y="660.247" type="curve" smooth="yes"/>
      <point x="588.188" y="682.673"/>
      <point x="577.311" y="706.506"/>
      <point x="547.388" y="706.506" type="curve" smooth="yes"/>
      <point x="529" y="706.506"/>
      <point x="500" y="697.506"/>
      <point x="500" y="613.654" type="curve" smooth="yes"/>
      <point x="500" y="598.281"/>
      <point x="500.975" y="578.696"/>
      <point x="503.962" y="559.114" type="curve" smooth="yes"/>
      <point x="506.968" y="539.408"/>
      <point x="508" y="519.454"/>
      <point x="508" y="499.506" type="curve" smooth="yes"/>
    </contour>
  </outline>
</glyph>
<glyph name="uni0261" format="2">
  <advance width="588"/>
  <unicode hex="0261"/>
  <outline>
    <contour>
      <point x="49" y="237.765" type="curve" smooth="yes"/>
      <point x="49" y="400"/>
      <point x="141" y="502"/>
      <point x="299.402" y="502" type="curve" smooth="yes"/>
      <point x="349" y="502"/>
      <point x="400" y="492"/>
      <point x="438" y="471" type="curve"/>
      <point x="481" y="502" type="line"/>
      <point x="508" y="502" type="line"/>
      <point x="508" y="4" type="line" smooth="yes"/>
      <point x="508" y="-157"/>
      <point x="427" y="-241"/>
      <point x="282" y="-241" type="curve" smooth="yes"/>
      <point x="124" y="-241"/>
      <point x="82" y="-185"/>
      <point x="82" y="-148" type="curve" smooth="yes"/>
      <point x="82" y="-118"/>
      <point x="113" y="-96"/>
      <point x="137.412" y="-96" type="curve" smooth="yes"/>
      <point x="160.207" y="-96"/>
      <point x="169.821" y="-115.18"/>
      <point x="181.062" y="-137.523" type="curve" smooth="yes"/>
      <point x="196.741" y="-168.686"/>
      <point x="215.586" y="-206"/>
      <point x="277.773" y="-206" type="curve" smooth="yes"/>
      <point x="377" y="-206"/>
      <point x="414" y="-111"/>
      <point x="414" y="-35" type="curve" smooth="yes"/>
      <point x="414" y="62" type="line"/>
      <point x="362" y="24"/>
      <point x="313" y="-3"/>
      <point x="248.714" y="-3" type="curve" smooth="yes"/>
      <point x="136" y="-3"/>
      <point x="49" y="80"/>
    </contour>
    <contour>
      <point x="153" y="254" type="curve" smooth="yes"/>
      <point x="153" y="139"/>
      <point x="196" y="51"/>
      <point x="298.361" y="51" type="curve" smooth="yes"/>
      <point x="354" y="51"/>
      <point x="414" y="77"/>
      <point x="414" y="180" type="curve" smooth="yes"/>
      <point x="414" y="340" type="line" smooth="yes"/>
      <point x="414" y="406"/>
      <point x="391" y="467"/>
      <point x="305.002" y="467" type="curve" smooth="yes"/>
      <point x="196" y="467"/>
      <point x="153" y="369"/>
    </contour>
  </outline>
</glyph>
<glyph name="uni0262" format="2">
  <advance width="607"/>
  <unicode hex="0262"/>
  <outline>
    <contour>
      <point x="49" y="245" type="curve" smooth="yes"/>
      <point x="49" y="374"/>
      <point x="121" y="502"/>
      <point x="334.849" y="502" type="curve" smooth="yes"/>
      <point x="403" y="502"/>
      <point x="471" y="489"/>
      <point x="510" y="466" type="curve"/>
      <point x="510" y="360" type="line"/>
      <point x="482" y="360" type="line"/>
      <point x="466" y="436"/>
      <point x="419" y="467"/>
      <point x="342.48" y="467" type="curve" smooth="yes"/>
      <point x="203" y="467"/>
      <point x="155" y="364"/>
      <point x="155" y="252.304" type="curve" smooth="yes"/>
      <point x="155" y="164"/>
      <point x="185" y="23"/>
      <point x="344.508" y="23" type="curve" smooth="yes"/>
      <point x="368.09" y="23"/>
      <point x="425" y="26.0818"/>
      <point x="425" y="66" type="curve" smooth="yes"/>
      <point x="425" y="157" type="line" smooth="yes"/>
      <point x="425" y="189"/>
      <point x="421" y="193"/>
      <point x="350" y="198" type="curve"/>
      <point x="350" y="227" type="line"/>
      <point x="569" y="227" type="line"/>
      <point x="569" y="198" type="line"/>
      <point x="523" y="193"/>
      <point x="519" y="190"/>
      <point x="519" y="157" type="curve" smooth="yes"/>
      <point x="519" y="25" type="line"/>
      <point x="469" y="6"/>
      <point x="392" y="-12"/>
      <point x="337" y="-12" type="curve" smooth="yes"/>
      <point x="87" y="-12"/>
      <point x="49" y="124"/>
    </contour>
  </outline>
  <guideline angle="0" x="0" y="430"/>
  <guideline angle="0" x="0" y="60"/>
</glyph>
<glyph name="uni0265" format="2">
  <advance width="601"/>
  <unicode hex="0265"/>
  <outline>
    <contour>
      <point x="26" y="452" type="line"/>
      <point x="26" y="477" type="line"/>
      <point x="183" y="502" type="line"/>
      <point x="190" y="496" type="line"/>
      <point x="190" y="167" type="line" smooth="yes"/>
      <point x="190" y="80"/>
      <point x="227" y="42"/>
      <point x="292.302" y="42" type="curve" smooth="yes"/>
      <point x="370.526" y="42"/>
      <point x="424" y="96.5258"/>
      <point x="424" y="169" type="curve" smooth="yes"/>
      <point x="424" y="402" type="line" smooth="yes"/>
      <point x="424" y="438"/>
      <point x="418" y="443"/>
      <point x="392" y="447" type="curve" smooth="yes"/>
      <point x="354" y="452" type="line"/>
      <point x="354" y="477" type="line"/>
      <point x="510.925" y="502" type="line"/>
      <point x="518" y="496" type="line"/>
      <point x="518" y="-143" type="line" smooth="yes"/>
      <point x="518" y="-194"/>
      <point x="524" y="-196"/>
      <point x="593" y="-201" type="curve"/>
      <point x="593" y="-230" type="line"/>
      <point x="345" y="-230" type="line"/>
      <point x="345" y="-201" type="line"/>
      <point x="420" y="-196"/>
      <point x="424" y="-194"/>
      <point x="424" y="-143" type="curve" smooth="yes"/>
      <point x="424" y="64" type="line"/>
      <point x="361.911" y="17"/>
      <point x="317" y="-12"/>
      <point x="248.241" y="-12" type="curve" smooth="yes"/>
      <point x="151" y="-12"/>
      <point x="96" y="46"/>
      <point x="96" y="147" type="curve" smooth="yes"/>
      <point x="96" y="402" type="line" smooth="yes"/>
      <point x="96" y="438"/>
      <point x="90" y="443"/>
      <point x="64" y="447" type="curve" smooth="yes"/>
    </contour>
  </outline>
</glyph>
<glyph name="uni0268" format="2">
  <advance width="316"/>
  <unicode hex="0268"/>
  <outline>
    <contour>
      <point x="22" y="235" type="line"/>
      <point x="22" y="270" type="line"/>
      <point x="112" y="270" type="line"/>
      <point x="112" y="402" type="line" smooth="yes"/>
      <point x="112" y="438"/>
      <point x="106" y="443"/>
      <point x="80" y="447" type="curve" smooth="yes"/>
      <point x="42" y="452" type="line"/>
      <point x="42" y="477" type="line"/>
      <point x="199" y="502" type="line"/>
      <point x="206" y="496" type="line"/>
      <point x="206" y="270" type="line"/>
      <point x="296" y="270" type="line"/>
      <point x="296" y="235" type="line"/>
      <point x="206" y="235" type="line"/>
      <point x="206" y="87" type="line" smooth="yes"/>
      <point x="206" y="36"/>
      <point x="210" y="34"/>
      <point x="281" y="29" type="curve"/>
      <point x="281" y="0" type="line"/>
      <point x="37" y="0" type="line"/>
      <point x="37" y="29" type="line"/>
      <point x="109" y="34"/>
      <point x="112" y="36"/>
      <point x="112" y="87" type="curve" smooth="yes"/>
      <point x="112" y="235" type="line"/>
    </contour>
    <contour>
      <point x="97" y="654" type="curve" smooth="yes"/>
      <point x="97" y="690"/>
      <point x="122" y="715"/>
      <point x="158" y="715" type="curve" smooth="yes"/>
      <point x="194" y="715"/>
      <point x="219" y="690"/>
      <point x="219" y="654" type="curve" smooth="yes"/>
      <point x="219" y="618"/>
      <point x="194" y="593"/>
      <point x="158" y="593" type="curve" smooth="yes"/>
      <point x="122" y="593"/>
      <point x="97" y="618"/>
    </contour>
  </outline>
</glyph>
<glyph name="uni026C" format="2">
  <advance width="400"/>
  <unicode hex="026C"/>
  <outline>
    <component base="l" xOffset="75"/>
    <contour>
      <point x="190.023" y="492.424" type="line"/>
      <point x="169.175" y="503.442"/>
      <point x="139.768" y="510"/>
      <point x="116.259" y="510" type="curve" smooth="yes"/>
      <point x="54" y="510"/>
      <point x="15" y="464"/>
      <point x="15" y="401.772" type="curve" smooth="yes"/>
      <point x="15" y="317.564"/>
      <point x="86.4174" y="267.072"/>
      <point x="188.215" y="266.937" type="curve"/>
      <point x="191.759" y="302.007" type="line"/>
      <point x="98.865" y="302.416"/>
      <point x="55" y="348.559"/>
      <point x="55" y="400.69" type="curve" smooth="yes"/>
      <point x="55" y="435"/>
      <point x="74" y="476"/>
      <point x="114.514" y="476" type="curve" smooth="yes"/>
      <point x="138.332" y="476"/>
      <point x="169.812" y="461.829"/>
      <point x="189.539" y="441.391" type="curve"/>
    </contour>
    <contour>
      <point x="252.934" y="273.787" type="line"/>
      <point x="290.834" y="283.862"/>
      <point x="332.458" y="304.696"/>
      <point x="390" y="339" type="curve"/>
      <point x="377" y="368" type="line"/>
      <point x="335.578" y="344.49"/>
      <point x="294.155" y="320.98"/>
      <point x="249.927" y="310.098" type="curve"/>
    </contour>
  </outline>
</glyph>
<glyph name="uni0273" format="2">
  <advance width="620"/>
  <unicode hex="0273"/>
  <outline>
    <contour>
      <point x="435" y="99.8823" type="line"/>
      <point x="435" y="-25" type="line" smooth="yes"/>
      <point x="435" y="-126.096"/>
      <point x="457.741" y="-242"/>
      <point x="587.013" y="-242" type="curve" smooth="yes"/>
      <point x="662" y="-242"/>
      <point x="706" y="-203"/>
      <point x="706" y="-166.552" type="curve" smooth="yes"/>
      <point x="706" y="-138"/>
      <point x="679" y="-122"/>
      <point x="657.795" y="-122" type="curve" smooth="yes"/>
      <point x="644" y="-122"/>
      <point x="636.513" y="-128.771"/>
      <point x="632" y="-139" type="curve" smooth="yes"/>
      <point x="606.507" y="-196.785"/>
      <point x="585" y="-207"/>
      <point x="567.462" y="-207" type="curve" smooth="yes"/>
      <point x="551" y="-207"/>
      <point x="522" y="-198"/>
      <point x="522" y="-112.521" type="curve" smooth="yes"/>
      <point x="522" y="-101.226"/>
      <point x="522.506" y="-86.4167"/>
      <point x="524.974" y="-66.6964" type="curve" smooth="yes"/>
      <point x="527.482" y="-46.6439"/>
      <point x="529" y="-21.4822"/>
      <point x="529" y="0" type="curve" smooth="yes"/>
      <point x="529" y="99.8823" type="line"/>
    </contour>
    <contour>
      <point x="276" y="0" type="line"/>
      <point x="276" y="29" type="line"/>
      <point x="205" y="34"/>
      <point x="201" y="36"/>
      <point x="201" y="87" type="curve" smooth="yes"/>
      <point x="201" y="321" type="line" smooth="yes"/>
      <point x="201" y="393"/>
      <point x="256" y="448"/>
      <point x="334" y="448" type="curve" smooth="yes"/>
      <point x="398" y="448"/>
      <point x="435" y="410"/>
      <point x="435" y="323" type="curve" smooth="yes"/>
      <point x="435" y="100" type="line"/>
      <point x="529" y="100" type="line"/>
      <point x="529" y="343" type="line" smooth="yes"/>
      <point x="529" y="444"/>
      <point x="474" y="502"/>
      <point x="379" y="502" type="curve" smooth="yes"/>
      <point x="308" y="502"/>
      <point x="262" y="470"/>
      <point x="200" y="426" type="curve"/>
      <point x="186" y="502" type="line"/>
      <point x="37" y="477" type="line"/>
      <point x="37" y="452" type="line"/>
      <point x="75" y="447" type="line" smooth="yes"/>
      <point x="101" y="443"/>
      <point x="107" y="438"/>
      <point x="107" y="402" type="curve" smooth="yes"/>
      <point x="107" y="87" type="line" smooth="yes"/>
      <point x="107" y="36"/>
      <point x="104" y="34"/>
      <point x="32" y="29" type="curve"/>
      <point x="32" y="0" type="line"/>
    </contour>
  </outline>
</glyph>
<glyph name="uni0275" format="2">
  <advance width="577"/>
  <unicode hex="0275"/>
  <outline>
    <contour>
      <point x="49" y="245" type="curve" smooth="yes"/>
      <point x="49" y="407"/>
      <point x="128" y="502"/>
      <point x="289" y="502" type="curve" smooth="yes"/>
      <point x="450" y="502"/>
      <point x="529" y="407"/>
      <point x="529" y="245" type="curve" smooth="yes"/>
      <point x="529" y="83"/>
      <point x="450" y="-12"/>
      <point x="289" y="-12" type="curve" smooth="yes"/>
      <point x="128" y="-12"/>
      <point x="49" y="83"/>
    </contour>
    <contour>
      <point x="153" y="235" type="line"/>
      <point x="155" y="103"/>
      <point x="199" y="23"/>
      <point x="289" y="23" type="curve" smooth="yes"/>
      <point x="379" y="23"/>
      <point x="423" y="103"/>
      <point x="425" y="235" type="curve"/>
    </contour>
    <contour>
      <point x="154" y="270" type="curve"/>
      <point x="424" y="270" type="line"/>
      <point x="419" y="393"/>
      <point x="375" y="467"/>
      <point x="289" y="467" type="curve" smooth="yes"/>
      <point x="203" y="467"/>
      <point x="159" y="393"/>
    </contour>
  </outline>
</glyph>
<glyph name="uni0277" format="2">
  <advance width="754"/>
  <unicode hex="0277"/>
  <outline>
    <contour>
      <point x="50" y="234" type="curve" smooth="yes"/>
      <point x="50" y="419.346"/>
      <point x="193.148" y="501.8"/>
      <point x="375.481" y="501.8" type="curve" smooth="yes"/>
      <point x="557.144" y="501.8"/>
      <point x="704" y="419.892"/>
      <point x="704" y="234" type="curve" smooth="yes"/>
      <point x="704" y="42"/>
      <point x="637.165" y="-10"/>
      <point x="509.405" y="-10" type="curve" smooth="yes"/>
      <point x="438" y="-10"/>
      <point x="392" y="37"/>
      <point x="377" y="94" type="curve"/>
      <point x="362" y="37"/>
      <point x="316" y="-10"/>
      <point x="244.595" y="-10" type="curve" smooth="yes"/>
      <point x="116.835" y="-10"/>
      <point x="50" y="42"/>
    </contour>
    <contour>
      <point x="154" y="231.003" type="curve" smooth="yes"/>
      <point x="154" y="177"/>
      <point x="160.959" y="45"/>
      <point x="260.611" y="45" type="curve" smooth="yes"/>
      <point x="330" y="45"/>
      <point x="353" y="109"/>
      <point x="353" y="144.334" type="curve" smooth="yes"/>
      <point x="353" y="161.864"/>
      <point x="347.339" y="189.345"/>
      <point x="332.695" y="221.87" type="curve" smooth="yes"/>
      <point x="326.072" y="236.579"/>
      <point x="322" y="248.673"/>
      <point x="322" y="265.464" type="curve" smooth="yes"/>
      <point x="322" y="289"/>
      <point x="330" y="326"/>
      <point x="377" y="326" type="curve" smooth="yes"/>
      <point x="424" y="326"/>
      <point x="432" y="289"/>
      <point x="432" y="266.749" type="curve" smooth="yes"/>
      <point x="432" y="248.868"/>
      <point x="426.833" y="236.284"/>
      <point x="417.539" y="213.506" type="curve" smooth="yes"/>
      <point x="407.529" y="188.973"/>
      <point x="401" y="161.864"/>
      <point x="401" y="143.489" type="curve" smooth="yes"/>
      <point x="401" y="109"/>
      <point x="424" y="45"/>
      <point x="493.389" y="45" type="curve" smooth="yes"/>
      <point x="593.041" y="45"/>
      <point x="600" y="177"/>
      <point x="600" y="231.003" type="curve" smooth="yes"/>
      <point x="600" y="315.811"/>
      <point x="582.839" y="467.35"/>
      <point x="377" y="467.35" type="curve" smooth="yes"/>
      <point x="171.161" y="467.35"/>
      <point x="154" y="315.811"/>
    </contour>
  </outline>
</glyph>
<glyph name="uni027B" format="2">
  <advance width="372"/>
  <unicode hex="027B"/>
  <outline>
    <contour>
      <point x="2" y="38.5183" type="curve" smooth="yes"/>
      <point x="2" y="68"/>
      <point x="24" y="93"/>
      <point x="48" y="93" type="curve" smooth="yes"/>
      <point x="53" y="93"/>
      <point x="61" y="92"/>
      <point x="68" y="88" type="curve" smooth="yes"/>
      <point x="97" y="72"/>
      <point x="114" y="66"/>
      <point x="126.655" y="66" type="curve" smooth="yes"/>
      <point x="153" y="66"/>
      <point x="187" y="92"/>
      <point x="187" y="169" type="curve" smooth="yes"/>
      <point x="187" y="402" type="line" smooth="yes"/>
      <point x="187" y="438"/>
      <point x="181" y="443"/>
      <point x="155" y="447" type="curve" smooth="yes"/>
      <point x="117" y="452" type="line"/>
      <point x="117" y="477" type="line"/>
      <point x="274" y="502" type="line"/>
      <point x="281" y="496" type="line"/>
      <point x="281" y="0" type="line"/>
      <point x="187" y="0" type="line"/>
      <point x="187" y="68" type="line"/>
      <point x="121" y="10"/>
      <point x="91" y="-12"/>
      <point x="55" y="-12" type="curve" smooth="yes"/>
      <point x="16" y="-12"/>
      <point x="2" y="15"/>
    </contour>
    <contour>
      <point x="281" y="99.8823" type="line"/>
      <point x="281" y="0" type="line" smooth="yes"/>
      <point x="281" y="-21.4822"/>
      <point x="279.482" y="-46.6439"/>
      <point x="276.974" y="-66.6964" type="curve" smooth="yes"/>
      <point x="274.506" y="-86.4167"/>
      <point x="274" y="-101.226"/>
      <point x="274" y="-112.521" type="curve" smooth="yes"/>
      <point x="274" y="-198"/>
      <point x="303" y="-207"/>
      <point x="319.462" y="-207" type="curve" smooth="yes"/>
      <point x="337" y="-207"/>
      <point x="358.507" y="-196.785"/>
      <point x="384" y="-139" type="curve" smooth="yes"/>
      <point x="388.513" y="-128.771"/>
      <point x="396" y="-122"/>
      <point x="409.795" y="-122" type="curve" smooth="yes"/>
      <point x="431" y="-122"/>
      <point x="458" y="-138"/>
      <point x="458" y="-166.552" type="curve" smooth="yes"/>
      <point x="458" y="-203"/>
      <point x="414" y="-242"/>
      <point x="339.013" y="-242" type="curve" smooth="yes"/>
      <point x="209.741" y="-242"/>
      <point x="187" y="-126.096"/>
      <point x="187" y="-25" type="curve" smooth="yes"/>
      <point x="187" y="99.8823" type="line"/>
    </contour>
  </outline>
</glyph>
<glyph name="uni0282" format="2">
  <advance width="436"/>
  <unicode hex="0282"/>
  <outline>
    <component base="s"/>
    <contour>
      <point x="110" y="36.2181" type="line"/>
      <point x="110" y="6" type="line"/>
      <point x="102.962" y="6.1939"/>
      <point x="98" y="4"/>
      <point x="98" y="-5" type="curve" smooth="yes"/>
      <point x="98" y="-131.45" type="line" smooth="yes"/>
      <point x="98" y="-177.553"/>
      <point x="116.832" y="-192"/>
      <point x="141" y="-192" type="curve" smooth="yes"/>
      <point x="167.089" y="-192"/>
      <point x="175.754" y="-172.942"/>
      <point x="184.041" y="-154.715" type="curve" smooth="yes"/>
      <point x="191.636" y="-138.009"/>
      <point x="201.915" y="-122"/>
      <point x="220.179" y="-122" type="curve" smooth="yes"/>
      <point x="239" y="-122"/>
      <point x="266" y="-139"/>
      <point x="266" y="-168" type="curve" smooth="yes"/>
      <point x="266" y="-199"/>
      <point x="231" y="-242"/>
      <point x="157.597" y="-242" type="curve" smooth="yes"/>
      <point x="75" y="-242"/>
      <point x="58" y="-187.553"/>
      <point x="58" y="-122.45" type="curve" smooth="yes"/>
      <point x="58" y="0" type="line"/>
      <point x="57" y="36" type="line"/>
    </contour>
  </outline>
</glyph>
<glyph name="uni0283" format="2">
  <advance width="350"/>
  <unicode hex="0283"/>
  <outline>
    <contour>
      <point x="149" y="250.085" type="line"/>
      <point x="149" y="525" type="line" smooth="yes"/>
      <point x="149" y="666.656"/>
      <point x="205.9" y="742"/>
      <point x="305.006" y="742" type="curve" smooth="yes"/>
      <point x="379" y="742"/>
      <point x="423" y="700"/>
      <point x="423" y="663.552" type="curve" smooth="yes"/>
      <point x="423" y="635"/>
      <point x="396" y="619"/>
      <point x="374.934" y="619" type="curve" smooth="yes"/>
      <point x="361" y="619"/>
      <point x="353.121" y="625.607"/>
      <point x="349" y="636" type="curve" smooth="yes"/>
      <point x="326" y="694"/>
      <point x="302" y="707"/>
      <point x="283.442" y="707" type="curve" smooth="yes"/>
      <point x="268" y="707"/>
      <point x="238" y="698"/>
      <point x="238" y="617" type="curve" smooth="yes"/>
      <point x="238" y="564.629"/>
      <point x="239" y="534.403"/>
      <point x="243" y="490" type="curve"/>
      <point x="243" y="250.059" type="line"/>
    </contour>
    <contour>
      <point x="243" y="249.974" type="line"/>
      <point x="243" y="-24.9407" type="line" smooth="yes"/>
      <point x="243" y="-166.597"/>
      <point x="186.1" y="-241.941"/>
      <point x="86.9944" y="-241.941" type="curve" smooth="yes"/>
      <point x="13" y="-241.941"/>
      <point x="-31" y="-199.941"/>
      <point x="-31" y="-163.492" type="curve" smooth="yes"/>
      <point x="-31" y="-134.941"/>
      <point x="-4" y="-118.941"/>
      <point x="17.0661" y="-118.941" type="curve" smooth="yes"/>
      <point x="31" y="-118.941"/>
      <point x="38.8786" y="-125.548"/>
      <point x="43" y="-135.941" type="curve" smooth="yes"/>
      <point x="66" y="-193.941"/>
      <point x="90" y="-206.941"/>
      <point x="108.558" y="-206.941" type="curve" smooth="yes"/>
      <point x="124" y="-206.941"/>
      <point x="154" y="-197.941"/>
      <point x="154" y="-116.941" type="curve" smooth="yes"/>
      <point x="154" y="-64.5702"/>
      <point x="153" y="-34.3437"/>
      <point x="149" y="10.0593" type="curve"/>
      <point x="149" y="250" type="line"/>
    </contour>
  </outline>
</glyph>
<glyph name="uni0285" format="2">
  <advance width="373"/>
  <unicode hex="0285"/>
  <outline>
    <contour>
      <point x="188" y="100" type="line"/>
      <point x="188" y="281" type="line" smooth="yes"/>
      <point x="188" y="383.348"/>
      <point x="170.593" y="428"/>
      <point x="128.984" y="428" type="curve" smooth="yes"/>
      <point x="112.719" y="428"/>
      <point x="98.072" y="421.177"/>
      <point x="84.3702" y="410.945" type="curve" smooth="yes"/>
      <point x="73.1704" y="402.582"/>
      <point x="61.1294" y="397"/>
      <point x="49" y="397" type="curve" smooth="yes"/>
      <point x="25" y="397"/>
      <point x="3" y="422"/>
      <point x="3" y="451.482" type="curve" smooth="yes"/>
      <point x="3" y="475"/>
      <point x="17" y="502"/>
      <point x="57.7347" y="502" type="curve" smooth="yes"/>
      <point x="188.572" y="502"/>
      <point x="282" y="401.184"/>
      <point x="282" y="260" type="curve" smooth="yes"/>
      <point x="282" y="100" type="line"/>
    </contour>
    <contour>
      <point x="188" y="99.8823" type="line"/>
      <point x="282" y="99.8823" type="line"/>
      <point x="282" y="0" type="line" smooth="yes"/>
      <point x="282" y="-21.4822"/>
      <point x="280.482" y="-46.6439"/>
      <point x="277.974" y="-66.6964" type="curve" smooth="yes"/>
      <point x="275.506" y="-86.4167"/>
      <point x="275" y="-101.226"/>
      <point x="275" y="-112.521" type="curve" smooth="yes"/>
      <point x="275" y="-198"/>
      <point x="304" y="-207"/>
      <point x="320.462" y="-207" type="curve" smooth="yes"/>
      <point x="338" y="-207"/>
      <point x="359.507" y="-196.785"/>
      <point x="385" y="-139" type="curve" smooth="yes"/>
      <point x="389.513" y="-128.771"/>
      <point x="397" y="-122"/>
      <point x="410.795" y="-122" type="curve" smooth="yes"/>
      <point x="432" y="-122"/>
      <point x="459" y="-138"/>
      <point x="459" y="-166.552" type="curve" smooth="yes"/>
      <point x="459" y="-203"/>
      <point x="415" y="-242"/>
      <point x="340.013" y="-242" type="curve" smooth="yes"/>
      <point x="210.741" y="-242"/>
      <point x="188" y="-126.096"/>
      <point x="188" y="-25" type="curve" smooth="yes"/>
    </contour>
  </outline>
</glyph>
<glyph name="uni0286" format="2">
  <advance width="350"/>
  <unicode hex="0286"/>
  <outline>
    <contour>
      <point x="-104" y="-136.728" type="curve" smooth="yes"/>
      <point x="-104" y="-70.516"/>
      <point x="-44.1681" y="-23"/>
      <point x="39.2061" y="-23" type="curve" smooth="yes"/>
      <point x="77.833" y="-23"/>
      <point x="122.651" y="-33.7897"/>
      <point x="156.42" y="-51.2187" type="curve"/>
      <point x="144.321" y="-57.5706" type="line"/>
      <point x="147.316" y="-38.8918"/>
      <point x="149" y="-5.21158"/>
      <point x="149" y="36" type="curve" smooth="yes"/>
      <point x="149" y="250" type="line"/>
      <point x="243" y="250" type="line"/>
      <point x="243" y="7" type="line" smooth="yes"/>
      <point x="243" y="-43.0224"/>
      <point x="239.312" y="-74.2194"/>
      <point x="229.666" y="-105.788" type="curve"/>
      <point x="259.007" y="-134.484"/>
      <point x="291.746" y="-179.069"/>
      <point x="315" y="-222" type="curve"/>
      <point x="287" y="-239" type="line"/>
      <point x="267.812" y="-205.479"/>
      <point x="229.672" y="-157.175"/>
      <point x="203.87" y="-133.719" type="curve"/>
      <point x="219.873" y="-134.211" type="line"/>
      <point x="185.567" y="-199.274"/>
      <point x="114.59" y="-242"/>
      <point x="32.9703" y="-242" type="curve" smooth="yes"/>
      <point x="-47.2388" y="-242"/>
      <point x="-104" y="-200.738"/>
    </contour>
    <contour>
      <point x="-62" y="-134" type="curve" smooth="yes"/>
      <point x="-62" y="-177.217"/>
      <point x="-25.2222" y="-206"/>
      <point x="32.1678" y="-206" type="curve" smooth="yes"/>
      <point x="95.7414" y="-206"/>
      <point x="129.843" y="-170.681"/>
      <point x="142" y="-90" type="curve"/>
      <point x="110.605" y="-68.3484"/>
      <point x="78.2273" y="-58"/>
      <point x="41.8787" y="-58" type="curve" smooth="yes"/>
      <point x="-20.3142" y="-58"/>
      <point x="-62" y="-88.4983"/>
    </contour>
    <contour>
      <point x="149" y="250.085" type="line"/>
      <point x="149" y="525" type="line" smooth="yes"/>
      <point x="149" y="666.656"/>
      <point x="205.9" y="742"/>
      <point x="305.006" y="742" type="curve" smooth="yes"/>
      <point x="379" y="742"/>
      <point x="423" y="700"/>
      <point x="423" y="663.552" type="curve" smooth="yes"/>
      <point x="423" y="635"/>
      <point x="396" y="619"/>
      <point x="374.934" y="619" type="curve" smooth="yes"/>
      <point x="361" y="619"/>
      <point x="353.121" y="625.607"/>
      <point x="349" y="636" type="curve" smooth="yes"/>
      <point x="326" y="694"/>
      <point x="302" y="707"/>
      <point x="283.442" y="707" type="curve" smooth="yes"/>
      <point x="268" y="707"/>
      <point x="238" y="698"/>
      <point x="238" y="617" type="curve" smooth="yes"/>
      <point x="238" y="564.629"/>
      <point x="239" y="534.403"/>
      <point x="243" y="490" type="curve"/>
      <point x="243" y="250.059" type="line"/>
    </contour>
  </outline>
</glyph>
<glyph name="uni0293" format="2">
  <advance width="514"/>
  <unicode hex="0293"/>
  <outline>
    <contour>
      <point x="365.954" y="-72.3848" type="line"/>
      <point x="367.616" y="-59.3583"/>
      <point x="368" y="-47.8328"/>
      <point x="368" y="-39.238" type="curve" smooth="yes"/>
      <point x="368" y="44"/>
      <point x="332" y="127"/>
      <point x="250.495" y="127" type="curve" smooth="yes"/>
      <point x="235" y="127"/>
      <point x="198" y="124"/>
      <point x="178" y="113" type="curve"/>
      <point x="157" y="144" type="line"/>
      <point x="163" y="159" type="line"/>
      <point x="375" y="414" type="line"/>
      <point x="224" y="414" type="line" smooth="yes"/>
      <point x="116" y="414"/>
      <point x="101" y="404"/>
      <point x="92" y="312" type="curve"/>
      <point x="61" y="312" type="line"/>
      <point x="61" y="490" type="line"/>
      <point x="445" y="490" type="line"/>
      <point x="453" y="476" type="line"/>
      <point x="448" y="457" type="line"/>
      <point x="445" y="440"/>
      <point x="424" y="409"/>
      <point x="402" y="382" type="curve" smooth="yes"/>
      <point x="222" y="170" type="line"/>
      <point x="224" y="168" type="line"/>
      <point x="230" y="171"/>
      <point x="267" y="174"/>
      <point x="278" y="174" type="curve" smooth="yes"/>
      <point x="396" y="174"/>
      <point x="472" y="102"/>
      <point x="472" y="-31.9143" type="curve" smooth="yes"/>
      <point x="472" y="-78.654"/>
      <point x="462.742" y="-115.387"/>
      <point x="445.532" y="-145.493" type="curve"/>
    </contour>
    <contour>
      <point x="102" y="-116.451" type="curve" smooth="yes"/>
      <point x="102" y="-180"/>
      <point x="172" y="-206"/>
      <point x="247" y="-206" type="curve" smooth="yes"/>
      <point x="319" y="-206"/>
      <point x="353" y="-149"/>
      <point x="364" y="-88" type="curve"/>
      <point x="326" y="-58"/>
      <point x="283" y="-38"/>
      <point x="238" y="-38" type="curve" smooth="yes"/>
      <point x="174" y="-38"/>
      <point x="102" y="-52"/>
    </contour>
    <contour>
      <point x="515" y="-223" type="curve"/>
      <point x="489" y="-239" type="line"/>
      <point x="474" y="-214"/>
      <point x="457" y="-186"/>
      <point x="436" y="-160" type="curve"/>
      <point x="398" y="-213"/>
      <point x="332" y="-242"/>
      <point x="250.229" y="-242" type="curve" smooth="yes"/>
      <point x="163" y="-242"/>
      <point x="60" y="-209"/>
      <point x="60" y="-115.677" type="curve" smooth="yes"/>
      <point x="60" y="-27"/>
      <point x="153" y="-3"/>
      <point x="232" y="-3" type="curve" smooth="yes"/>
      <point x="363.75" y="-3"/>
      <point x="459.243" y="-114.421"/>
    </contour>
  </outline>
</glyph>
<glyph name="uni0295" format="2">
  <advance width="453"/>
  <unicode hex="0295"/>
  <outline>
    <contour>
      <point x="29" y="568" type="curve" smooth="yes"/>
      <point x="29" y="667"/>
      <point x="82" y="742"/>
      <point x="227" y="742" type="curve" smooth="yes"/>
      <point x="376" y="742"/>
      <point x="418" y="672"/>
      <point x="418" y="633" type="curve" smooth="yes"/>
      <point x="418" y="600"/>
      <point x="384" y="582"/>
      <point x="366" y="582" type="curve" smooth="yes"/>
      <point x="352" y="582"/>
      <point x="340" y="588"/>
      <point x="335" y="603" type="curve"/>
      <point x="315" y="677"/>
      <point x="288" y="707"/>
      <point x="232" y="707" type="curve" smooth="yes"/>
      <point x="154" y="707"/>
      <point x="128" y="643"/>
      <point x="128" y="568" type="curve" smooth="yes"/>
      <point x="128" y="435"/>
      <point x="287" y="404"/>
      <point x="287" y="229" type="curve" smooth="yes"/>
      <point x="287" y="87" type="line" smooth="yes"/>
      <point x="287" y="36"/>
      <point x="290" y="34"/>
      <point x="362" y="29" type="curve"/>
      <point x="362" y="0" type="line"/>
      <point x="118" y="0" type="line"/>
      <point x="118" y="29" type="line"/>
      <point x="190" y="34"/>
      <point x="193" y="36"/>
      <point x="193" y="87" type="curve" smooth="yes"/>
      <point x="193" y="273" type="line" smooth="yes"/>
      <point x="193" y="418"/>
      <point x="29" y="449"/>
    </contour>
  </outline>
</glyph>
<glyph name="uni0297" format="2">
  <advance width="488"/>
  <unicode hex="0297"/>
  <outline>
    <contour>
      <point x="49" y="114.078" type="curve" smooth="yes"/>
      <point x="49" y="315.276"/>
      <point x="110" y="502"/>
      <point x="288" y="502" type="curve" smooth="yes"/>
      <point x="400" y="502"/>
      <point x="466" y="428.179"/>
      <point x="466" y="360.148" type="curve" smooth="yes"/>
      <point x="466" y="306.592"/>
      <point x="427" y="287.775"/>
      <point x="407" y="287.775" type="curve" smooth="yes"/>
      <point x="388" y="287.775"/>
      <point x="382" y="302.25"/>
      <point x="375" y="329.751" type="curve" smooth="yes"/>
      <point x="356" y="403.572"/>
      <point x="327" y="451.339"/>
      <point x="278" y="451.339" type="curve" smooth="yes"/>
      <point x="212" y="451.339"/>
      <point x="153" y="364.491"/>
      <point x="153" y="156.055" type="curve" smooth="yes"/>
      <point x="153" y="12.7561"/>
      <point x="181" y="-166.73"/>
      <point x="306" y="-166.73" type="curve" smooth="yes"/>
      <point x="373" y="-166.73"/>
      <point x="413" y="-114.621"/>
      <point x="444" y="-13.2983" type="curve"/>
      <point x="473" y="-33.5628" type="line"/>
      <point x="445" y="-188.442"/>
      <point x="351" y="-241.998"/>
      <point x="281" y="-241.998" type="curve" smooth="yes"/>
      <point x="131" y="-241.998"/>
      <point x="49" y="-118.963"/>
    </contour>
  </outline>
</glyph>
<glyph name="uni029B" format="2">
  <advance width="625"/>
  <unicode hex="029B"/>
  <outline>
    <component base="uni0262"/>
    <contour>
      <point x="510.382" y="464.065" type="line"/>
      <point x="470.382" y="464.283" type="line"/>
      <point x="470.382" y="622.733" type="line" smooth="yes"/>
      <point x="470.382" y="687.836"/>
      <point x="487.382" y="742.283"/>
      <point x="569.98" y="742.283" type="curve" smooth="yes"/>
      <point x="643.382" y="742.283"/>
      <point x="678.382" y="699.283"/>
      <point x="678.382" y="668.283" type="curve" smooth="yes"/>
      <point x="678.382" y="639.283"/>
      <point x="651.382" y="622.283"/>
      <point x="632.561" y="622.283" type="curve" smooth="yes"/>
      <point x="614.297" y="622.283"/>
      <point x="604.019" y="638.291"/>
      <point x="596.423" y="654.997" type="curve" smooth="yes"/>
      <point x="588.136" y="673.225"/>
      <point x="579.471" y="692.283"/>
      <point x="553.382" y="692.283" type="curve" smooth="yes"/>
      <point x="529.214" y="692.283"/>
      <point x="510.382" y="677.836"/>
      <point x="510.382" y="631.733" type="curve" smooth="yes"/>
    </contour>
  </outline>
</glyph>
<glyph name="uni02A1" format="2">
  <advance width="453"/>
  <unicode hex="02A1"/>
  <outline>
    <component base="uni0294"/>
    <contour>
      <point x="205" y="179.628" type="line"/>
      <point x="61" y="179.628" type="line"/>
      <point x="61" y="219.948" type="line"/>
      <point x="205" y="219.948" type="line"/>
    </contour>
    <contour>
      <point x="219" y="219.67" type="line"/>
      <point x="363" y="219.67" type="line"/>
      <point x="363" y="179.35" type="line"/>
      <point x="219" y="179.35" type="line"/>
    </contour>
  </outline>
</glyph>
<glyph name="uni02A6" format="2">
  <advance width="620"/>
  <unicode hex="02A6"/>
  <outline>
    <contour>
      <point x="31" y="450" type="line"/>
      <point x="31" y="490" type="line"/>
      <point x="107" y="490" type="line"/>
      <point x="168" y="616" type="line"/>
      <point x="197" y="616" type="line"/>
      <point x="197" y="490" type="line"/>
      <point x="338.687" y="490" type="line"/>
      <point x="362.599" y="497.912"/>
      <point x="390.016" y="502"/>
      <point x="420" y="502" type="curve" smooth="yes"/>
      <point x="467" y="502"/>
      <point x="518" y="492"/>
      <point x="551" y="468" type="curve"/>
      <point x="551" y="351" type="line"/>
      <point x="522" y="351" type="line"/>
      <point x="515" y="412"/>
      <point x="481" y="467"/>
      <point x="410" y="467" type="curve" smooth="yes"/>
      <point x="360" y="467"/>
      <point x="320" y="438"/>
      <point x="320" y="391" type="curve" smooth="yes"/>
      <point x="320" y="330"/>
      <point x="385.944" y="308.83"/>
      <point x="427" y="296" type="curve" smooth="yes"/>
      <point x="529.944" y="263.83"/>
      <point x="584" y="224"/>
      <point x="584" y="142" type="curve" smooth="yes"/>
      <point x="584" y="51"/>
      <point x="516" y="-12"/>
      <point x="397" y="-12" type="curve" smooth="yes"/>
      <point x="214" y="-12" type="line" smooth="yes"/>
      <point x="179" y="-12"/>
      <point x="103" y="0"/>
      <point x="103" y="102" type="curve" smooth="yes"/>
      <point x="103" y="450" type="line"/>
    </contour>
    <contour>
      <point x="402" y="23" type="line" smooth="yes"/>
      <point x="459" y="23"/>
      <point x="499" y="55"/>
      <point x="499" y="108" type="curve" smooth="yes"/>
      <point x="499" y="174"/>
      <point x="436.047" y="197.189"/>
      <point x="394" y="210" type="curve" smooth="yes"/>
      <point x="308.047" y="236.189"/>
      <point x="240" y="273"/>
      <point x="240" y="360" type="curve" smooth="yes"/>
      <point x="240" y="396.776"/>
      <point x="252.091" y="427.016"/>
      <point x="273.491" y="450" type="curve"/>
      <point x="197" y="450" type="line"/>
      <point x="197" y="140" type="line" smooth="yes"/>
      <point x="197" y="64"/>
      <point x="229" y="23"/>
      <point x="263" y="23" type="curve" smooth="yes"/>
    </contour>
  </outline>
</glyph>
<glyph name="uni02AC" format="2">
  <advance width="583"/>
  <unicode hex="02AC"/>
  <outline>
    <contour>
      <point x="46.6161" y="674.461" type="curve"/>
      <point x="46.6161" y="691.855" type="line"/>
      <point x="178.343" y="691.855" type="line"/>
      <point x="178.343" y="674.461" type="line"/>
      <point x="156.493" y="672.662" type="line"/>
      <point x="147.753" y="671.462"/>
      <point x="144.007" y="668.463"/>
      <point x="144.007" y="661.865" type="curve" smooth="yes"/>
      <point x="144.007" y="660.066"/>
      <point x="144.007" y="657.667"/>
      <point x="145.256" y="654.668" type="curve"/>
      <point x="165.233" y="589.889"/>
      <point x="184.586" y="520.312"/>
      <point x="207.061" y="451.335" type="curve"/>
      <point x="208.31" y="451.335" type="line"/>
      <point x="280.729" y="684.658" type="line"/>
      <point x="328.175" y="684.658" type="line"/>
      <point x="353.772" y="606.684"/>
      <point x="379.368" y="529.309"/>
      <point x="406.213" y="451.335" type="curve"/>
      <point x="407.462" y="451.335" type="line"/>
      <point x="426.815" y="519.113"/>
      <point x="455.533" y="616.28"/>
      <point x="463.649" y="651.669" type="curve" smooth="yes"/>
      <point x="464.273" y="654.668"/>
      <point x="464.897" y="657.667"/>
      <point x="464.897" y="660.666" type="curve" smooth="yes"/>
      <point x="464.897" y="666.664"/>
      <point x="462.4" y="670.862"/>
      <point x="454.908" y="671.462" type="curve" smooth="yes"/>
      <point x="419.323" y="674.461" type="line"/>
      <point x="419.323" y="691.855" type="line"/>
      <point x="542.31" y="691.855" type="line"/>
      <point x="542.31" y="674.461" type="line"/>
      <point x="511.095" y="672.662"/>
      <point x="504.228" y="670.262"/>
      <point x="493.615" y="639.673" type="curve" smooth="yes"/>
      <point x="478.007" y="592.888"/>
      <point x="441.174" y="486.124"/>
      <point x="414.953" y="397.953" type="curve"/>
      <point x="367.506" y="397.953" type="line"/>
      <point x="342.534" y="474.128"/>
      <point x="316.938" y="550.302"/>
      <point x="290.717" y="626.477" type="curve"/>
      <point x="288.845" y="626.477" type="line"/>
      <point x="215.177" y="397.953" type="line"/>
      <point x="167.73" y="397.953" type="line"/>
      <point x="141.51" y="488.523"/>
      <point x="114.041" y="569.496"/>
      <point x="87.8199" y="648.67" type="curve" smooth="yes"/>
      <point x="80.3283" y="671.462"/>
      <point x="72.2124" y="673.261"/>
    </contour>
    <contour>
      <point x="46.6161" y="276.508" type="curve"/>
      <point x="46.6161" y="293.902" type="line"/>
      <point x="178.343" y="293.902" type="line"/>
      <point x="178.343" y="276.508" type="line"/>
      <point x="156.493" y="274.708" type="line"/>
      <point x="147.753" y="273.509"/>
      <point x="144.007" y="270.51"/>
      <point x="144.007" y="263.912" type="curve" smooth="yes"/>
      <point x="144.007" y="262.113"/>
      <point x="144.007" y="259.713"/>
      <point x="145.256" y="256.714" type="curve"/>
      <point x="165.233" y="191.936"/>
      <point x="184.586" y="122.359"/>
      <point x="207.061" y="53.3822" type="curve"/>
      <point x="208.31" y="53.3822" type="line"/>
      <point x="280.729" y="286.704" type="line"/>
      <point x="328.175" y="286.704" type="line"/>
      <point x="353.772" y="208.73"/>
      <point x="379.368" y="131.356"/>
      <point x="406.213" y="53.3822" type="curve"/>
      <point x="407.462" y="53.3822" type="line"/>
      <point x="426.815" y="121.16"/>
      <point x="455.533" y="218.327"/>
      <point x="463.649" y="253.715" type="curve" smooth="yes"/>
      <point x="464.273" y="256.714"/>
      <point x="464.897" y="259.713"/>
      <point x="464.897" y="262.712" type="curve" smooth="yes"/>
      <point x="464.897" y="268.71"/>
      <point x="462.4" y="272.909"/>
      <point x="454.908" y="273.509" type="curve" smooth="yes"/>
      <point x="419.323" y="276.508" type="line"/>
      <point x="419.323" y="293.902" type="line"/>
      <point x="542.31" y="293.902" type="line"/>
      <point x="542.31" y="276.508" type="line"/>
      <point x="511.095" y="274.708"/>
      <point x="504.228" y="272.309"/>
      <point x="493.615" y="241.719" type="curve" smooth="yes"/>
      <point x="478.007" y="194.935"/>
      <point x="441.174" y="88.1706"/>
      <point x="414.953" y="0" type="curve"/>
      <point x="367.506" y="0" type="line"/>
      <point x="342.534" y="76.1746"/>
      <point x="316.938" y="152.349"/>
      <point x="290.717" y="228.524" type="curve"/>
      <point x="288.845" y="228.524" type="line"/>
      <point x="215.177" y="0" type="line"/>
      <point x="167.73" y="0" type="line"/>
      <point x="141.51" y="90.5698"/>
      <point x="114.041" y="171.543"/>
      <point x="87.8199" y="250.716" type="curve" smooth="yes"/>
      <point x="80.3283" y="273.509"/>
      <point x="72.2124" y="275.308"/>
    </contour>
  </outline>
</glyph>
<glyph name="uni02AD" format="2">
  <advance width="514"/>
  <unicode hex="02AD"/>
  <outline>
    <contour>
      <point x="60" y="398" type="line"/>
      <point x="60" y="636" type="line"/>
      <point x="454" y="636" type="line"/>
      <point x="454" y="398" type="line"/>
      <point x="390" y="398" type="line"/>
      <point x="390" y="574" type="line"/>
      <point x="124" y="574" type="line"/>
      <point x="124" y="398" type="line"/>
    </contour>
    <contour>
      <point x="59.9981" y="-0.2794" type="line"/>
      <point x="59.9981" y="237.721" type="line"/>
      <point x="453.998" y="237.721" type="line"/>
      <point x="453.998" y="-0.2794" type="line"/>
      <point x="389.998" y="-0.2794" type="line"/>
      <point x="389.998" y="175.721" type="line"/>
      <point x="123.998" y="175.721" type="line"/>
      <point x="123.998" y="-0.2794" type="line"/>
    </contour>
  </outline>
</glyph>
<glyph name="uni02B4" format="2">
  <advance width="233"/>
  <unicode hex="02B4"/>
  <outline>
    <contour>
      <point x="1" y="350.24" type="curve" smooth="yes"/>
      <point x="1" y="368"/>
      <point x="15" y="383"/>
      <point x="30.3608" y="383" type="curve" smooth="yes"/>
      <point x="37.1106" y="383"/>
      <point x="43.8226" y="380.104"/>
      <point x="52.3294" y="374.671" type="curve" smooth="yes"/>
      <point x="63.4858" y="367.547"/>
      <point x="68" y="367"/>
      <point x="71.8472" y="367" type="curve" smooth="yes"/>
      <point x="92" y="367"/>
      <point x="112" y="382"/>
      <point x="112" y="428" type="curve" smooth="yes"/>
      <point x="112" y="568" type="line" smooth="yes"/>
      <point x="112" y="590"/>
      <point x="109" y="593"/>
      <point x="93" y="595" type="curve" smooth="yes"/>
      <point x="70" y="598" type="line"/>
      <point x="70" y="613" type="line"/>
      <point x="164" y="628" type="line"/>
      <point x="168" y="625" type="line"/>
      <point x="168" y="380" type="line" smooth="yes"/>
      <point x="168" y="358"/>
      <point x="172" y="355"/>
      <point x="188" y="353" type="curve" smooth="yes"/>
      <point x="211" y="350" type="line"/>
      <point x="211" y="335" type="line"/>
      <point x="119" y="320" type="line"/>
      <point x="112" y="368" type="line"/>
      <point x="72" y="333"/>
      <point x="55" y="320"/>
      <point x="33" y="320" type="curve" smooth="yes"/>
      <point x="10" y="320"/>
      <point x="1" y="336"/>
    </contour>
  </outline>
</glyph>
<glyph name="uni02B6" format="2">
  <advance width="325"/>
  <unicode hex="02B6"/>
  <outline>
    <contour>
      <point x="19" y="327" type="line"/>
      <point x="19" y="344" type="line"/>
      <point x="62" y="347"/>
      <point x="64" y="348"/>
      <point x="64" y="379" type="curve" smooth="yes"/>
      <point x="64" y="568" type="line" smooth="yes"/>
      <point x="64" y="590"/>
      <point x="61" y="593"/>
      <point x="45" y="595" type="curve" smooth="yes"/>
      <point x="22" y="598" type="line"/>
      <point x="22" y="613" type="line"/>
      <point x="116" y="628" type="line"/>
      <point x="120" y="625" type="line"/>
      <point x="120" y="487" type="line"/>
      <point x="140" y="487" type="line" smooth="yes"/>
      <point x="190" y="487"/>
      <point x="196" y="515"/>
      <point x="200.899" y="540.477" type="curve" smooth="yes"/>
      <point x="211" y="593"/>
      <point x="219" y="621"/>
      <point x="267" y="621" type="curve" smooth="yes"/>
      <point x="313" y="621" type="line"/>
      <point x="313" y="604" type="line"/>
      <point x="275" y="601"/>
      <point x="266" y="578"/>
      <point x="261.528" y="546.694" type="curve" smooth="yes"/>
      <point x="257" y="515"/>
      <point x="247" y="486"/>
      <point x="195" y="476" type="curve"/>
      <point x="195" y="475" type="line"/>
      <point x="244" y="468"/>
      <point x="281" y="441"/>
      <point x="281" y="397.506" type="curve" smooth="yes"/>
      <point x="281" y="359"/>
      <point x="252" y="327"/>
      <point x="167" y="327" type="curve" smooth="yes"/>
    </contour>
    <contour>
      <point x="120" y="368" type="line" smooth="yes"/>
      <point x="120" y="351.54"/>
      <point x="123.749" y="348.005"/>
      <point x="149.405" y="348.005" type="curve" smooth="yes"/>
      <point x="152" y="348.005" type="line" smooth="yes"/>
      <point x="183" y="348.005"/>
      <point x="219" y="359"/>
      <point x="219" y="407.445" type="curve" smooth="yes"/>
      <point x="219" y="447"/>
      <point x="195" y="465"/>
      <point x="154" y="465" type="curve" smooth="yes"/>
      <point x="120" y="465" type="line"/>
    </contour>
  </outline>
</glyph>
<glyph name="uni02BE" format="2">
  <advance width="272"/>
  <unicode hex="02BE"/>
  <outline>
    <contour>
      <point x="60" y="487" type="curve"/>
      <point x="60" y="536.017" type="line"/>
      <point x="116.749" y="536.017"/>
      <point x="156.301" y="568.69"/>
      <point x="156.301" y="622" type="curve" smooth="yes"/>
      <point x="156.301" y="675.31"/>
      <point x="116.749" y="707.983"/>
      <point x="60" y="707.983" type="curve"/>
      <point x="60" y="757" type="line"/>
      <point x="160" y="757"/>
      <point x="212" y="692"/>
      <point x="212" y="622" type="curve" smooth="yes"/>
      <point x="212" y="552"/>
      <point x="160" y="487"/>
    </contour>
  </outline>
</glyph>
<glyph name="arrowheadleftmod" format="2">
  <advance width="345"/>
  <unicode hex="02C2"/>
  <outline>
    <contour>
      <point x="46" y="594.95" type="line"/>
      <point x="46" y="667.078" type="line"/>
      <point x="298.037" y="776.884" type="line"/>
      <point x="298.037" y="713.547" type="line"/>
      <point x="100.218" y="628.736" type="line"/>
      <point x="100.218" y="632.578" type="line"/>
      <point x="298.037" y="547.612" type="line"/>
      <point x="298.037" y="483.781" type="line"/>
    </contour>
  </outline>
  <guideline angle="23.5445" x="55" y="671"/>
  <guideline angle="203.123" x="374" y="742"/>
  <guideline angle="336.701" x="100" y="637"/>
  <guideline angle="156.305" x="374" y="451"/>
  <guideline angle="90" x="46" y="0"/>
  <guideline angle="90" x="100" y="0"/>
  <guideline angle="90" x="298" y="0"/>
</glyph>
<glyph name="circumflex" format="2">
  <advance width="400"/>
  <unicode hex="02C6"/>
  <outline>
    <contour>
      <point x="47" y="562" type="line"/>
      <point x="164" y="695" type="line"/>
      <point x="177" y="709"/>
      <point x="188" y="720"/>
      <point x="200" y="720" type="curve" smooth="yes"/>
      <point x="212" y="720"/>
      <point x="224" y="708"/>
      <point x="236" y="695" type="curve" smooth="yes"/>
      <point x="353" y="562" type="line"/>
      <point x="334" y="541" type="line"/>
      <point x="231" y="618" type="line" smooth="yes"/>
      <point x="220" y="626"/>
      <point x="209" y="633"/>
      <point x="200" y="633" type="curve" smooth="yes"/>
      <point x="192" y="633"/>
      <point x="180" y="626"/>
      <point x="169" y="618" type="curve" smooth="yes"/>
      <point x="66" y="541" type="line"/>
    </contour>
  </outline>
</glyph>
<glyph name="caron" format="2">
  <advance width="400"/>
  <unicode hex="02C7"/>
  <outline>
    <contour>
      <point x="47" y="699" type="line"/>
      <point x="66" y="720" type="line"/>
      <point x="169" y="643" type="line" smooth="yes"/>
      <point x="180" y="635"/>
      <point x="192" y="628"/>
      <point x="200" y="628" type="curve" smooth="yes"/>
      <point x="209" y="628"/>
      <point x="220" y="635"/>
      <point x="231" y="643" type="curve" smooth="yes"/>
      <point x="334" y="720" type="line"/>
      <point x="353" y="699" type="line"/>
      <point x="236" y="566" type="line" smooth="yes"/>
      <point x="224" y="553"/>
      <point x="212" y="541"/>
      <point x="200" y="541" type="curve" smooth="yes"/>
      <point x="188" y="541"/>
      <point x="177" y="552"/>
      <point x="164" y="566" type="curve"/>
    </contour>
  </outline>
</glyph>
<glyph name="uni02D1" format="2">
  <advance width="265"/>
  <unicode hex="02D1"/>
  <outline>
    <contour>
      <point x="65" y="490" type="line"/>
      <point x="200" y="490" type="line"/>
      <point x="133" y="353" type="line"/>
      <point x="132" y="353" type="line"/>
    </contour>
  </outline>
</glyph>
<glyph name="uni02D7" format="2">
  <advance width="400"/>
  <unicode hex="02D7"/>
  <outline>
    <contour>
      <point x="58" y="212" type="line"/>
      <point x="58" y="287" type="line"/>
      <point x="77" y="287" type="line"/>
      <point x="80" y="272"/>
      <point x="83" y="267"/>
      <point x="103" y="267" type="curve" smooth="yes"/>
      <point x="297" y="267" type="line" smooth="yes"/>
      <point x="317" y="267"/>
      <point x="320" y="272"/>
      <point x="323" y="287" type="curve"/>
      <point x="342" y="287" type="line"/>
      <point x="342" y="212" type="line"/>
      <point x="323" y="212" type="line"/>
      <point x="320" y="227"/>
      <point x="317" y="232"/>
      <point x="297" y="232" type="curve" smooth="yes"/>
      <point x="103" y="232" type="line" smooth="yes"/>
      <point x="83" y="232"/>
      <point x="80" y="227"/>
      <point x="77" y="212" type="curve"/>
    </contour>
  </outline>
</glyph>
<glyph name="ring" format="2">
  <advance width="400"/>
  <unicode hex="02DA"/>
  <anchor x="200" y="780" name="top"/>
  <outline>
    <contour>
      <point x="92" y="650" type="curve" smooth="yes"/>
      <point x="92" y="714"/>
      <point x="146" y="752"/>
      <point x="200" y="752" type="curve" smooth="yes"/>
      <point x="254" y="752"/>
      <point x="308" y="714"/>
      <point x="308" y="650" type="curve" smooth="yes"/>
      <point x="308" y="586"/>
      <point x="254" y="548"/>
      <point x="200" y="548" type="curve" smooth="yes"/>
      <point x="146" y="548"/>
      <point x="92" y="586"/>
    </contour>
    <contour>
      <point x="150" y="650" type="curve" smooth="yes"/>
      <point x="150" y="617"/>
      <point x="172" y="597"/>
      <point x="200" y="597" type="curve" smooth="yes"/>
      <point x="228" y="597"/>
      <point x="250" y="617"/>
      <point x="250" y="650" type="curve" smooth="yes"/>
      <point x="250" y="683"/>
      <point x="228" y="703"/>
      <point x="200" y="703" type="curve" smooth="yes"/>
      <point x="172" y="703"/>
      <point x="150" y="683"/>
    </contour>
  </outline>
</glyph>
<glyph name="tilde" format="2">
  <advance width="400"/>
  <unicode hex="02DC"/>
  <outline>
    <contour>
      <point x="200" y="660" type="line"/>
      <point x="230.884" y="646.869"/>
      <point x="263.519" y="639"/>
      <point x="287.087" y="639" type="curve" smooth="yes"/>
      <point x="320.087" y="639"/>
      <point x="337.087" y="655"/>
      <point x="359.087" y="690" type="curve"/>
      <point x="378.087" y="677" type="line"/>
      <point x="359.087" y="637.033"/>
      <point x="330.087" y="580"/>
      <point x="266.087" y="580" type="curve" smooth="yes"/>
      <point x="249.076" y="580"/>
      <point x="228.133" y="584.466"/>
      <point x="200.096" y="594.074" type="curve"/>
    </contour>
    <contour>
      <point x="200.087" y="594" type="line"/>
      <point x="169.203" y="607.131"/>
      <point x="136.568" y="615"/>
      <point x="113" y="615" type="curve" smooth="yes"/>
      <point x="80" y="615"/>
      <point x="63" y="599"/>
      <point x="41" y="564" type="curve"/>
      <point x="22" y="577" type="line"/>
      <point x="41" y="616.967"/>
      <point x="70" y="674"/>
      <point x="134" y="674" type="curve" smooth="yes"/>
      <point x="151.011" y="674"/>
      <point x="171.954" y="669.534"/>
      <point x="199.991" y="659.926" type="curve"/>
    </contour>
  </outline>
</glyph>
<glyph name="uni02DE" format="2">
  <advance width="226"/>
  <unicode hex="02DE"/>
  <outline>
    <contour>
      <point x="-16" y="357" type="line"/>
      <point x="153" y="430" type="line"/>
      <point x="167" y="415" type="line"/>
      <point x="153" y="397"/>
      <point x="137" y="364"/>
      <point x="137" y="333.516" type="curve" smooth="yes"/>
      <point x="137" y="305.197"/>
      <point x="151.543" y="290"/>
      <point x="180.456" y="290" type="curve" smooth="yes"/>
      <point x="194.917" y="290"/>
      <point x="212.028" y="293.653"/>
      <point x="227" y="299" type="curve"/>
      <point x="236" y="281" type="line"/>
      <point x="209.748" y="252.873"/>
      <point x="180.536" y="238"/>
      <point x="151.099" y="238" type="curve" smooth="yes"/>
      <point x="111.485" y="238"/>
      <point x="83" y="264.53"/>
      <point x="83" y="302.043" type="curve" smooth="yes"/>
      <point x="83" y="330.513"/>
      <point x="99.6429" y="360.585"/>
      <point x="131.943" y="389.981" type="curve"/>
      <point x="137.955" y="384.4" type="line"/>
      <point x="-1" y="321" type="line"/>
    </contour>
  </outline>
</glyph>
<glyph name="uni02E1" format="2">
  <advance width="167"/>
  <unicode hex="02E1"/>
  <outline>
    <contour>
      <point x="12" y="327" type="line"/>
      <point x="12" y="344" type="line"/>
      <point x="55" y="347"/>
      <point x="57" y="348"/>
      <point x="57" y="379" type="curve" smooth="yes"/>
      <point x="57" y="712" type="line" smooth="yes"/>
      <point x="57" y="735"/>
      <point x="54" y="738"/>
      <point x="38" y="740" type="curve"/>
      <point x="15" y="742" type="line"/>
      <point x="15" y="757" type="line"/>
      <point x="109" y="772" type="line"/>
      <point x="113" y="769" type="line"/>
      <point x="113" y="379" type="line" smooth="yes"/>
      <point x="113" y="348"/>
      <point x="115" y="347"/>
      <point x="158" y="344" type="curve"/>
      <point x="158" y="327" type="line"/>
    </contour>
  </outline>
</glyph>
<glyph name="uni02E4" format="2">
  <advance width="271"/>
  <unicode hex="02E4"/>
  <outline>
    <contour>
      <point x="17" y="668" type="curve" smooth="yes"/>
      <point x="17" y="727"/>
      <point x="49" y="772"/>
      <point x="136" y="772" type="curve" smooth="yes"/>
      <point x="225" y="772"/>
      <point x="251" y="730"/>
      <point x="251" y="707" type="curve" smooth="yes"/>
      <point x="251" y="687"/>
      <point x="231" y="676"/>
      <point x="220" y="676" type="curve" smooth="yes"/>
      <point x="212" y="676"/>
      <point x="204" y="680"/>
      <point x="201" y="689" type="curve"/>
      <point x="189" y="733"/>
      <point x="173" y="751"/>
      <point x="139" y="751" type="curve" smooth="yes"/>
      <point x="92" y="751"/>
      <point x="76" y="713"/>
      <point x="76" y="668" type="curve" smooth="yes"/>
      <point x="76" y="588"/>
      <point x="172" y="569"/>
      <point x="172" y="464" type="curve" smooth="yes"/>
      <point x="172" y="379" type="line" smooth="yes"/>
      <point x="172" y="348"/>
      <point x="174" y="347"/>
      <point x="217" y="344" type="curve"/>
      <point x="217" y="327" type="line"/>
      <point x="71" y="327" type="line"/>
      <point x="71" y="344" type="line"/>
      <point x="114" y="347"/>
      <point x="116" y="348"/>
      <point x="116" y="379" type="curve" smooth="yes"/>
      <point x="116" y="491" type="line" smooth="yes"/>
      <point x="116" y="578"/>
      <point x="17" y="597"/>
    </contour>
  </outline>
</glyph>
<glyph name="uni02E7" format="2">
  <advance width="410"/>
  <unicode hex="02E7"/>
  <outline>
    <contour>
      <point x="33" y="342" type="line"/>
      <point x="33" y="399" type="line"/>
      <point x="282" y="399" type="line"/>
      <point x="282" y="742" type="line"/>
      <point x="342" y="742" type="line"/>
      <point x="342" y="-1" type="line"/>
      <point x="282" y="-1" type="line"/>
      <point x="282" y="342" type="line"/>
    </contour>
  </outline>
</glyph>
<glyph name="uni02F6" format="2">
  <advance width="430"/>
  <unicode hex="02F6"/>
  <outline>
    <contour>
      <point x="74" y="766" type="line"/>
      <point x="144" y="855" type="line" smooth="yes"/>
      <point x="158.965" y="874.027"/>
      <point x="176" y="894"/>
      <point x="195" y="894" type="curve" smooth="yes"/>
      <point x="217" y="894"/>
      <point x="241" y="867"/>
      <point x="241" y="845" type="curve" smooth="yes"/>
      <point x="241" y="830"/>
      <point x="230.45" y="820.21"/>
      <point x="194" y="800" type="curve" smooth="yes"/>
      <point x="93" y="744" type="line"/>
    </contour>
    <contour>
      <point x="244" y="766" type="line"/>
      <point x="314" y="855" type="line" smooth="yes"/>
      <point x="328.965" y="874.027"/>
      <point x="346" y="894"/>
      <point x="365" y="894" type="curve" smooth="yes"/>
      <point x="387" y="894"/>
      <point x="411" y="867"/>
      <point x="411" y="845" type="curve" smooth="yes"/>
      <point x="411" y="830"/>
      <point x="400.45" y="820.21"/>
      <point x="364" y="800" type="curve" smooth="yes"/>
      <point x="263" y="744" type="line"/>
    </contour>
  </outline>
</glyph>
<glyph name="acutecomb" format="2">
  <unicode hex="0301"/>
  <anchor x="-230" y="542" name="_top"/>
  <anchor x="-181" y="750" name="top"/>
  <outline>
    <contour>
      <point x="-271" y="562" type="line"/>
      <point x="-152" y="682" type="line" smooth="yes"/>
      <point x="-122" y="713"/>
      <point x="-105" y="723"/>
      <point x="-92" y="723" type="curve" smooth="yes"/>
      <point x="-73" y="723"/>
      <point x="-49" y="700"/>
      <point x="-49" y="680" type="curve" smooth="yes"/>
      <point x="-49" y="659"/>
      <point x="-75" y="642"/>
      <point x="-105" y="626" type="curve" smooth="yes"/>
      <point x="-256" y="542" type="line"/>
    </contour>
  </outline>
</glyph>
<glyph name="overlinecomb" format="2">
  <unicode hex="0305"/>
  <outline>
    <contour>
      <point x="-546" y="606" type="line"/>
      <point x="-546" y="656" type="line"/>
      <point x="-46" y="656" type="line"/>
      <point x="-46" y="606" type="line"/>
    </contour>
  </outline>
</glyph>
<glyph name="uni0308" format="2">
  <unicode hex="0308"/>
  <anchor x="-214" y="570" name="_top"/>
  <anchor x="-214" y="720" name="top"/>
  <outline>
    <contour>
      <point x="-380" y="627" type="curve" smooth="yes"/>
      <point x="-380" y="656"/>
      <point x="-359" y="683"/>
      <point x="-320" y="683" type="curve" smooth="yes"/>
      <point x="-281" y="683"/>
      <point x="-260" y="656"/>
      <point x="-260" y="627" type="curve" smooth="yes"/>
      <point x="-260" y="598"/>
      <point x="-281" y="570"/>
      <point x="-320" y="570" type="curve" smooth="yes"/>
      <point x="-359" y="570"/>
      <point x="-380" y="598"/>
    </contour>
    <contour>
      <point x="-172" y="627" type="curve" smooth="yes"/>
      <point x="-172" y="656"/>
      <point x="-151" y="683"/>
      <point x="-112" y="683" type="curve" smooth="yes"/>
      <point x="-73" y="683"/>
      <point x="-52" y="656"/>
      <point x="-52" y="627" type="curve" smooth="yes"/>
      <point x="-52" y="598"/>
      <point x="-73" y="570"/>
      <point x="-112" y="570" type="curve" smooth="yes"/>
      <point x="-151" y="570"/>
      <point x="-172" y="598"/>
    </contour>
  </outline>
</glyph>
<glyph name="uni0315" format="2">
  <unicode hex="0315"/>
  <outline>
    <contour>
      <point x="-103" y="549" type="line"/>
      <point x="-74" y="579"/>
      <point x="-58" y="601"/>
      <point x="-58" y="627.338" type="curve" smooth="yes"/>
      <point x="-58" y="646.629"/>
      <point x="-65.5832" y="659.923"/>
      <point x="-74.7168" y="672.571" type="curve" smooth="yes"/>
      <point x="-82.644" y="683.549"/>
      <point x="-89" y="694.828"/>
      <point x="-89" y="709.079" type="curve" smooth="yes"/>
      <point x="-89" y="732"/>
      <point x="-71" y="751"/>
      <point x="-44.9919" y="751" type="curve" smooth="yes"/>
      <point x="-11.3137" y="751"/>
      <point x="9" y="721"/>
      <point x="9" y="680.256" type="curve" smooth="yes"/>
      <point x="9" y="617"/>
      <point x="-39.9621" y="574"/>
      <point x="-87" y="534" type="curve"/>
    </contour>
  </outline>
</glyph>
<glyph name="uni031A" format="2">
  <unicode hex="031A"/>
  <outline>
    <contour>
      <point x="-135.804" y="769" type="line"/>
      <point x="-135.804" y="804" type="line"/>
      <point x="66.1956" y="804" type="line"/>
      <point x="66.1956" y="594" type="line"/>
      <point x="26.1956" y="594" type="line"/>
      <point x="26.1956" y="769" type="line"/>
    </contour>
  </outline>
</glyph>
<glyph name="palatalhookcomb" format="2">
  <unicode hex="0321"/>
  <outline>
    <contour>
      <point x="48" y="99.8823" type="line"/>
      <point x="48" y="-25" type="line" smooth="yes"/>
      <point x="48" y="-126.096"/>
      <point x="25.2591" y="-242"/>
      <point x="-104.013" y="-242" type="curve" smooth="yes"/>
      <point x="-179" y="-242"/>
      <point x="-223" y="-203"/>
      <point x="-223" y="-166.552" type="curve" smooth="yes"/>
      <point x="-223" y="-138"/>
      <point x="-196" y="-122"/>
      <point x="-174.795" y="-122" type="curve" smooth="yes"/>
      <point x="-161" y="-122"/>
      <point x="-153.513" y="-128.771"/>
      <point x="-149" y="-139" type="curve" smooth="yes"/>
      <point x="-123.507" y="-196.785"/>
      <point x="-102" y="-207"/>
      <point x="-84.4619" y="-207" type="curve" smooth="yes"/>
      <point x="-68" y="-207"/>
      <point x="-39" y="-198"/>
      <point x="-39" y="-112.521" type="curve" smooth="yes"/>
      <point x="-39" y="-101.226"/>
      <point x="-39.5063" y="-86.4167"/>
      <point x="-41.9735" y="-66.6964" type="curve" smooth="yes"/>
      <point x="-44.4823" y="-46.6439"/>
      <point x="-46" y="-21.4822"/>
      <point x="-46" y="0" type="curve" smooth="yes"/>
      <point x="-46" y="99.8823" type="line"/>
    </contour>
  </outline>
  <guideline angle="0" x="0" y="100"/>
</glyph>
<glyph name="uni0324" format="2">
  <unicode hex="0324"/>
  <outline>
    <contour>
      <point x="-364" y="-124" type="curve" smooth="yes"/>
      <point x="-364" y="-95"/>
      <point x="-343" y="-68"/>
      <point x="-304" y="-68" type="curve" smooth="yes"/>
      <point x="-265" y="-68"/>
      <point x="-244" y="-95"/>
      <point x="-244" y="-124" type="curve" smooth="yes"/>
      <point x="-244" y="-153"/>
      <point x="-265" y="-181"/>
      <point x="-304" y="-181" type="curve" smooth="yes"/>
      <point x="-343" y="-181"/>
      <point x="-364" y="-153"/>
    </contour>
    <contour>
      <point x="-156" y="-124" type="curve" smooth="yes"/>
      <point x="-156" y="-95"/>
      <point x="-135" y="-68"/>
      <point x="-96" y="-68" type="curve" smooth="yes"/>
      <point x="-57" y="-68"/>
      <point x="-36" y="-95"/>
      <point x="-36" y="-124" type="curve" smooth="yes"/>
      <point x="-36" y="-153"/>
      <point x="-57" y="-181"/>
      <point x="-96" y="-181" type="curve" smooth="yes"/>
      <point x="-135" y="-181"/>
      <point x="-156" y="-153"/>
    </contour>
  </outline>
</glyph>
<glyph name="uni032B" format="2">
  <unicode hex="032B"/>
  <outline>
    <contour>
      <point x="-225.333" y="-59.705" type="line"/>
      <point x="-225.333" y="-101.361" type="line" smooth="yes"/>
      <point x="-225.333" y="-161.208"/>
      <point x="-258.671" y="-205"/>
      <point x="-329.102" y="-205" type="curve" smooth="yes"/>
      <point x="-397.533" y="-205"/>
      <point x="-427.478" y="-163.66"/>
      <point x="-437.118" y="-125.665" type="curve"/>
      <point x="-411.481" y="-126" type="line"/>
      <point x="-417.405" y="-165.332"/>
      <point x="-457.97" y="-205"/>
      <point x="-528.115" y="-205" type="curve" smooth="yes"/>
      <point x="-600.078" y="-205"/>
      <point x="-638.345" y="-161.186"/>
      <point x="-638.345" y="-101.361" type="curve" smooth="yes"/>
      <point x="-638.345" y="-59.705" type="line"/>
      <point x="-597.846" y="-59.705" type="line"/>
      <point x="-597.846" y="-101.361" type="line" smooth="yes"/>
      <point x="-597.846" y="-145.115"/>
      <point x="-572.812" y="-175"/>
      <point x="-517.321" y="-175" type="curve" smooth="yes"/>
      <point x="-467.112" y="-175"/>
      <point x="-441.888" y="-150.534"/>
      <point x="-441.888" y="-101.361" type="curve" smooth="yes"/>
      <point x="-441.888" y="-59.705" type="line"/>
      <point x="-401.956" y="-59.705" type="line"/>
      <point x="-401.956" y="-101.361" type="line" smooth="yes"/>
      <point x="-401.956" y="-150.567"/>
      <point x="-373.372" y="-175"/>
      <point x="-331.025" y="-175" type="curve" smooth="yes"/>
      <point x="-284.175" y="-175"/>
      <point x="-265.083" y="-145.096"/>
      <point x="-265.083" y="-101.361" type="curve" smooth="yes"/>
      <point x="-265.083" y="-59.705" type="line"/>
    </contour>
  </outline>
</glyph>
<glyph name="uni032F" format="2">
  <unicode hex="032F"/>
  <outline>
    <contour>
      <point x="-337" y="-277" type="line"/>
      <point x="-337" y="-214"/>
      <point x="-325" y="-141"/>
      <point x="-200" y="-141" type="curve" smooth="yes"/>
      <point x="-75" y="-141"/>
      <point x="-63" y="-214"/>
      <point x="-63" y="-277" type="curve"/>
      <point x="-87" y="-277" type="line"/>
      <point x="-89" y="-256"/>
      <point x="-107" y="-206"/>
      <point x="-200" y="-206" type="curve" smooth="yes"/>
      <point x="-293" y="-206"/>
      <point x="-311" y="-256"/>
      <point x="-313" y="-277" type="curve"/>
    </contour>
  </outline>
</glyph>
<glyph name="uni0338" format="2">
  <unicode hex="0338"/>
  <outline>
    <contour>
      <point x="-368" y="-15" type="line"/>
      <point x="-158" y="707" type="line"/>
      <point x="-91" y="707" type="line"/>
      <point x="-301" y="-15" type="line"/>
    </contour>
  </outline>
</glyph>
<glyph name="uni0344" format="2">
  <unicode hex="0344"/>
  <outline>
    <component base="dieresis" xOffset="-450"/>
    <contour>
      <point x="-270.389" y="646.558" type="line"/>
      <point x="-242.544" y="794.318" type="line" smooth="yes"/>
      <point x="-232.585" y="847.167"/>
      <point x="-220.95" y="858.894"/>
      <point x="-200.731" y="858.502" type="curve" smooth="yes"/>
      <point x="-182.067" y="858.14"/>
      <point x="-158.969" y="847.508"/>
      <point x="-160.412" y="824.906" type="curve" smooth="yes"/>
      <point x="-161.201" y="812.554"/>
      <point x="-169.426" y="794.974"/>
      <point x="-178.826" y="776.582" type="curve" smooth="yes"/>
      <point x="-247.808" y="641.601" type="line"/>
    </contour>
  </outline>
</glyph>
<glyph name="Kappa" format="2">
  <advance width="658"/>
  <unicode hex="039A"/>
  <outline>
    <contour>
      <point x="35" y="0" type="line"/>
      <point x="35" y="29" type="line"/>
      <point x="123" y="35"/>
      <point x="125" y="37"/>
      <point x="125" y="93" type="curve" smooth="yes"/>
      <point x="125" y="599" type="line" smooth="yes"/>
      <point x="125" y="655"/>
      <point x="123" y="657"/>
      <point x="35" y="663" type="curve"/>
      <point x="35" y="692" type="line"/>
      <point x="314" y="692" type="line"/>
      <point x="314" y="663" type="line"/>
      <point x="227" y="657"/>
      <point x="224" y="655"/>
      <point x="224" y="599" type="curve" smooth="yes"/>
      <point x="224" y="363" type="line"/>
      <point x="296" y="437"/>
      <point x="409" y="555"/>
      <point x="467" y="620" type="curve"/>
      <point x="478" y="633"/>
      <point x="483" y="642"/>
      <point x="483" y="648" type="curve" smooth="yes"/>
      <point x="483" y="655"/>
      <point x="477" y="659"/>
      <point x="466" y="660" type="curve" smooth="yes"/>
      <point x="428" y="663" type="line"/>
      <point x="428" y="692" type="line"/>
      <point x="671" y="692" type="line"/>
      <point x="671" y="663" type="line"/>
      <point x="586" y="658"/>
      <point x="566" y="647"/>
      <point x="514" y="601" type="curve" smooth="yes"/>
      <point x="453" y="548"/>
      <point x="376" y="472"/>
      <point x="310" y="399" type="curve"/>
      <point x="378" y="297"/>
      <point x="462" y="196"/>
      <point x="551" y="101" type="curve" smooth="yes"/>
      <point x="594" y="56"/>
      <point x="626" y="28"/>
      <point x="667" y="19" type="curve"/>
      <point x="667" y="-5" type="line"/>
      <point x="604" y="-2" type="line" smooth="yes"/>
      <point x="542" y="0"/>
      <point x="489" y="18"/>
      <point x="431" y="84" type="curve" smooth="yes"/>
      <point x="353" y="172"/>
      <point x="284" y="266"/>
      <point x="227" y="353" type="curve"/>
      <point x="226" y="357" type="line"/>
      <point x="224" y="357" type="line"/>
      <point x="224" y="93" type="line" smooth="yes"/>
      <point x="224" y="37"/>
      <point x="227" y="35"/>
      <point x="314" y="29" type="curve"/>
      <point x="314" y="0" type="line"/>
    </contour>
  </outline>
</glyph>
<glyph name="Sigma" format="2">
  <advance width="669"/>
  <unicode hex="03A3"/>
  <outline>
    <contour>
      <point x="47" y="0" type="line"/>
      <point x="47" y="29" type="line"/>
      <point x="335" y="353" type="line"/>
      <point x="68" y="663" type="line"/>
      <point x="68" y="692" type="line"/>
      <point x="566" y="692" type="line"/>
      <point x="595" y="557" type="line"/>
      <point x="566" y="557" type="line"/>
      <point x="536" y="632"/>
      <point x="508" y="648"/>
      <point x="443" y="648" type="curve" smooth="yes"/>
      <point x="209" y="648" type="line"/>
      <point x="429" y="397" type="line"/>
      <point x="171" y="96" type="line"/>
      <point x="497" y="96" type="line" smooth="yes"/>
      <point x="545" y="96"/>
      <point x="564" y="103"/>
      <point x="597" y="163" type="curve"/>
      <point x="626" y="163" type="line"/>
      <point x="588" y="0" type="line"/>
    </contour>
  </outline>
</glyph>
<glyph name="Psi" format="2">
  <advance width="873"/>
  <unicode hex="03A8"/>
  <outline>
    <contour>
      <point x="49" y="677" type="curve"/>
      <point x="49" y="677"/>
      <point x="57" y="702"/>
      <point x="57" y="701" type="curve"/>
      <point x="90" y="698"/>
      <point x="171" y="688"/>
      <point x="185" y="646" type="curve" smooth="yes"/>
      <point x="223" y="537"/>
      <point x="206" y="422"/>
      <point x="246" y="366" type="curve" smooth="yes"/>
      <point x="280" y="318"/>
      <point x="340" y="298"/>
      <point x="384" y="298" type="curve"/>
      <point x="384" y="597" type="line" smooth="yes"/>
      <point x="384" y="658"/>
      <point x="383" y="663"/>
      <point x="287" y="663" type="curve"/>
      <point x="287" y="692" type="line"/>
      <point x="580" y="692" type="line"/>
      <point x="580" y="663" type="line"/>
      <point x="485" y="663"/>
      <point x="484" y="658"/>
      <point x="484" y="593" type="curve" smooth="yes"/>
      <point x="484" y="298" type="line"/>
      <point x="528" y="298"/>
      <point x="588" y="318"/>
      <point x="622" y="366" type="curve" smooth="yes"/>
      <point x="662" y="422"/>
      <point x="644" y="537"/>
      <point x="682" y="646" type="curve" smooth="yes"/>
      <point x="696" y="688"/>
      <point x="777" y="698"/>
      <point x="810" y="701" type="curve"/>
      <point x="810" y="702"/>
      <point x="818" y="677"/>
      <point x="818" y="677" type="curve"/>
      <point x="737" y="639"/>
      <point x="784" y="514"/>
      <point x="729" y="405" type="curve" smooth="yes"/>
      <point x="688" y="323"/>
      <point x="587" y="262"/>
      <point x="484" y="262" type="curve"/>
      <point x="484" y="86" type="line" smooth="yes"/>
      <point x="484" y="34"/>
      <point x="498" y="29"/>
      <point x="580" y="29" type="curve"/>
      <point x="580" y="0" type="line"/>
      <point x="287" y="0" type="line"/>
      <point x="287" y="29" type="line"/>
      <point x="371" y="29"/>
      <point x="384" y="33"/>
      <point x="384" y="89" type="curve" smooth="yes"/>
      <point x="384" y="262" type="line"/>
      <point x="280" y="262"/>
      <point x="188" y="323"/>
      <point x="147" y="405" type="curve" smooth="yes"/>
      <point x="92" y="514"/>
      <point x="130" y="639"/>
    </contour>
  </outline>
</glyph>
<glyph name="gamma" format="2">
  <advance width="512"/>
  <unicode hex="03B3"/>
  <outline>
    <contour>
      <point x="45" y="463" type="line"/>
      <point x="55" y="475"/>
      <point x="85" y="502"/>
      <point x="130" y="502" type="curve" smooth="yes"/>
      <point x="201" y="502"/>
      <point x="247" y="451"/>
      <point x="272" y="377" type="curve" smooth="yes"/>
      <point x="297" y="302"/>
      <point x="311" y="199"/>
      <point x="321" y="122" type="curve"/>
      <point x="350" y="249"/>
      <point x="407" y="504"/>
      <point x="502" y="504" type="curve" smooth="yes"/>
      <point x="547" y="504"/>
      <point x="561" y="489"/>
      <point x="561" y="469" type="curve" smooth="yes"/>
      <point x="561" y="404"/>
      <point x="498" y="430"/>
      <point x="446" y="352" type="curve" smooth="yes"/>
      <point x="413" y="303"/>
      <point x="356" y="113"/>
      <point x="337" y="30" type="curve"/>
      <point x="337" y="30"/>
      <point x="357" y="-161"/>
      <point x="357" y="-207" type="curve" smooth="yes"/>
      <point x="357" y="-221"/>
      <point x="307" y="-247"/>
      <point x="275" y="-247" type="curve" smooth="yes"/>
      <point x="255" y="-247"/>
      <point x="249" y="-243"/>
      <point x="249" y="-238" type="curve" smooth="yes"/>
      <point x="249" y="-193"/>
      <point x="262" y="-64"/>
      <point x="278" y="14" type="curve"/>
      <point x="265" y="90"/>
      <point x="242" y="183"/>
      <point x="212" y="268" type="curve" smooth="yes"/>
      <point x="174" y="374"/>
      <point x="130" y="448"/>
      <point x="89" y="448" type="curve" smooth="yes"/>
      <point x="76" y="448"/>
      <point x="66" y="446"/>
      <point x="58" y="441" type="curve"/>
    </contour>
  </outline>
</glyph>
<glyph name="epsilon" format="2">
  <advance width="485"/>
  <unicode hex="03B5"/>
  <anchor x="240" y="533" name="top"/>
  <outline>
    <contour>
      <point x="36" y="148" type="curve" smooth="yes"/>
      <point x="36" y="215"/>
      <point x="76" y="262"/>
      <point x="140" y="273" type="curve"/>
      <point x="87" y="283"/>
      <point x="54" y="321"/>
      <point x="54" y="372" type="curve" smooth="yes"/>
      <point x="54" y="451"/>
      <point x="132" y="502"/>
      <point x="255" y="502" type="curve" smooth="yes"/>
      <point x="346" y="502"/>
      <point x="421" y="474"/>
      <point x="421" y="434" type="curve" smooth="yes"/>
      <point x="421" y="411"/>
      <point x="395" y="384"/>
      <point x="371" y="384" type="curve" smooth="yes"/>
      <point x="354" y="384"/>
      <point x="338" y="397"/>
      <point x="328" y="419" type="curve" smooth="yes"/>
      <point x="313" y="452"/>
      <point x="284" y="467"/>
      <point x="232" y="467" type="curve" smooth="yes"/>
      <point x="180" y="467"/>
      <point x="143" y="426"/>
      <point x="143" y="369" type="curve" smooth="yes"/>
      <point x="143" y="319"/>
      <point x="171" y="287"/>
      <point x="216" y="287" type="curve" smooth="yes"/>
      <point x="231" y="287"/>
      <point x="247" y="290"/>
      <point x="259" y="294" type="curve"/>
      <point x="275" y="298"/>
      <point x="287" y="299"/>
      <point x="295" y="299" type="curve" smooth="yes"/>
      <point x="317" y="299"/>
      <point x="326" y="290"/>
      <point x="326" y="270" type="curve" smooth="yes"/>
      <point x="326" y="251"/>
      <point x="317" y="243"/>
      <point x="294" y="243" type="curve" smooth="yes"/>
      <point x="282" y="243"/>
      <point x="275" y="245"/>
      <point x="268" y="247" type="curve"/>
      <point x="260" y="250"/>
      <point x="252" y="252"/>
      <point x="237" y="252" type="curve" smooth="yes"/>
      <point x="176" y="252"/>
      <point x="140" y="218"/>
      <point x="140" y="162" type="curve" smooth="yes"/>
      <point x="140" y="93"/>
      <point x="193" y="47"/>
      <point x="271" y="47" type="curve" smooth="yes"/>
      <point x="326" y="47"/>
      <point x="377" y="69"/>
      <point x="420" y="111" type="curve"/>
      <point x="444" y="101" type="line"/>
      <point x="409" y="28"/>
      <point x="337" y="-12"/>
      <point x="240" y="-12" type="curve" smooth="yes"/>
      <point x="117" y="-12"/>
      <point x="36" y="52"/>
    </contour>
  </outline>
</glyph>
<glyph name="theta" format="2">
  <advance width="542"/>
  <unicode hex="03B8"/>
  <outline>
    <contour>
      <point x="46" y="364" type="curve" smooth="yes"/>
      <point x="46" y="537"/>
      <point x="81" y="742"/>
      <point x="277" y="742" type="curve" smooth="yes"/>
      <point x="473" y="742"/>
      <point x="508" y="537"/>
      <point x="508" y="364" type="curve" smooth="yes"/>
      <point x="508" y="172"/>
      <point x="467" y="-13"/>
      <point x="277" y="-13" type="curve" smooth="yes"/>
      <point x="87" y="-13"/>
      <point x="46" y="172"/>
    </contour>
    <contour>
      <point x="147" y="358" type="line"/>
      <point x="147" y="240"/>
      <point x="154" y="17"/>
      <point x="277" y="17" type="curve" smooth="yes"/>
      <point x="400" y="17"/>
      <point x="407" y="240"/>
      <point x="407" y="358" type="curve"/>
    </contour>
    <contour>
      <point x="147" y="394" type="curve"/>
      <point x="407" y="394" type="line"/>
      <point x="407" y="482"/>
      <point x="402" y="709"/>
      <point x="277" y="709" type="curve" smooth="yes"/>
      <point x="152" y="709"/>
      <point x="147" y="479"/>
    </contour>
  </outline>
</glyph>
<glyph name="kappa" format="2">
  <advance width="584"/>
  <unicode hex="03BA"/>
  <outline>
    <contour>
      <point x="44" y="450" type="line"/>
      <point x="44" y="480.455" type="line"/>
      <point x="189" y="505" type="line"/>
      <point x="199" y="495.874" type="line"/>
      <point x="199" y="264" type="line"/>
      <point x="215" y="285" type="line" smooth="yes"/>
      <point x="295" y="386"/>
      <point x="377.317" y="490"/>
      <point x="418" y="490" type="curve" smooth="yes"/>
      <point x="526" y="490" type="line"/>
      <point x="526" y="455" type="line"/>
      <point x="437.687" y="455.248"/>
      <point x="398.978" y="421.09"/>
      <point x="340.714" y="361.879" type="curve" smooth="yes"/>
      <point x="269" y="289" type="line"/>
      <point x="297.509" y="255.526" type="line" smooth="yes"/>
      <point x="400.021" y="134.138"/>
      <point x="486.816" y="34.1692"/>
      <point x="541" y="25" type="curve"/>
      <point x="541" y="-1.88478" type="line"/>
      <point x="519.828" y="-1.88478" type="line" smooth="yes"/>
      <point x="413.795" y="-1.88478"/>
      <point x="380.473" y="22.9183"/>
      <point x="327" y="86" type="curve" smooth="yes"/>
      <point x="199" y="237" type="line"/>
      <point x="199" y="0" type="line"/>
      <point x="105" y="0" type="line"/>
      <point x="105" y="427" type="line" smooth="yes"/>
      <point x="105" y="435"/>
      <point x="96" y="443"/>
      <point x="81" y="445" type="curve" smooth="yes"/>
    </contour>
  </outline>
</glyph>
<glyph name="lambda" format="2">
  <advance width="578"/>
  <unicode hex="03BB"/>
  <outline>
    <contour>
      <point x="10" y="-6" type="line"/>
      <point x="96" y="156"/>
      <point x="176" y="315"/>
      <point x="240" y="473" type="curve"/>
      <point x="242" y="477"/>
      <point x="242.218" y="479.012"/>
      <point x="242" y="481" type="curve" smooth="yes"/>
      <point x="241.825" y="482.598"/>
      <point x="242.058" y="484.328"/>
      <point x="241" y="488" type="curve" smooth="yes"/>
      <point x="208.166" y="601.944"/>
      <point x="177" y="688"/>
      <point x="130.143" y="688" type="curve" smooth="yes"/>
      <point x="123" y="688"/>
      <point x="113" y="686"/>
      <point x="105" y="681" type="curve"/>
      <point x="92" y="703" type="line"/>
      <point x="102" y="715"/>
      <point x="132" y="742"/>
      <point x="177" y="742" type="curve" smooth="yes"/>
      <point x="248" y="742"/>
      <point x="282" y="677"/>
      <point x="302" y="606" type="curve" smooth="yes"/>
      <point x="409" y="229" type="line" smooth="yes"/>
      <point x="439" y="124"/>
      <point x="472" y="42"/>
      <point x="518.706" y="42" type="curve" smooth="yes"/>
      <point x="526" y="42"/>
      <point x="536" y="44"/>
      <point x="544" y="49" type="curve"/>
      <point x="557" y="27" type="line"/>
      <point x="547" y="15"/>
      <point x="517" y="-12"/>
      <point x="472" y="-12" type="curve" smooth="yes"/>
      <point x="401" y="-12"/>
      <point x="369" y="53"/>
      <point x="348" y="124" type="curve" smooth="yes"/>
      <point x="266" y="405" type="line"/>
      <point x="103" y="0" type="line"/>
    </contour>
  </outline>
</glyph>
<glyph name="nu" format="2">
  <advance width="536"/>
  <unicode hex="03BD"/>
  <outline>
    <contour>
      <point x="10" y="463" type="line"/>
      <point x="20" y="475"/>
      <point x="50" y="502"/>
      <point x="95" y="502" type="curve" smooth="yes"/>
      <point x="151" y="502"/>
      <point x="172" y="489"/>
      <point x="198" y="426" type="curve" smooth="yes"/>
      <point x="323" y="120" type="line"/>
      <point x="361" y="194"/>
      <point x="431" y="341"/>
      <point x="431" y="389" type="curve" smooth="yes"/>
      <point x="431" y="410"/>
      <point x="415" y="439"/>
      <point x="415" y="459" type="curve" smooth="yes"/>
      <point x="415" y="473"/>
      <point x="439" y="502"/>
      <point x="479" y="502" type="curve" smooth="yes"/>
      <point x="507" y="502"/>
      <point x="516" y="488"/>
      <point x="516" y="459" type="curve" smooth="yes"/>
      <point x="516" y="402"/>
      <point x="353" y="78"/>
      <point x="314" y="1" type="curve"/>
      <point x="272" y="1" type="line"/>
      <point x="125" y="360" type="line" smooth="yes"/>
      <point x="101" y="417"/>
      <point x="95" y="448"/>
      <point x="54" y="448" type="curve" smooth="yes"/>
      <point x="41" y="448"/>
      <point x="31" y="446"/>
      <point x="23" y="441" type="curve"/>
    </contour>
  </outline>
</glyph>
<glyph name="upsilon" format="2">
  <advance width="542"/>
  <unicode hex="03C5"/>
  <anchor x="276" y="533" name="top"/>
  <outline>
    <contour>
      <point x="10" y="463" type="line"/>
      <point x="29.165" y="485.998"/>
      <point x="66.484" y="502"/>
      <point x="103.539" y="502" type="curve" smooth="yes"/>
      <point x="170.431" y="502"/>
      <point x="206" y="449.855"/>
      <point x="206" y="348" type="curve" smooth="yes"/>
      <point x="206" y="144" type="line" smooth="yes"/>
      <point x="206" y="65.3065"/>
      <point x="234.225" y="24"/>
      <point x="286.243" y="24" type="curve" smooth="yes"/>
      <point x="370.67" y="24"/>
      <point x="445" y="132.811"/>
      <point x="445" y="258.587" type="curve" smooth="yes"/>
      <point x="445" y="306.757"/>
      <point x="434.098" y="358.528"/>
      <point x="403.626" y="399.588" type="curve" smooth="yes"/>
      <point x="387.484" y="421.34"/>
      <point x="383.485" y="437.135"/>
      <point x="383.485" y="447.225" type="curve" smooth="yes"/>
      <point x="383.485" y="476.042"/>
      <point x="416.106" y="506"/>
      <point x="444.243" y="506" type="curve" smooth="yes"/>
      <point x="485.943" y="506"/>
      <point x="512" y="433.316"/>
      <point x="512" y="317" type="curve" smooth="yes"/>
      <point x="512" y="110.722"/>
      <point x="428.562" y="-12"/>
      <point x="288.313" y="-12" type="curve" smooth="yes"/>
      <point x="184.34" y="-12"/>
      <point x="112" y="55.2882"/>
      <point x="112" y="152" type="curve" smooth="yes"/>
      <point x="112" y="313" type="line" smooth="yes"/>
      <point x="112" y="401.875"/>
      <point x="90.6704" y="448"/>
      <point x="49.5718" y="448" type="curve" smooth="yes"/>
      <point x="39.796" y="448"/>
      <point x="30.1227" y="445.452"/>
      <point x="23" y="441" type="curve"/>
    </contour>
  </outline>
</glyph>
